{"glyphs":{"0":{"ha":897,"x_min":136,"x_max":828,"o":"m 192 349 q 165 352 179 347 q 144 365 151 357 q 138 383 136 374 q 161 400 140 393 q 219 390 182 388 q 295 399 257 392 q 367 417 333 407 q 417 429 401 426 q 468 452 444 438 q 496 474 492 467 q 556 483 533 469 q 591 517 578 496 q 612 565 604 539 q 628 613 619 592 l 618 607 q 601 604 610 601 q 583 611 592 607 q 565 625 574 617 q 585 626 574 625 q 607 628 594 628 q 635 629 619 629 l 635 631 l 650 657 q 568 653 621 651 q 461 663 515 654 q 362 685 407 671 q 303 721 317 700 q 290 754 288 744 q 301 764 292 764 q 325 754 311 764 q 349 728 339 744 q 378 696 368 694 q 383 725 389 697 q 382 747 379 739 q 390 756 385 756 q 400 746 394 756 q 408 715 406 736 q 422 699 413 704 q 444 690 432 693 q 471 685 457 686 q 496 682 485 683 q 530 678 507 681 q 576 674 553 675 q 615 675 599 674 q 631 683 632 676 q 615 694 629 689 q 578 705 600 699 q 529 719 556 711 q 481 740 503 728 q 442 771 458 753 q 422 815 425 789 q 436 808 429 815 q 450 792 443 800 q 463 776 457 783 q 476 771 469 769 q 485 778 483 772 q 488 792 488 785 q 489 804 488 799 q 494 808 490 810 q 501 799 500 807 q 503 778 501 790 q 513 756 506 767 q 539 738 521 744 q 581 727 575 722 q 585 756 588 732 q 590 772 585 768 q 601 773 594 776 q 611 756 607 769 q 611 719 615 743 q 623 713 615 715 q 638 708 631 711 q 656 706 646 706 q 679 749 669 726 q 694 789 688 768 q 697 829 700 810 q 698 855 694 849 q 706 857 701 861 q 717 841 711 853 q 722 811 722 829 q 716 777 724 794 q 699 744 708 760 q 683 718 690 729 q 681 703 676 707 q 697 705 685 699 q 721 723 708 711 q 744 748 733 735 q 754 769 754 761 q 761 784 753 776 q 778 796 769 792 q 789 798 786 800 q 782 783 792 796 q 770 765 771 769 q 774 762 769 761 q 787 767 779 763 q 803 776 794 772 q 801 769 811 781 q 772 740 790 758 q 728 703 753 722 q 685 669 704 683 q 706 663 696 668 q 731 654 715 658 q 753 651 739 653 q 783 645 768 649 q 808 636 797 642 q 822 625 819 631 q 819 607 828 613 q 804 593 811 601 q 792 588 801 590 q 770 584 782 586 q 748 579 758 582 q 733 571 738 576 q 707 556 725 561 q 690 551 699 553 q 732 463 721 500 q 742 398 743 425 q 729 353 740 371 q 706 322 718 335 q 739 297 722 310 q 769 272 756 283 q 792 253 783 261 q 801 242 801 244 q 792 213 803 236 q 767 163 782 190 q 734 107 751 135 q 706 65 717 79 q 695 75 697 68 q 694 90 693 82 q 699 108 696 99 q 701 125 701 118 q 711 140 703 138 q 718 140 715 142 q 742 185 732 164 q 756 218 750 203 q 758 239 761 233 q 724 255 753 243 q 661 274 694 267 q 658 220 658 249 q 664 179 657 192 q 665 151 669 169 q 655 112 660 133 q 649 68 650 90 q 663 26 649 46 q 628 29 642 24 q 608 43 614 35 q 602 61 601 51 q 610 75 603 71 q 624 93 618 79 q 632 124 629 107 q 635 156 635 140 q 631 178 635 171 q 620 211 626 185 q 606 265 614 238 q 519 241 551 251 q 457 242 488 231 l 417 251 l 386 239 q 364 208 375 225 q 351 183 353 190 q 376 167 351 176 q 426 141 401 157 q 462 100 450 125 q 450 40 474 75 q 420 57 426 49 q 435 99 414 65 q 346 132 369 113 q 318 176 322 151 q 324 211 318 194 l 197 157 q 204 89 201 121 q 206 35 207 61 q 199 -6 206 8 l 149 25 q 151 31 149 26 q 158 37 154 33 q 168 46 161 40 q 172 82 172 60 q 168 125 171 104 q 160 175 164 150 q 189 197 175 185 q 210 224 200 208 q 224 258 221 239 q 206 274 214 263 q 194 299 199 285 q 188 326 189 313 q 192 349 188 340 z "},"1":{"ha":872,"x_min":36,"x_max":775,"o":"m 450 42 l 450 19 l 532 -33 l 274 -33 l 363 22 l 363 50 q 280 22 328 31 q 185 19 232 14 q 97 46 138 25 q 36 108 57 67 q 117 117 85 100 q 174 168 150 133 l 450 42 m 254 546 q 283 593 269 565 q 312 651 296 621 q 350 711 328 681 q 406 768 372 742 q 481 682 456 729 q 527 594 507 635 q 571 529 547 554 q 639 513 594 504 q 603 474 628 488 q 551 456 579 460 q 572 416 563 435 q 592 382 581 397 l 254 546 m 622 346 q 707 325 656 317 q 660 276 692 293 q 592 253 629 258 q 608 220 599 239 q 624 189 617 201 l 218 375 q 240 411 232 393 q 261 456 249 429 q 208 474 232 460 q 172 513 185 488 q 235 525 210 507 l 622 346 m 664 139 q 712 110 685 119 q 775 108 739 101 q 697 38 751 58 q 585 18 643 17 l 190 193 q 206 222 199 207 q 221 253 214 238 q 151 276 183 258 q 104 325 119 293 q 160 328 138 319 q 201 357 183 338 l 664 139 m 332 165 q 369 181 354 165 q 385 218 385 196 q 369 256 385 240 q 332 272 354 272 q 293 256 308 272 q 278 218 278 240 q 293 181 278 196 q 332 165 308 165 m 382 351 q 410 363 399 351 q 422 392 422 375 q 410 419 422 408 q 382 431 399 431 q 353 419 365 431 q 342 392 342 408 q 353 363 342 375 q 382 351 365 351 m 471 460 q 494 469 485 460 q 503 492 503 478 q 494 514 503 504 q 471 524 485 524 q 449 514 458 524 q 440 492 440 504 q 449 469 440 478 q 471 460 458 460 m 368 561 q 387 568 379 561 q 394 586 394 575 q 368 613 394 613 q 350 605 357 613 q 343 586 343 597 q 350 568 343 575 q 368 561 357 561 m 447 107 q 466 114 458 107 q 474 132 474 121 q 447 158 474 158 q 429 151 436 158 q 422 132 422 143 q 429 114 422 121 q 447 107 436 107 m 519 264 q 538 271 531 264 q 546 289 546 278 q 519 315 546 315 q 501 308 508 315 q 494 289 494 300 q 501 271 494 278 q 519 264 508 264 z "},"2":{"ha":882,"x_min":126,"x_max":808,"o":"m 797 501 q 804 441 808 464 q 786 405 800 418 q 751 385 772 392 q 709 372 731 378 q 669 360 688 367 q 643 339 651 353 q 627 296 631 318 q 628 249 624 274 q 640 196 632 224 q 658 136 649 168 q 681 75 667 108 q 703 9 696 42 q 703 -53 710 -24 q 665 -106 697 -83 q 606 -125 629 -131 q 565 -98 582 -119 q 538 -44 549 -76 q 516 17 526 -12 q 494 68 506 47 q 468 89 483 89 q 440 68 451 89 q 419 17 429 47 q 399 -44 410 -12 q 371 -98 388 -76 q 330 -124 354 -119 q 271 -106 306 -129 q 231 -53 238 -83 q 232 9 225 -24 q 253 75 239 42 q 276 136 268 108 q 308 249 297 200 q 292 339 318 297 q 265 360 283 353 q 226 372 247 367 q 184 385 204 378 q 149 405 164 392 q 131 441 135 418 q 139 501 126 464 q 168 543 149 533 q 212 549 188 553 q 263 535 236 546 q 313 513 289 524 q 353 496 336 501 q 378 499 371 490 q 333 551 350 519 q 315 622 315 583 q 327 681 315 653 q 360 729 339 708 q 408 763 381 750 q 468 775 436 775 q 526 763 499 775 q 575 729 554 750 q 608 681 596 708 q 619 622 619 653 q 602 551 619 583 q 557 499 585 519 q 582 496 564 490 q 624 513 600 501 q 673 535 647 524 q 723 549 699 546 q 767 543 747 553 q 797 501 788 533 m 508 274 q 528 244 515 250 q 547 239 540 239 l 549 239 q 578 250 564 239 q 599 278 593 261 q 592 293 604 290 q 583 293 588 296 q 578 286 579 290 q 565 269 574 276 q 549 263 556 263 q 532 281 536 263 q 511 314 524 308 q 492 319 499 319 q 456 283 467 319 q 445 271 453 274 q 433 268 438 268 q 403 283 410 268 q 391 303 399 299 q 379 308 383 307 q 322 271 351 313 q 325 256 315 261 q 342 258 335 249 q 362 279 353 274 q 375 285 371 285 q 381 276 378 285 q 401 253 386 261 q 433 244 415 244 q 463 254 450 246 q 479 278 475 263 q 493 296 483 296 q 508 274 503 296 m 396 607 q 386 593 386 604 q 416 551 392 569 q 468 529 440 532 l 475 529 q 540 581 521 529 q 533 596 546 590 q 518 589 522 599 q 469 553 503 551 q 431 569 449 556 q 410 597 413 583 q 396 607 407 610 m 385 -31 q 380 -1 388 -12 q 363 15 372 10 q 340 19 351 21 q 322 10 329 18 q 308 3 317 6 q 293 3 300 0 q 278 22 282 7 q 272 30 276 28 q 264 32 268 32 q 254 17 251 28 q 286 -19 261 -12 q 315 -19 301 -24 q 338 -7 329 -15 q 351 -6 343 -3 q 361 -28 364 -11 q 372 -42 361 -39 l 374 -42 q 385 -31 385 -42 m 629 15 q 618 18 626 13 q 578 26 596 32 q 555 5 563 21 q 543 -26 547 -11 q 551 -40 540 -37 q 554 -42 551 -42 q 565 -33 563 -42 q 577 -6 572 -12 q 586 4 582 1 q 604 -1 590 6 q 636 -8 619 -12 q 662 11 653 -3 q 672 28 671 25 q 667 43 678 38 q 651 38 657 49 q 643 26 649 33 q 629 15 638 18 m 246 500 q 258 511 258 500 q 246 524 258 524 q 224 511 229 524 q 215 480 215 499 q 222 449 215 461 q 224 435 225 443 q 218 422 222 426 q 210 419 215 419 q 194 411 197 425 q 203 397 192 400 q 213 396 206 396 q 236 407 225 396 q 247 432 244 417 q 243 458 249 447 q 239 480 239 468 q 243 497 239 492 q 246 500 244 500 m 706 519 q 699 468 688 496 q 732 440 707 444 l 733 439 q 732 428 735 436 q 724 414 729 421 q 726 397 715 406 q 733 396 729 396 q 743 400 739 396 q 753 420 746 406 q 756 449 761 435 q 750 456 754 451 q 735 464 746 461 q 719 476 725 465 q 724 504 714 492 q 722 521 731 513 q 706 519 714 528 m 526 682 q 517 657 513 675 q 525 644 519 650 q 538 638 531 638 l 539 638 q 547 641 542 638 q 553 656 551 644 q 551 664 554 660 q 543 668 547 668 q 542 676 544 671 q 526 682 536 688 m 407 668 q 406 651 399 661 q 419 644 413 644 q 431 649 426 644 q 439 661 438 653 q 433 678 440 669 q 418 682 429 688 q 413 671 413 678 q 407 668 410 671 z "},"3":{"ha":882,"x_min":167,"x_max":732,"o":"m 469 418 q 572 397 524 418 q 655 341 619 376 q 711 257 690 306 q 732 154 732 208 q 711 52 732 100 q 655 -31 690 4 q 572 -87 619 -67 q 469 -108 524 -108 q 367 -87 415 -108 q 283 -31 318 -67 q 226 52 247 4 q 206 154 206 100 q 232 268 206 213 q 210 329 210 294 q 229 389 210 363 q 209 411 228 389 q 178 474 190 433 q 169 516 172 492 q 171 569 167 540 q 188 630 175 597 q 226 699 201 663 q 317 775 265 753 q 407 778 363 790 q 467 742 443 767 q 490 690 490 717 q 481 658 492 671 q 451 639 471 646 q 383 606 417 626 q 322 558 349 586 q 278 494 294 529 q 261 415 261 458 q 311 429 285 429 q 379 401 354 429 q 469 418 422 418 m 715 160 q 696 255 715 210 q 643 333 676 300 q 565 386 610 367 q 469 406 521 406 q 373 386 418 406 q 294 333 328 367 q 242 255 261 300 q 222 160 222 210 q 242 63 222 108 q 294 -15 261 18 q 373 -68 328 -49 q 469 -87 418 -87 q 565 -68 521 -87 q 643 -15 610 -49 q 696 63 676 18 q 715 160 715 108 m 371 740 q 314 726 346 740 q 250 669 282 713 q 201 476 172 568 q 208 459 204 467 q 215 444 213 451 q 288 574 231 517 q 378 638 332 615 q 451 668 424 661 q 464 676 463 671 q 465 683 465 681 q 448 713 465 696 q 404 736 431 729 q 371 740 389 740 m 529 357 q 469 333 493 357 q 444 274 444 310 q 469 215 444 239 q 529 190 493 190 q 588 215 564 190 q 613 274 613 239 q 588 333 613 310 q 529 357 564 357 m 700 160 q 677 58 700 104 q 615 -19 654 13 q 663 49 644 7 q 588 36 629 26 q 504 70 547 46 q 420 125 461 94 q 346 176 379 156 q 291 198 313 196 q 265 167 269 200 q 268 72 258 114 q 301 0 278 29 q 254 72 271 31 q 238 160 238 113 q 256 249 238 207 q 306 323 274 292 q 379 372 338 354 q 469 390 421 390 q 559 372 517 390 q 633 323 601 354 q 682 249 664 292 q 700 160 700 207 z "},"4":{"ha":892,"x_min":150,"x_max":704,"o":"m 342 -39 l 150 -39 l 150 489 l 342 489 l 342 -39 m 704 -39 l 514 -39 l 514 489 l 704 489 l 704 -39 m 490 -47 l 364 -47 l 364 499 l 490 499 l 490 -47 m 575 733 l 668 675 q 654 620 674 647 q 608 571 635 593 q 538 521 578 546 l 438 521 q 514 606 481 565 q 562 676 542 640 q 575 733 582 711 m 258 701 q 271 648 250 679 q 319 589 292 617 q 399 521 353 556 l 296 521 q 224 554 254 535 q 177 592 197 569 q 163 643 157 615 l 258 701 m 426 536 q 443 613 431 576 q 474 678 456 650 q 513 721 492 706 q 558 733 535 736 q 542 679 561 713 q 496 614 522 646 q 426 536 465 576 m 408 536 q 338 597 368 567 q 292 652 311 624 q 276 701 272 681 q 322 694 299 704 q 363 662 344 683 q 393 608 381 640 q 408 536 406 576 z "},"5":{"ha":1008,"x_min":104,"x_max":863,"o":"m 749 464 q 793 399 771 446 q 831 295 815 353 q 855 178 847 238 q 856 74 863 118 q 813 24 850 44 q 720 -7 776 4 q 597 -22 664 -18 q 466 -23 531 -25 q 347 -13 401 -21 q 263 6 293 -6 q 186 67 217 24 q 137 158 156 110 q 111 251 118 207 q 107 311 104 294 q 132 346 108 326 q 193 386 156 365 q 280 427 231 407 q 383 464 329 447 q 340 430 361 446 q 304 399 319 414 q 282 373 289 385 q 283 353 275 361 q 313 356 293 342 q 354 393 333 371 q 407 454 379 418 q 479 424 444 439 q 537 390 508 408 q 581 350 565 372 q 556 392 574 372 q 519 428 539 413 q 477 457 499 444 q 440 476 456 469 q 510 483 465 479 q 601 488 554 488 q 689 484 647 489 q 749 464 731 479 m 378 546 q 306 612 322 593 q 319 646 289 631 q 385 669 368 671 q 400 649 401 668 q 422 661 410 656 q 446 669 433 667 q 469 672 458 672 q 485 669 479 672 q 461 647 472 665 q 442 607 450 628 q 424 551 432 582 l 403 551 q 397 563 400 557 q 392 575 394 568 q 388 590 390 582 l 378 546 m 354 524 q 381 525 363 517 q 417 539 399 533 q 449 540 436 544 q 460 506 461 536 q 443 491 460 499 q 406 478 426 483 q 366 474 385 474 q 342 486 347 475 q 333 523 331 508 q 354 524 335 538 m 676 417 q 637 465 683 451 q 518 465 590 479 q 589 456 557 461 q 642 441 617 450 q 676 417 667 432 m 342 546 l 242 589 l 285 603 l 342 546 z "},"6":{"ha":915,"x_min":85,"x_max":828,"o":"m 786 140 q 778 119 783 129 q 767 99 772 110 l 828 56 l 825 44 l 754 82 q 736 53 747 67 q 714 28 725 40 l 704 44 q 723 67 714 54 q 740 90 732 79 l 643 143 q 640 138 642 140 q 636 132 638 135 l 638 132 l 635 47 l 619 42 l 600 96 q 569 76 585 85 q 535 60 553 67 l 572 14 l 567 7 l 483 47 l 475 47 l 464 -62 q 485 -62 475 -62 q 504 -60 494 -61 l 513 -78 q 488 -80 501 -79 q 464 -81 475 -81 l 456 -167 l 450 -167 l 443 -81 q 431 -81 438 -81 q 415 -79 424 -81 l 426 -62 l 443 -62 l 436 47 l 424 47 l 343 7 l 339 14 l 375 60 q 311 94 343 71 l 296 42 l 278 47 l 275 129 q 271 135 272 132 q 267 140 269 138 l 171 89 q 225 24 192 54 l 217 7 q 201 22 208 17 q 176 51 186 38 q 154 79 165 64 l 90 44 l 85 56 l 142 96 q 127 128 135 113 q 113 161 119 144 l 133 160 q 158 108 143 132 l 247 171 q 242 185 244 176 l 161 224 l 171 239 l 225 232 q 223 255 224 243 q 222 278 222 267 q 228 326 222 304 l 174 319 l 165 333 l 242 374 q 245 381 243 378 q 249 388 247 383 l 161 453 q 128 378 140 417 l 107 379 q 124 422 115 401 q 146 464 133 443 l 85 508 l 90 518 l 158 481 q 194 525 172 506 l 203 508 q 188 491 196 500 q 172 471 179 482 l 271 419 q 274 425 272 422 q 278 431 275 428 l 282 511 l 297 517 l 314 465 q 343 483 329 475 q 374 497 357 490 l 339 538 l 343 546 l 422 508 q 428 509 425 508 q 436 510 432 510 l 443 619 q 417 618 431 619 q 390 614 404 617 l 382 632 q 413 636 397 635 q 443 638 428 638 l 450 724 l 456 724 l 464 638 q 519 633 494 638 l 513 614 q 489 618 501 617 q 465 619 476 619 l 475 510 q 481 509 478 510 q 486 508 483 508 l 567 546 l 572 538 l 538 497 q 596 463 569 485 l 615 517 l 631 511 l 635 429 q 631 431 633 431 l 642 418 l 738 469 q 724 488 731 479 q 711 504 717 497 l 718 522 q 738 501 729 511 q 753 478 746 490 l 825 518 l 828 508 l 764 461 q 803 365 790 417 l 786 365 q 771 410 779 389 q 751 450 763 431 l 661 386 l 665 375 l 749 333 l 739 319 l 683 326 q 686 303 685 315 q 688 278 688 292 q 686 255 688 267 q 683 232 685 243 l 742 239 l 751 224 l 669 182 l 668 185 l 663 174 l 751 110 q 760 125 756 117 q 767 140 764 133 l 786 140 m 582 235 l 601 222 l 669 229 q 674 253 672 240 q 675 278 675 267 q 673 303 675 292 q 668 329 671 315 l 599 336 l 581 325 q 588 303 586 314 q 589 278 589 292 q 588 256 589 267 q 582 235 586 246 m 240 229 l 313 222 l 326 232 q 318 278 318 254 q 328 326 318 306 l 314 336 l 240 329 q 236 278 236 301 q 240 229 236 256 m 525 69 q 594 110 568 85 l 572 175 l 553 186 q 483 146 525 154 l 482 125 l 525 69 m 317 106 q 349 85 332 94 q 382 69 365 76 l 428 125 l 426 146 q 356 185 383 156 l 342 175 l 317 106 m 592 449 q 528 485 564 472 l 482 428 l 483 411 q 551 374 524 403 l 569 382 l 592 449 m 381 485 q 319 453 350 472 l 344 382 l 360 374 q 426 411 386 403 l 428 428 l 381 485 m 293 428 q 271 399 281 415 q 254 367 261 383 l 263 360 q 291 356 275 353 q 314 372 307 358 q 319 400 322 385 q 303 424 315 415 q 293 428 299 428 m 421 496 q 419 485 419 492 q 431 458 419 469 q 457 447 442 447 q 483 458 472 447 q 493 485 493 469 l 493 494 q 454 499 472 499 q 437 498 446 499 q 421 496 428 497 m 611 424 q 594 400 597 415 q 600 372 590 385 q 622 356 607 358 q 650 360 638 353 q 653 363 653 361 q 656 365 654 364 q 615 428 643 397 q 611 424 615 428 m 292 138 q 303 185 317 154 q 281 198 294 196 q 256 193 268 200 l 251 193 q 268 163 260 176 q 289 136 276 149 q 292 138 290 136 m 489 61 q 454 96 489 96 q 431 86 440 96 q 421 61 421 76 q 438 58 431 60 q 454 57 446 57 q 472 58 463 57 q 489 61 481 60 m 622 138 q 642 164 633 150 q 657 193 650 178 q 632 198 646 200 q 611 185 618 196 q 607 158 604 171 q 621 138 610 144 l 622 138 m 349 249 l 389 281 l 349 310 q 344 278 344 293 q 349 249 344 263 m 524 281 l 561 251 q 564 265 564 258 q 564 278 564 271 q 563 293 564 286 q 560 308 561 300 l 524 281 m 490 219 l 485 172 q 528 199 511 182 l 490 219 m 419 215 l 381 197 q 401 183 390 189 q 422 172 411 176 l 419 215 m 485 382 l 489 343 l 525 361 q 485 382 506 376 m 419 344 l 422 382 q 403 374 413 379 q 385 364 393 369 l 419 344 z "},"7":{"ha":806,"x_min":110,"x_max":749,"o":"m 697 29 l 607 113 q 528 62 572 81 q 435 43 483 43 q 433 -17 433 15 q 433 -89 433 -50 q 432 -17 433 -50 q 429 43 431 15 q 337 62 381 43 q 260 113 293 81 l 171 29 l 253 118 q 201 196 221 153 q 182 289 182 239 q 147 290 165 289 q 110 292 129 290 q 147 292 129 292 q 182 293 165 293 q 201 389 182 344 q 253 465 221 433 l 171 556 l 260 474 q 337 523 293 506 q 429 543 381 540 l 433 642 q 433 589 433 614 q 435 543 433 564 q 528 523 483 540 q 607 474 572 506 l 697 556 l 614 465 q 664 388 646 432 q 683 293 682 343 q 715 292 699 292 q 749 292 731 292 q 714 290 729 290 q 683 289 699 289 q 663 196 682 239 q 613 118 644 153 l 697 29 m 193 293 q 272 298 240 294 q 326 306 304 301 q 360 315 347 310 q 382 326 374 319 l 261 458 q 211 384 229 426 q 193 293 193 342 m 607 458 l 485 326 q 505 314 493 319 q 538 304 517 308 q 591 297 558 300 q 672 293 624 294 q 654 384 671 342 q 607 458 638 426 m 672 289 q 593 285 625 288 q 540 278 561 282 q 505 269 518 275 q 482 258 492 264 l 604 126 q 672 289 669 192 m 260 126 l 382 257 q 360 269 374 264 q 326 278 347 274 q 272 285 304 282 q 193 289 240 288 q 210 200 193 242 q 260 126 228 158 m 599 119 l 464 242 q 455 221 460 233 q 447 187 450 208 q 440 133 443 165 q 436 54 438 101 q 525 72 483 54 q 599 119 567 89 m 429 54 q 425 133 428 101 q 419 186 422 165 q 410 219 415 207 q 400 240 406 232 l 267 118 q 342 71 300 88 q 429 54 383 54 m 268 465 l 399 344 q 410 365 404 353 q 419 399 415 378 q 425 453 422 421 q 429 532 428 485 q 341 513 382 531 q 268 465 300 494 m 436 532 q 440 454 438 486 q 447 401 443 422 q 456 366 451 379 q 468 344 461 353 l 597 465 q 524 513 565 494 q 436 532 483 531 z "},"8":{"ha":922,"x_min":1,"x_max":856,"o":"m 429 801 l 475 439 l 856 490 l 504 350 l 693 -12 l 429 296 l 164 -12 l 354 350 l 1 490 l 382 439 l 429 801 z "},"9":{"ha":847,"x_min":129,"x_max":757,"o":"m 753 489 q 733 375 757 435 q 665 253 708 315 q 563 127 621 190 q 443 1 506 64 q 323 127 381 64 q 222 253 265 190 q 153 375 178 315 q 133 489 129 435 q 167 583 138 546 q 235 636 196 619 q 317 649 275 653 q 390 622 360 646 q 443 553 418 601 q 496 622 468 601 q 569 649 526 646 q 651 636 611 653 q 719 583 690 619 q 753 489 749 546 z "},"\u0000":{"ha":0,"x_min":0,"x_max":0,"o":""},"\r":{"ha":356,"x_min":0,"x_max":0,"o":""}," ":{"ha":356,"x_min":0,"x_max":0,"o":""},"a":{"ha":408,"x_min":-50,"x_max":440,"o":"m 440 490 l 300 189 l 297 183 q 268 110 274 135 q 281 86 263 86 q 340 131 308 86 q 408 254 372 176 l 440 221 q 338 55 390 114 q 221 -4 285 -4 q 149 60 156 -4 q 65 2 107 19 q -14 7 22 -15 q -47 99 -50 31 q -1 253 -44 167 q 81 388 39 335 q 161 471 122 442 q 235 507 200 500 q 294 503 269 514 q 321 476 314 493 l 328 490 l 440 490 m 232 269 q 260 335 247 304 q 280 390 274 365 q 285 430 286 414 q 272 453 285 446 q 242 447 261 460 q 202 408 224 433 q 158 349 181 383 q 119 278 136 314 q 93 215 104 246 q 76 157 82 183 q 72 113 71 131 q 83 90 72 94 q 111 99 93 85 q 150 138 129 113 q 193 199 171 164 q 232 269 215 233 m 269 -189 q 274 -197 272 -192 q 274 -206 276 -201 q 257 -210 268 -215 q 253 -204 254 -208 q 251 -197 251 -200 l 225 -182 q 222 -183 222 -183 q 226 -186 225 -186 l 246 -210 l 239 -211 l 219 -186 q 200 -197 213 -194 l 213 -226 l 208 -231 l 196 -203 q 197 -199 197 -201 l 197 -197 l 194 -197 l 194 -231 q 203 -242 203 -231 q 192 -254 203 -254 q 181 -242 181 -254 q 189 -231 181 -233 l 188 -197 l 185 -197 l 185 -199 q 186 -203 185 -201 l 174 -231 l 169 -226 l 182 -197 q 164 -187 175 -196 l 146 -212 l 139 -212 l 158 -186 l 161 -186 q 158 -183 161 -183 l 132 -199 q 128 -212 136 -207 q 111 -210 118 -219 q 115 -192 104 -200 q 129 -194 119 -189 l 156 -178 l 154 -175 q 151 -178 151 -175 l 121 -182 l 122 -176 l 153 -172 q 150 -158 150 -161 q 151 -153 150 -156 q 151 -147 151 -150 l 122 -144 l 121 -139 l 151 -142 q 153 -144 151 -144 q 154 -142 154 -142 l 125 -124 q 111 -125 118 -131 q 107 -110 100 -119 q 122 -106 113 -99 q 128 -119 131 -110 l 158 -135 l 158 -132 l 138 -108 l 143 -106 l 161 -131 q 181 -118 169 -122 l 169 -92 l 174 -87 l 186 -117 q 185 -118 185 -117 q 188 -117 186 -117 l 189 -83 q 181 -72 181 -82 q 192 -60 181 -60 q 203 -72 203 -60 q 194 -83 203 -82 l 194 -117 q 197 -117 196 -117 q 199 -118 197 -118 q 197 -117 197 -117 l 208 -87 l 213 -92 l 203 -118 q 212 -123 207 -121 q 219 -128 217 -125 l 236 -104 l 242 -106 l 225 -131 l 222 -131 q 225 -135 222 -133 l 253 -117 q 257 -101 250 -108 q 274 -106 268 -96 q 271 -122 282 -117 q 256 -121 261 -126 l 228 -140 q 229 -142 228 -142 l 231 -140 l 261 -136 l 260 -142 l 229 -147 q 231 -158 231 -150 q 231 -164 231 -161 q 229 -169 231 -167 l 260 -172 l 263 -179 l 231 -175 q 229 -172 231 -174 q 228 -175 228 -175 l 254 -192 q 269 -189 260 -183 m 247 757 q 253 739 257 739 q 240 750 250 736 l 225 738 l 243 728 l 240 724 l 217 733 l 204 724 l 217 714 l 242 724 l 243 721 l 226 710 q 224 711 224 711 l 221 711 l 239 700 q 250 714 249 714 q 246 694 254 710 q 238 683 242 688 q 232 681 235 679 q 233 686 232 682 q 238 697 233 690 l 219 708 q 221 704 219 704 l 222 704 l 222 683 l 217 681 l 199 690 l 199 692 q 197 694 199 694 l 197 674 q 209 673 204 674 q 214 669 214 672 q 196 665 214 665 q 178 669 178 665 q 193 674 178 674 l 193 694 q 190 692 190 694 q 192 690 190 690 l 174 681 l 172 682 l 169 682 l 169 703 l 171 703 q 172 707 172 704 l 154 694 q 160 679 164 682 q 146 693 156 678 q 139 711 136 706 q 151 699 144 711 l 169 711 q 167 710 168 711 q 164 708 165 710 l 147 718 l 149 722 l 174 714 l 186 724 l 174 732 l 149 722 l 149 726 l 164 736 q 167 735 165 735 q 172 735 167 735 q 168 736 169 735 l 149 747 q 142 738 146 742 q 136 736 139 735 q 137 742 135 736 q 143 754 139 747 q 149 765 146 761 q 156 768 153 769 q 150 751 158 765 l 169 740 q 174 736 174 738 q 171 742 174 742 q 168 743 169 743 l 169 763 l 172 764 l 174 765 l 192 757 l 190 754 q 193 750 190 750 l 193 775 q 178 781 178 778 q 196 785 178 785 q 214 781 214 785 q 209 777 214 778 q 197 775 204 776 l 197 753 q 196 750 196 750 q 200 754 200 750 l 199 754 l 199 757 l 217 765 l 218 764 l 219 764 l 221 744 l 218 744 q 217 739 215 740 l 219 742 l 239 753 q 233 769 231 767 q 247 757 235 771 m 228 -158 q 226 -147 228 -150 l 217 -149 l 203 -158 l 218 -169 l 226 -169 q 228 -164 228 -167 q 228 -158 228 -161 m 154 -158 q 156 -172 154 -167 l 164 -169 l 178 -160 l 164 -149 l 156 -149 q 154 -158 154 -151 m 182 -121 q 172 -126 176 -122 q 164 -133 168 -129 l 169 -140 l 185 -147 l 186 -131 l 182 -121 m 200 -194 q 209 -190 204 -192 q 218 -183 214 -187 l 214 -178 l 197 -169 l 196 -187 l 200 -194 m 217 -132 q 210 -126 214 -129 q 200 -122 206 -122 l 196 -131 l 197 -147 l 213 -139 l 217 -132 m 199 700 l 217 685 l 214 708 l 199 715 l 199 700 m 165 -185 q 174 -190 168 -187 q 183 -194 179 -192 l 186 -187 l 185 -171 l 169 -178 l 165 -185 m 174 761 l 178 738 l 190 732 l 192 747 l 174 761 m 175 686 l 192 700 l 190 715 l 178 708 l 175 686 m 199 732 l 213 739 l 215 760 l 199 747 l 199 732 m 199 -121 l 194 -121 l 194 -126 q 199 -121 199 -122 m 217 -139 l 221 -136 l 218 -133 q 217 -139 217 -135 m 161 -146 l 158 -143 q 156 -146 156 -144 q 161 -146 158 -147 m 188 -126 l 188 -121 l 185 -121 q 188 -126 185 -124 m 164 -135 q 161 -136 161 -136 l 165 -139 q 164 -136 164 -137 l 164 -135 m 225 -144 l 225 -142 l 221 -144 l 225 -144 m 218 736 q 224 736 221 733 l 224 738 l 222 736 l 218 736 m 219 -181 q 221 -179 221 -179 l 219 -179 l 219 -181 m 224 -172 l 225 -174 l 225 -172 l 224 -172 m 164 -181 l 163 -181 l 164 -182 l 164 -181 z "},"!":{"ha":331,"x_min":8,"x_max":518,"o":"m 518 765 l 185 251 l 122 251 l 365 765 l 518 765 m 175 79 q 138 24 167 47 q 75 0 108 0 q 26 24 43 0 q 18 79 8 47 q 56 134 26 111 q 118 157 85 157 q 167 134 150 157 q 175 79 183 111 z "},"B":{"ha":1056,"x_min":11,"x_max":1004,"o":"m 540 665 q 574 651 563 661 q 591 628 586 640 q 594 602 596 615 q 590 579 593 589 q 570 545 585 563 q 532 517 556 528 q 480 503 508 506 q 419 508 451 500 q 361 540 389 517 q 318 599 333 563 q 304 701 296 651 q 342 792 313 750 q 417 869 372 835 q 514 928 463 904 q 617 966 565 953 q 714 978 669 979 q 833 958 776 978 q 928 901 889 939 q 986 810 968 864 q 990 686 1004 756 q 949 578 979 628 q 876 489 919 528 q 952 403 921 451 q 989 307 983 356 q 982 208 993 257 q 948 116 971 160 q 892 34 925 72 q 821 -33 860 -4 q 693 -103 765 -75 q 542 -142 621 -131 q 385 -148 464 -154 q 238 -114 307 -142 q 115 -35 169 -86 q 33 92 61 15 q 15 215 11 153 q 50 325 19 276 q 83 364 63 344 q 126 397 103 383 q 174 413 149 410 q 222 406 199 417 q 255 378 242 396 q 269 340 268 361 q 267 313 269 321 q 257 303 264 306 q 240 303 250 301 q 218 306 231 304 q 179 299 203 308 q 135 261 156 289 q 104 192 115 235 q 101 101 93 150 q 142 9 110 54 q 232 -58 174 -36 q 394 -84 307 -87 q 564 -51 482 -81 q 715 32 646 -21 q 825 153 785 85 q 853 224 843 186 q 860 301 863 263 q 844 375 858 340 q 804 435 831 410 q 782 423 793 428 q 760 414 771 418 q 726 401 744 407 q 689 389 708 394 l 669 324 q 633 222 654 282 q 581 105 613 161 q 505 8 549 49 q 403 -35 461 -33 q 375 -29 388 -35 q 361 -8 363 -24 q 364 8 361 0 q 374 26 367 15 q 394 53 382 36 q 424 96 406 69 q 498 231 465 160 q 569 399 531 303 q 553 415 560 403 q 546 438 546 428 q 551 470 544 454 q 570 501 558 486 q 597 526 582 515 q 624 544 611 538 q 661 633 640 589 q 708 714 682 676 q 764 780 733 751 q 832 822 794 808 q 719 882 786 867 q 583 883 651 897 q 458 828 515 869 q 376 719 400 788 q 381 646 363 679 q 439 607 400 613 q 501 619 474 603 q 540 665 529 636 m 818 528 q 837 549 829 539 q 849 567 844 560 q 870 615 861 588 q 882 671 879 642 q 881 728 885 700 q 865 781 878 757 q 786 691 817 751 q 733 560 756 631 q 818 528 774 551 m 264 594 q 269 576 274 576 q 257 588 267 574 l 242 575 l 260 565 l 257 561 l 233 571 l 221 561 l 233 551 l 258 561 l 260 558 l 243 547 q 240 549 240 549 l 238 549 l 256 538 q 267 551 265 551 q 263 532 271 547 q 255 521 258 525 q 249 518 251 517 q 249 524 249 519 q 254 535 250 528 l 236 546 q 238 542 236 542 l 239 542 l 239 521 l 233 518 l 215 528 l 215 529 q 214 532 215 532 l 214 511 q 226 510 221 511 q 231 507 231 510 q 213 503 231 503 q 194 507 194 503 q 210 511 194 511 l 210 532 q 207 529 207 532 q 208 528 207 528 l 190 518 l 189 519 l 186 519 l 186 540 l 188 540 q 189 544 189 542 l 171 532 q 176 517 181 519 q 163 531 172 515 q 156 549 153 543 q 168 536 161 549 l 186 549 q 183 547 185 549 q 181 546 182 547 l 164 556 l 165 560 l 190 551 l 203 561 l 190 569 l 165 560 l 165 564 l 181 574 q 183 572 182 572 q 189 572 183 572 q 185 574 186 572 l 165 585 q 159 576 163 579 q 153 574 156 572 q 153 579 151 574 q 160 592 156 585 q 166 603 163 599 q 172 606 169 607 q 167 589 175 603 l 186 578 q 190 574 190 575 q 188 579 190 579 q 185 581 186 581 l 186 600 l 189 601 l 190 603 l 208 594 l 207 592 q 210 588 207 588 l 210 613 q 194 618 194 615 q 213 622 194 622 q 231 618 231 622 q 226 615 231 615 q 214 613 221 614 l 214 590 q 213 588 213 588 q 217 592 217 588 l 215 592 l 215 594 l 233 603 l 235 601 l 236 601 l 238 582 l 235 582 q 233 576 232 578 l 236 579 l 256 590 q 250 607 247 604 q 264 594 251 608 m 669 -269 l 667 -269 l 686 -281 l 685 -282 l 664 -271 l 664 -274 l 665 -274 l 667 -275 l 669 -282 l 665 -282 l 661 -271 l 653 -267 l 653 -276 l 661 -285 l 660 -287 l 653 -282 l 651 -303 l 649 -303 l 649 -278 q 647 -282 647 -279 l 642 -287 l 640 -285 l 647 -276 l 647 -268 l 640 -271 l 636 -283 l 633 -282 l 633 -275 l 617 -285 l 615 -282 l 635 -269 l 632 -269 q 631 -271 632 -271 l 624 -269 l 624 -267 l 638 -267 l 644 -262 l 638 -258 l 624 -260 l 624 -257 l 631 -254 q 633 -256 632 -254 l 636 -256 l 614 -242 l 615 -240 l 638 -253 q 636 -250 638 -250 l 635 -249 l 633 -249 l 632 -242 l 635 -242 l 640 -253 l 647 -257 l 647 -249 l 640 -237 l 642 -236 l 647 -242 l 647 -243 q 649 -246 647 -246 l 649 -219 l 651 -219 l 653 -246 q 654 -243 654 -244 q 653 -242 653 -242 l 660 -236 l 661 -237 l 653 -249 l 653 -256 l 660 -253 l 664 -240 l 668 -242 l 667 -249 l 685 -237 l 686 -242 l 665 -254 q 668 -254 665 -254 l 669 -253 l 676 -256 l 676 -258 l 664 -257 l 657 -262 l 664 -267 l 676 -264 l 678 -267 l 669 -269 m 711 476 q 706 456 708 465 q 700 436 703 447 q 750 468 722 447 q 711 476 733 474 m 215 538 l 233 522 l 231 546 l 215 553 l 215 538 m 190 599 l 194 575 l 207 569 l 208 585 l 190 599 m 192 524 l 208 538 l 207 553 l 194 546 l 192 524 m 215 569 l 229 576 l 232 597 l 215 585 l 215 569 m 636 -275 q 638 -272 638 -274 l 633 -275 l 636 -275 m 235 574 q 240 574 238 571 l 240 575 l 239 574 l 235 574 m 664 -249 l 667 -249 l 664 -249 z "},"C":{"ha":690,"x_min":11,"x_max":872,"o":"m 386 554 q 474 538 424 536 q 578 558 525 540 q 678 605 631 575 q 760 674 726 635 q 804 760 793 714 q 794 853 815 806 q 760 888 783 876 q 710 901 738 899 q 654 898 682 903 q 608 886 626 893 q 485 812 542 860 q 381 704 428 764 q 297 578 333 644 q 231 449 260 511 q 183 333 210 401 q 142 192 156 264 q 139 56 129 121 q 199 -50 149 -10 q 290 -79 238 -82 q 381 -44 342 -76 q 437 21 415 -15 q 469 93 458 57 q 478 209 486 150 q 431 313 471 268 q 520 317 478 336 q 578 243 563 297 q 581 126 596 182 q 532 23 567 69 q 447 -60 497 -24 q 340 -115 396 -96 q 227 -135 283 -135 q 125 -115 171 -136 q 49 -46 79 -93 q 15 79 19 1 q 35 256 11 168 q 103 426 60 344 q 200 585 146 508 q 310 728 254 661 q 381 801 338 763 q 473 872 424 839 q 575 928 522 904 q 678 956 628 951 q 771 943 728 961 q 843 875 814 925 q 871 774 872 825 q 847 676 869 724 q 784 585 824 628 q 697 508 744 542 q 597 451 649 474 q 499 424 544 429 q 431 426 460 418 q 387 453 403 435 q 370 497 371 471 q 386 554 369 524 m 539 -321 q 544 -328 542 -324 q 543 -337 546 -333 q 526 -342 538 -347 q 522 -336 524 -340 q 521 -329 521 -332 l 494 -314 q 492 -315 492 -315 q 496 -318 494 -318 l 515 -342 l 508 -343 l 489 -318 q 469 -329 482 -326 l 482 -358 l 478 -362 l 465 -335 q 467 -331 467 -333 l 467 -329 l 464 -329 l 464 -362 q 472 -374 472 -362 q 461 -386 472 -386 q 450 -374 450 -386 q 458 -362 450 -365 l 457 -329 l 454 -329 l 454 -331 q 456 -335 454 -333 l 443 -362 l 439 -358 l 451 -329 q 433 -319 444 -328 l 415 -344 l 408 -344 l 428 -318 l 431 -318 q 428 -315 431 -315 l 401 -331 q 397 -344 406 -339 q 381 -342 388 -351 q 385 -324 374 -332 q 399 -326 389 -321 l 425 -310 l 424 -307 q 421 -310 421 -307 l 390 -314 l 392 -308 l 422 -304 q 419 -290 419 -293 q 420 -285 419 -287 q 421 -279 421 -282 l 392 -276 l 390 -271 l 421 -274 q 422 -276 421 -276 q 424 -274 424 -274 l 394 -256 q 381 -257 388 -262 q 376 -242 369 -251 q 392 -237 382 -231 q 397 -251 400 -242 l 428 -267 l 428 -264 l 407 -240 l 413 -237 l 431 -262 q 450 -250 439 -254 l 439 -224 l 443 -219 l 456 -249 q 454 -250 454 -249 q 457 -249 456 -249 l 458 -215 q 450 -204 450 -214 q 461 -192 450 -192 q 472 -204 472 -192 q 464 -215 472 -214 l 464 -249 q 466 -249 465 -249 q 468 -250 467 -250 q 467 -249 467 -249 l 478 -219 l 482 -224 l 472 -250 q 481 -255 476 -253 q 489 -260 486 -257 l 506 -236 l 511 -237 l 494 -262 l 492 -262 q 494 -267 492 -265 l 522 -249 q 526 -233 519 -240 q 543 -237 538 -228 q 540 -254 551 -249 q 525 -253 531 -258 l 497 -272 q 499 -274 497 -274 l 500 -272 l 531 -268 l 529 -274 l 499 -279 q 500 -290 500 -282 q 500 -296 500 -293 q 499 -301 500 -299 l 529 -304 l 532 -311 l 500 -307 q 499 -304 500 -306 q 497 -307 497 -307 l 524 -324 q 539 -321 529 -315 m 194 817 q 200 799 204 799 q 188 810 197 796 l 172 797 l 190 788 l 188 783 l 164 793 l 151 783 l 164 774 l 189 783 l 190 781 l 174 769 q 171 771 171 771 l 168 771 l 186 760 q 197 774 196 774 q 193 754 201 769 q 185 743 189 747 q 179 740 182 739 q 180 746 179 742 q 185 757 181 750 l 167 768 q 168 764 167 764 l 169 764 l 169 743 l 164 740 l 146 750 l 146 751 q 144 754 146 754 l 144 733 q 156 733 151 733 q 161 729 161 732 q 143 725 161 725 q 125 729 125 725 q 140 733 125 733 l 140 754 q 138 751 138 754 q 139 750 138 750 l 121 740 l 119 742 l 117 742 l 117 763 l 118 763 q 119 767 119 764 l 101 754 q 107 739 111 742 q 93 753 103 738 q 86 771 83 765 q 99 758 92 771 l 117 771 q 114 769 115 771 q 111 768 113 769 l 94 778 l 96 782 l 121 774 l 133 783 l 121 792 l 96 782 l 96 786 l 111 796 q 114 794 113 794 q 119 794 114 794 q 115 796 117 794 l 96 807 q 90 798 93 801 q 83 796 86 794 q 84 801 82 796 q 90 814 86 807 q 97 825 93 821 q 103 828 100 829 q 97 811 106 825 l 117 800 l 121 797 q 118 801 121 801 q 115 803 117 803 l 117 822 l 119 824 l 121 825 l 139 817 l 138 814 q 140 810 138 810 l 140 835 q 125 840 125 838 q 143 844 125 844 q 161 840 161 844 q 156 837 161 838 q 144 835 151 836 l 144 813 q 143 810 143 810 q 147 814 147 810 l 146 814 l 146 817 l 164 825 l 165 824 l 167 824 l 168 804 l 165 804 q 164 799 163 800 l 167 801 l 186 813 q 181 829 178 826 q 194 817 182 831 m 81 -231 l 78 -231 l 97 -242 l 96 -243 l 75 -232 l 75 -235 l 76 -235 l 78 -236 l 81 -243 l 76 -243 l 72 -232 l 64 -228 l 64 -237 l 72 -246 l 71 -249 l 64 -243 l 63 -264 l 60 -264 l 60 -239 q 58 -243 58 -240 l 53 -249 l 51 -246 l 58 -237 l 58 -229 l 51 -232 l 47 -244 l 44 -243 l 44 -236 l 28 -246 l 26 -243 l 46 -231 l 43 -231 q 42 -232 43 -232 l 35 -231 l 35 -228 l 49 -228 l 56 -224 l 49 -219 l 35 -221 l 35 -218 l 42 -215 q 44 -217 43 -215 l 47 -217 l 25 -203 l 26 -201 l 49 -214 q 47 -211 49 -211 l 46 -210 l 44 -210 l 43 -203 l 46 -203 l 51 -214 l 58 -218 l 58 -210 l 51 -199 l 53 -197 l 58 -203 l 58 -204 q 60 -207 58 -207 l 60 -181 l 63 -181 l 64 -207 q 65 -204 65 -206 q 64 -203 64 -203 l 71 -197 l 72 -199 l 64 -210 l 64 -217 l 71 -214 l 75 -201 l 79 -203 l 78 -210 l 96 -199 l 97 -203 l 76 -215 q 79 -215 76 -215 l 81 -214 l 88 -217 l 88 -219 l 75 -218 l 68 -224 l 75 -228 l 88 -225 l 89 -228 l 81 -231 m 497 -290 q 496 -279 497 -282 l 486 -281 l 472 -290 l 488 -301 l 496 -301 q 497 -296 497 -299 q 497 -290 497 -293 m 424 -290 q 425 -304 424 -299 l 433 -301 l 447 -292 l 433 -281 l 425 -281 q 424 -290 424 -283 m 451 -253 q 433 -265 444 -254 l 439 -272 l 454 -279 l 456 -262 l 451 -253 m 469 -326 q 478 -322 474 -324 q 488 -315 483 -319 l 483 -310 l 467 -301 l 465 -319 l 469 -326 m 486 -264 q 479 -258 483 -261 q 469 -254 475 -254 l 465 -262 l 467 -279 l 482 -271 l 486 -264 m 146 760 l 164 744 l 161 768 l 146 775 l 146 760 m 435 -317 q 443 -322 438 -319 q 453 -326 449 -324 l 456 -319 l 454 -303 l 439 -310 l 435 -317 m 121 821 l 125 797 l 138 792 l 139 807 l 121 821 m 122 746 l 139 760 l 138 775 l 125 768 l 122 746 m 146 792 l 160 799 l 163 819 l 146 807 l 146 792 m 468 -253 l 464 -253 l 464 -258 q 468 -253 468 -254 m 431 -278 l 428 -275 q 425 -278 425 -276 q 431 -278 428 -279 m 486 -271 l 490 -268 l 488 -265 q 486 -271 486 -267 m 457 -258 l 457 -253 l 454 -253 q 457 -258 454 -256 m 433 -267 q 431 -268 431 -268 l 435 -271 q 433 -268 433 -269 l 433 -267 m 494 -276 l 494 -274 l 490 -276 l 494 -276 m 47 -236 q 49 -233 49 -235 l 44 -236 l 47 -236 m 165 796 q 171 796 168 793 l 171 797 l 169 796 l 165 796 m 489 -312 q 490 -311 490 -311 l 489 -311 l 489 -312 m 75 -210 l 78 -210 l 75 -210 m 493 -304 l 494 -306 l 494 -304 l 493 -304 m 433 -312 l 432 -312 l 433 -314 l 433 -312 z "},"D":{"ha":1094,"x_min":10,"x_max":1100,"o":"m 532 665 q 576 651 561 665 q 591 616 590 638 q 580 571 592 594 q 544 529 568 547 q 451 503 507 500 q 389 518 418 504 q 339 555 360 532 q 308 607 318 578 q 300 668 297 636 q 364 820 310 756 q 494 924 418 885 q 658 973 571 963 q 818 961 744 983 q 944 898 890 940 q 1034 799 999 856 q 1085 675 1069 743 q 1096 535 1100 607 q 1025 267 1088 396 q 863 43 963 139 q 762 -35 819 1 q 638 -98 704 -71 q 501 -139 572 -125 q 363 -149 431 -153 q 232 -122 294 -146 q 121 -49 169 -97 q 54 48 79 -4 q 19 154 29 100 q 21 261 10 208 q 67 353 32 314 q 98 381 79 367 q 139 405 117 396 q 183 415 161 414 q 225 406 206 417 q 259 356 257 388 q 243 296 261 324 q 229 301 236 299 q 215 306 222 304 q 181 303 201 308 q 142 278 161 297 q 108 225 122 258 q 92 151 94 192 q 104 66 89 111 q 156 -14 119 21 q 244 -65 192 -49 q 357 -83 297 -82 q 577 -43 475 -86 q 759 75 679 0 q 892 249 839 150 q 964 461 944 349 q 965 644 981 557 q 890 799 950 732 q 835 723 860 772 q 786 610 810 674 q 740 473 763 546 q 692 328 717 400 q 638 189 667 256 q 575 72 610 122 q 498 -7 540 22 q 403 -35 456 -36 q 365 -24 379 -35 q 354 4 351 -12 q 374 39 357 22 q 419 96 390 56 q 494 216 461 154 q 558 343 528 278 q 611 468 583 396 q 674 612 639 540 q 752 744 708 683 q 853 835 796 806 q 758 887 813 872 q 646 899 703 901 q 535 877 589 896 q 443 828 481 858 q 383 753 406 796 q 364 675 361 711 q 396 621 368 638 q 450 606 424 604 q 501 624 482 607 q 532 665 521 642 m 208 594 q 214 576 218 576 q 201 588 211 574 l 186 575 l 204 565 l 201 561 l 178 571 l 165 561 l 178 551 l 203 561 l 204 558 l 188 547 q 185 549 185 549 l 182 549 l 200 538 q 211 551 210 551 q 207 532 215 547 q 199 521 203 525 q 193 518 196 517 q 194 524 193 519 q 199 535 194 528 l 181 546 q 182 542 181 542 l 183 542 l 183 521 l 178 518 l 160 528 l 160 529 q 158 532 160 532 l 158 511 q 170 510 165 511 q 175 507 175 510 q 157 503 175 503 q 139 507 139 503 q 154 511 139 511 l 154 532 q 151 529 151 532 q 153 528 151 528 l 135 518 l 133 519 l 131 519 l 131 540 l 132 540 q 133 544 133 542 l 115 532 q 121 517 125 519 q 107 531 117 515 q 100 549 97 543 q 113 536 106 549 l 131 549 q 128 547 129 549 q 125 546 126 547 l 108 556 l 110 560 l 135 551 l 147 561 l 135 569 l 110 560 l 110 564 l 125 574 q 128 572 126 572 q 133 572 128 572 q 129 574 131 572 l 110 585 q 103 576 107 579 q 97 574 100 572 q 98 579 96 574 q 104 592 100 585 q 110 603 107 599 q 117 606 114 607 q 111 589 119 603 l 131 578 q 135 574 135 575 q 132 579 135 579 q 129 581 131 581 l 131 600 l 133 601 l 135 603 l 153 594 l 151 592 q 154 588 151 588 l 154 613 q 139 618 139 615 q 157 622 139 622 q 175 618 175 622 q 170 615 175 615 q 158 613 165 614 l 158 590 q 157 588 157 588 q 161 592 161 588 l 160 592 l 160 594 l 178 603 l 179 601 l 181 601 l 182 582 l 179 582 q 178 576 176 578 l 181 579 l 200 590 q 194 607 192 604 q 208 594 196 608 m 257 897 l 254 897 l 274 886 l 272 885 l 251 896 l 251 893 l 253 893 l 254 892 l 257 885 l 253 885 l 249 896 l 240 900 l 240 890 l 249 882 l 247 879 l 240 885 l 240 889 l 239 864 l 236 864 l 236 889 q 235 885 235 888 l 229 879 l 228 882 l 235 890 l 235 899 l 228 896 l 224 883 l 221 885 l 221 892 l 204 882 l 203 885 l 222 897 l 219 897 q 218 896 219 896 l 211 897 l 211 900 l 225 900 l 232 904 l 225 908 l 211 907 l 211 910 l 218 913 q 221 911 219 913 l 224 911 l 201 925 l 203 926 l 225 914 q 224 917 225 917 l 222 918 l 221 918 l 219 925 l 222 925 l 228 914 l 235 910 l 235 918 l 228 929 l 229 931 l 235 925 l 235 924 q 236 921 235 921 l 236 947 l 239 947 l 240 921 q 242 924 242 922 q 240 925 240 925 l 247 931 l 249 929 l 240 918 l 240 911 l 247 914 l 251 926 l 256 925 l 254 918 l 272 929 l 274 925 l 253 913 q 256 913 253 913 l 257 914 l 264 911 l 264 908 l 251 910 l 244 904 l 251 900 l 264 903 l 265 900 l 257 897 m 774 -225 l 771 -225 l 790 -236 l 789 -237 l 768 -226 l 768 -229 l 769 -229 l 771 -231 l 774 -237 l 769 -237 l 765 -226 l 757 -222 l 757 -232 l 765 -240 l 764 -243 l 757 -237 l 757 -233 l 756 -258 l 753 -258 l 753 -233 q 751 -237 751 -235 l 746 -243 l 744 -240 l 751 -232 l 751 -224 l 744 -226 l 740 -239 l 738 -237 l 738 -231 l 721 -240 l 719 -237 l 739 -225 l 736 -225 q 735 -226 736 -226 l 728 -225 l 728 -222 l 742 -222 l 749 -218 l 742 -214 l 728 -215 l 728 -212 l 735 -210 q 738 -211 736 -210 l 740 -211 l 718 -197 l 719 -196 l 742 -208 q 740 -206 742 -206 l 739 -204 l 738 -204 l 736 -197 l 739 -197 l 744 -208 l 751 -212 l 751 -204 l 744 -193 l 746 -192 l 751 -197 l 751 -199 q 753 -201 751 -201 l 753 -175 l 756 -175 l 757 -201 q 758 -199 758 -200 q 757 -197 757 -197 l 764 -192 l 765 -193 l 757 -204 l 757 -211 l 764 -208 l 768 -196 l 772 -197 l 771 -204 l 789 -193 l 790 -197 l 769 -210 q 772 -210 769 -210 l 774 -208 l 781 -211 l 781 -214 l 768 -212 l 761 -218 l 768 -222 l 781 -219 l 782 -222 l 774 -225 m 160 538 l 178 522 l 175 546 l 160 553 l 160 538 m 135 599 l 139 575 l 151 569 l 153 585 l 135 599 m 136 524 l 153 538 l 151 553 l 139 546 l 136 524 m 160 569 l 174 576 l 176 597 l 160 585 l 160 569 m 740 -231 q 742 -228 742 -229 l 738 -231 l 740 -231 m 224 892 q 225 894 225 893 l 221 892 l 224 892 m 179 574 q 185 574 182 571 l 185 575 l 183 574 l 179 574 m 251 918 q 250 915 251 917 l 254 918 l 251 918 m 768 -204 l 771 -204 l 768 -204 z "},"E":{"ha":782,"x_min":1,"x_max":883,"o":"m 568 593 q 631 600 596 590 q 698 628 665 610 q 759 674 731 647 q 803 730 788 700 q 819 794 819 760 q 794 861 818 828 q 728 904 765 901 q 650 885 690 907 q 572 823 610 863 q 503 739 533 783 q 456 651 474 694 q 440 579 439 607 q 451 542 442 560 q 481 521 461 525 q 535 519 511 524 q 557 488 560 515 q 548 471 556 479 q 519 465 540 463 q 414 455 468 472 q 311 403 360 438 q 222 319 263 368 q 155 216 181 271 q 123 104 129 161 q 136 -4 117 47 q 194 -67 154 -50 q 279 -83 233 -85 q 371 -66 325 -82 q 447 -29 417 -50 q 544 76 507 13 q 575 210 581 140 q 556 254 572 232 q 521 286 539 276 q 557 317 536 308 q 598 324 578 326 q 636 311 618 322 q 665 281 654 300 q 688 151 700 218 q 630 26 675 85 q 516 -78 585 -33 q 370 -140 447 -124 q 215 -140 293 -157 q 76 -58 138 -122 q 21 42 33 -14 q 17 156 8 99 q 53 269 26 214 q 115 365 79 324 q 244 469 172 432 q 397 515 315 506 q 359 556 375 531 q 338 613 343 581 q 338 683 332 644 q 367 761 344 721 q 418 828 385 794 q 493 888 451 861 q 582 933 535 915 q 675 955 629 951 q 763 943 721 958 q 836 889 806 928 q 880 775 876 839 q 860 653 883 711 q 788 551 836 594 q 678 499 740 507 q 588 517 617 490 q 568 593 558 544 m 524 -308 q 528 -316 526 -311 q 528 -325 531 -321 q 511 -329 522 -335 q 507 -324 508 -328 q 506 -317 506 -319 l 479 -301 q 476 -303 476 -303 q 481 -306 479 -306 l 500 -329 l 493 -331 l 474 -306 q 454 -317 467 -314 l 467 -346 l 463 -350 l 450 -322 q 451 -318 451 -321 l 451 -317 l 449 -317 l 449 -350 q 457 -361 457 -350 q 446 -374 457 -374 q 435 -361 435 -374 q 443 -350 435 -353 l 442 -317 l 439 -317 l 439 -318 q 440 -322 439 -321 l 428 -350 l 424 -346 l 436 -317 q 418 -307 429 -315 l 400 -332 l 393 -332 l 413 -306 l 415 -306 q 413 -303 415 -303 l 386 -318 q 382 -332 390 -326 q 365 -329 372 -339 q 369 -311 358 -319 q 383 -314 374 -308 l 410 -297 l 408 -294 q 406 -297 406 -294 l 375 -301 l 376 -296 l 407 -292 q 404 -278 404 -281 q 405 -272 404 -275 q 406 -267 406 -269 l 376 -264 l 375 -258 l 406 -261 q 407 -264 406 -264 q 408 -261 408 -261 l 379 -243 q 365 -244 372 -250 q 361 -229 354 -239 q 376 -225 367 -218 q 382 -239 385 -229 l 413 -254 l 413 -251 l 392 -228 l 397 -225 l 415 -250 q 435 -237 424 -242 l 424 -211 l 428 -207 l 440 -236 q 439 -237 439 -236 q 442 -236 440 -236 l 443 -203 q 435 -192 435 -201 q 446 -179 435 -179 q 457 -192 457 -179 q 449 -203 457 -201 l 449 -236 q 451 -237 450 -236 q 453 -237 451 -237 q 451 -236 451 -236 l 463 -207 l 467 -211 l 457 -237 q 466 -242 461 -240 q 474 -247 471 -244 l 490 -224 l 496 -225 l 479 -250 l 476 -250 q 479 -254 476 -253 l 507 -236 q 511 -221 504 -228 q 528 -225 522 -215 q 525 -242 536 -236 q 510 -240 515 -246 l 482 -260 q 483 -261 482 -261 l 485 -260 l 515 -256 l 514 -261 l 483 -267 q 485 -278 485 -269 q 485 -283 485 -281 q 483 -289 485 -286 l 514 -292 l 517 -299 l 485 -294 q 483 -292 485 -293 q 482 -294 482 -294 l 508 -311 q 524 -308 514 -303 m 236 650 q 242 632 246 632 q 229 643 239 629 l 214 631 l 232 621 l 229 617 l 206 626 l 193 617 l 206 607 l 231 617 l 232 614 l 215 603 q 213 604 213 604 l 210 604 l 228 593 q 239 607 238 607 q 235 588 243 603 q 227 576 231 581 q 221 574 224 572 q 222 579 221 575 q 226 590 222 583 l 208 601 q 210 597 208 597 l 211 597 l 211 576 l 206 574 l 188 583 l 188 585 q 186 588 188 588 l 186 567 q 198 566 193 567 q 203 563 203 565 q 185 558 203 558 q 167 563 167 558 q 182 567 167 567 l 182 588 q 179 585 179 588 q 181 583 179 583 l 163 574 l 161 575 l 158 575 l 158 596 l 160 596 q 161 600 161 597 l 143 588 q 149 572 153 575 q 135 586 144 571 q 128 604 125 599 q 140 592 133 604 l 158 604 q 156 603 157 604 q 153 601 154 603 l 136 611 l 138 615 l 163 607 l 175 617 l 163 625 l 138 615 l 138 619 l 153 629 q 156 628 154 628 q 161 628 156 628 q 157 629 158 628 l 138 640 q 131 631 135 635 q 125 629 128 628 q 126 635 124 629 q 132 647 128 640 q 138 658 135 654 q 144 661 142 663 q 139 644 147 658 l 158 633 l 163 631 q 160 635 163 635 q 157 636 158 636 l 158 656 l 161 657 l 163 658 l 181 650 l 179 647 q 182 643 179 643 l 182 668 q 167 674 167 671 q 185 678 167 678 q 203 674 203 678 q 198 670 203 671 q 186 668 193 669 l 186 646 q 185 643 185 643 q 189 647 189 643 l 188 647 l 188 650 l 206 658 l 207 657 l 208 657 l 210 638 l 207 638 q 206 632 204 633 l 208 635 l 228 646 q 222 663 219 660 q 236 650 224 664 m 57 -231 l 54 -231 l 74 -242 l 72 -243 l 51 -232 l 51 -235 l 53 -235 l 54 -236 l 57 -243 l 53 -243 l 49 -232 l 40 -228 l 40 -237 l 49 -246 l 47 -249 l 40 -243 l 39 -264 l 36 -264 l 36 -239 q 35 -243 35 -240 l 29 -249 l 28 -246 l 35 -237 l 35 -229 l 28 -232 l 24 -244 l 21 -243 l 21 -236 l 4 -246 l 3 -243 l 22 -231 l 19 -231 q 18 -232 19 -232 l 11 -231 l 11 -228 l 25 -228 l 32 -224 l 25 -219 l 11 -221 l 11 -218 l 18 -215 q 21 -217 19 -215 l 24 -217 l 1 -203 l 3 -201 l 25 -214 q 24 -211 25 -211 l 22 -210 l 21 -210 l 19 -203 l 22 -203 l 28 -214 l 35 -218 l 35 -210 l 28 -199 l 29 -197 l 35 -203 l 35 -204 q 36 -207 35 -207 l 36 -181 l 39 -181 l 40 -207 q 42 -204 42 -206 q 40 -203 40 -203 l 47 -197 l 49 -199 l 40 -210 l 40 -217 l 47 -214 l 51 -201 l 56 -203 l 54 -210 l 72 -199 l 74 -203 l 53 -215 q 56 -215 53 -215 l 57 -214 l 64 -217 l 64 -219 l 51 -218 l 44 -224 l 51 -228 l 64 -225 l 65 -228 l 57 -231 m 482 -278 q 481 -267 482 -269 l 471 -268 l 457 -278 l 472 -289 l 481 -289 q 482 -283 482 -286 q 482 -278 482 -281 m 408 -278 q 410 -292 408 -286 l 418 -289 l 432 -279 l 418 -268 l 410 -268 q 408 -278 408 -271 m 436 -240 q 418 -253 429 -242 l 424 -260 l 439 -267 l 440 -250 l 436 -240 m 454 -314 q 463 -309 458 -311 q 472 -303 468 -307 l 468 -297 l 451 -289 l 450 -307 l 454 -314 m 471 -251 q 464 -245 468 -249 q 454 -242 460 -242 l 450 -250 l 451 -267 l 467 -258 l 471 -251 m 188 593 l 206 578 l 203 601 l 188 608 l 188 593 m 419 -304 q 428 -309 422 -307 q 438 -314 433 -311 l 440 -307 l 439 -290 l 424 -297 l 419 -304 m 163 654 l 167 631 l 179 625 l 181 640 l 163 654 m 164 579 l 181 593 l 179 608 l 167 601 l 164 579 m 188 625 l 201 632 l 204 653 l 188 640 l 188 625 m 453 -240 l 449 -240 l 449 -246 q 453 -240 453 -242 m 415 -265 l 413 -262 q 410 -265 410 -264 q 415 -265 413 -267 m 471 -258 l 475 -256 l 472 -253 q 471 -258 471 -254 m 442 -246 l 442 -240 l 439 -240 q 442 -246 439 -243 m 418 -254 q 415 -256 415 -256 l 419 -258 q 418 -256 418 -257 l 418 -254 m 479 -264 l 479 -261 l 475 -264 l 479 -264 m 24 -236 q 25 -233 25 -235 l 21 -236 l 24 -236 m 207 629 q 213 629 210 626 l 213 631 l 211 629 l 207 629 m 474 -300 q 475 -299 475 -299 l 474 -299 l 474 -300 m 51 -210 l 54 -210 l 51 -210 m 478 -292 l 479 -293 l 479 -292 l 478 -292 m 418 -300 l 417 -300 l 418 -301 l 418 -300 z "},"F":{"ha":815,"x_min":0,"x_max":1278,"o":"m 514 693 q 556 684 539 694 q 579 657 572 674 q 583 619 586 640 q 567 575 579 597 q 524 533 551 551 q 460 511 496 515 q 386 519 424 506 q 319 561 349 532 q 278 620 293 588 q 258 688 263 653 q 260 758 254 722 q 282 825 265 793 q 351 914 310 879 q 443 964 393 949 q 549 977 493 979 q 663 956 606 975 q 721 931 685 949 q 801 893 757 914 q 894 852 844 872 q 990 819 943 832 q 1081 802 1038 806 q 1159 811 1125 799 q 1214 856 1193 824 q 1236 949 1235 889 l 1276 950 q 1250 833 1278 881 q 1176 757 1222 785 q 1070 722 1129 729 q 951 725 1011 714 q 930 730 940 728 q 908 735 919 732 q 849 691 878 729 q 792 597 819 653 q 736 474 764 540 q 682 346 708 408 q 793 329 742 333 q 872 350 844 325 l 897 308 q 772 269 833 271 q 650 274 711 267 l 628 229 q 523 58 581 140 q 378 -82 465 -25 q 293 -121 342 -104 q 195 -139 244 -137 q 102 -122 146 -140 q 32 -57 58 -104 q 3 39 7 -12 q 13 141 0 90 q 54 237 26 192 q 122 313 82 282 q 209 358 161 344 q 311 360 257 372 q 347 342 326 356 q 375 307 367 329 q 404 352 385 336 q 449 374 424 368 q 505 377 475 379 q 564 369 535 375 l 596 433 q 641 524 617 472 q 695 624 665 575 q 760 711 725 672 q 835 763 794 750 q 739 808 786 783 q 644 851 692 832 q 545 878 596 869 q 439 876 494 888 q 383 853 408 869 q 341 813 358 836 q 315 760 324 789 q 307 701 306 732 q 320 653 308 674 q 350 621 332 633 q 390 604 368 608 q 436 607 413 600 q 489 638 467 614 q 514 693 511 661 m 382 217 q 323 259 358 247 q 250 265 288 271 q 177 235 213 258 q 117 175 142 213 q 81 113 97 146 q 63 39 65 79 q 77 -35 60 0 q 132 -81 94 -71 q 245 -67 190 -96 q 349 17 300 -37 q 441 140 399 71 q 518 276 483 210 q 449 259 482 272 q 382 217 415 246 m 119 -196 q 125 -214 129 -214 q 113 -203 122 -217 l 97 -214 l 115 -225 l 113 -229 l 89 -219 l 76 -229 l 89 -239 l 114 -229 l 115 -232 l 99 -243 q 96 -242 96 -242 l 93 -242 l 111 -253 q 122 -239 121 -239 q 118 -258 126 -243 q 104 -272 107 -274 q 105 -267 104 -271 q 110 -256 106 -262 l 92 -244 q 93 -249 92 -249 l 94 -249 l 94 -269 l 89 -272 l 71 -262 l 71 -261 q 69 -258 71 -258 l 69 -279 q 81 -280 76 -279 q 86 -283 86 -281 q 68 -287 86 -287 q 50 -283 50 -287 q 65 -279 50 -279 l 65 -258 q 63 -261 63 -258 q 64 -262 63 -262 l 46 -272 l 44 -271 l 42 -271 l 42 -250 l 43 -250 q 44 -246 44 -249 l 26 -258 q 32 -274 36 -271 q 18 -260 28 -275 q 11 -242 8 -247 q 24 -254 17 -242 l 42 -242 q 39 -243 40 -242 q 36 -244 38 -243 l 19 -235 l 21 -231 l 46 -239 l 58 -229 l 46 -221 l 21 -231 l 21 -226 l 36 -217 q 39 -218 38 -218 q 44 -218 39 -218 q 40 -217 42 -218 l 21 -206 q 15 -215 18 -211 q 8 -217 11 -218 q 9 -211 7 -217 q 15 -199 11 -206 q 22 -187 18 -192 q 28 -185 25 -183 q 22 -201 31 -187 l 42 -212 q 46 -217 46 -215 q 43 -211 46 -211 q 40 -210 42 -210 l 42 -190 l 44 -189 l 46 -187 l 64 -196 l 63 -199 q 65 -203 63 -203 l 65 -178 q 50 -172 50 -175 q 68 -168 50 -168 q 86 -172 86 -168 q 81 -176 86 -175 q 69 -178 76 -176 l 69 -200 q 68 -203 68 -203 q 72 -199 72 -203 l 71 -199 l 71 -196 l 89 -187 l 90 -189 l 92 -189 l 93 -208 l 90 -208 q 89 -214 88 -212 l 92 -211 l 111 -200 q 106 -183 103 -186 q 119 -196 107 -182 m 135 575 l 132 575 l 151 564 l 150 563 l 129 574 l 129 571 l 131 571 l 132 569 l 135 563 l 131 563 l 126 574 l 118 578 l 118 568 l 126 560 l 125 557 l 118 563 l 117 542 l 114 542 l 114 567 q 113 563 113 565 l 107 557 l 106 560 l 113 568 l 113 576 l 106 574 l 101 561 l 99 563 l 99 569 l 82 560 l 81 563 l 100 575 l 97 575 q 96 574 97 574 l 89 575 l 89 578 l 103 578 l 110 582 l 103 586 l 89 585 l 89 588 l 96 590 q 99 589 97 590 l 101 589 l 79 603 l 81 604 l 103 592 q 101 594 103 594 l 100 596 l 99 596 l 97 603 l 100 603 l 106 592 l 113 588 l 113 596 l 106 607 l 107 608 l 113 603 l 113 601 q 114 599 113 599 l 114 625 l 117 625 l 118 599 q 119 601 119 600 q 118 603 118 603 l 125 608 l 126 607 l 118 596 l 118 589 l 125 592 l 129 604 l 133 603 l 132 596 l 150 607 l 151 603 l 131 590 q 133 590 131 590 l 135 592 l 142 589 l 142 586 l 129 588 l 122 582 l 129 578 l 142 581 l 143 578 l 135 575 m 549 -240 l 546 -240 l 565 -251 l 564 -253 l 543 -242 l 543 -244 l 544 -244 l 546 -246 l 549 -253 l 544 -253 l 540 -242 l 532 -237 l 532 -247 l 540 -256 l 539 -258 l 532 -253 l 532 -249 l 531 -274 l 528 -274 l 528 -249 q 526 -253 526 -250 l 521 -258 l 519 -256 l 526 -247 l 526 -239 l 519 -242 l 515 -254 l 513 -253 l 513 -246 l 496 -256 l 494 -253 l 514 -240 l 511 -240 q 510 -242 511 -242 l 503 -240 l 503 -237 l 517 -237 l 524 -233 l 517 -229 l 503 -231 l 503 -228 l 510 -225 q 513 -226 511 -225 l 515 -226 l 493 -212 l 494 -211 l 517 -224 q 515 -221 517 -221 l 514 -219 l 513 -219 l 511 -212 l 514 -212 l 519 -224 l 526 -228 l 526 -219 l 519 -208 l 521 -207 l 526 -212 l 526 -214 q 528 -217 526 -217 l 528 -190 l 531 -190 l 532 -217 q 533 -214 533 -215 q 532 -212 532 -212 l 539 -207 l 540 -208 l 532 -219 l 532 -226 l 539 -224 l 543 -211 l 547 -212 l 546 -219 l 564 -208 l 565 -212 l 544 -225 q 547 -225 544 -225 l 549 -224 l 556 -226 l 556 -229 l 543 -228 l 536 -233 l 543 -237 l 556 -235 l 557 -237 l 549 -240 m 71 -253 l 89 -268 l 86 -244 l 71 -237 l 71 -253 m 46 -192 l 50 -215 l 63 -221 l 64 -206 l 46 -192 m 47 -267 l 64 -253 l 63 -237 l 50 -244 l 47 -267 m 71 -221 l 85 -214 l 88 -193 l 71 -206 l 71 -221 m 101 569 q 103 572 103 571 l 99 569 l 101 569 m 515 -246 q 517 -243 517 -244 l 513 -246 l 515 -246 m 90 -217 q 96 -217 93 -219 l 96 -215 l 94 -217 l 90 -217 m 129 596 q 128 593 129 594 l 132 596 l 129 596 m 543 -219 l 546 -219 l 543 -219 z "},"G":{"ha":738,"x_min":7,"x_max":904,"o":"m 428 554 q 515 534 465 532 q 615 556 564 536 q 712 608 665 575 q 791 681 758 640 q 836 765 824 721 q 832 851 849 810 q 778 899 817 889 q 692 897 740 908 q 594 858 644 886 q 504 792 543 829 q 431 712 465 756 q 369 623 397 668 q 319 534 340 578 q 283 453 297 490 q 258 376 269 417 q 239 296 246 336 q 290 301 264 301 q 339 290 315 300 q 385 251 372 276 q 400 199 399 225 q 390 168 401 171 q 358 172 379 165 q 306 185 336 178 q 239 185 275 192 q 258 119 243 153 q 281 83 267 101 q 313 51 294 64 q 351 33 331 38 q 396 39 372 28 q 464 85 435 56 q 517 151 493 115 q 563 226 540 188 q 609 301 585 265 q 665 367 633 338 q 738 414 696 397 l 757 371 q 682 300 713 342 q 628 210 651 258 q 584 110 604 163 q 542 9 564 58 q 491 -85 519 -40 q 422 -165 463 -131 q 353 -206 393 -192 q 269 -222 313 -219 q 184 -216 226 -225 q 107 -187 142 -207 q 48 -128 71 -167 q 18 -50 25 -90 q 31 97 7 24 q 108 224 56 171 q 133 370 110 297 q 186 503 156 443 q 315 702 239 608 q 488 864 392 796 q 574 913 522 888 q 681 951 626 939 q 785 953 735 963 q 868 900 836 944 q 903 799 903 853 q 882 693 904 746 q 819 592 860 640 q 729 506 778 543 q 628 446 681 468 q 532 424 576 424 q 456 438 483 424 q 419 472 429 451 q 412 515 408 492 q 428 554 415 538 m 78 -49 q 92 -106 79 -79 q 132 -147 106 -132 q 192 -165 158 -162 q 257 -160 225 -168 q 378 -92 331 -142 q 463 22 426 -43 q 445 5 454 13 q 425 -10 436 -3 q 353 -40 392 -35 q 276 -33 314 -44 q 206 3 239 -21 q 153 58 174 26 q 128 107 136 81 q 89 33 103 74 q 78 -49 75 -8 m 236 831 q 242 813 246 813 q 229 824 239 810 l 214 811 l 232 801 l 229 797 l 206 807 l 193 797 l 206 788 l 231 797 l 232 794 l 215 783 q 213 785 213 785 l 210 785 l 228 774 q 239 788 238 788 q 235 768 243 783 q 227 757 231 761 q 221 754 224 753 q 222 760 221 756 q 226 771 222 764 l 208 782 q 210 778 208 778 l 211 778 l 211 757 l 206 754 l 188 764 l 188 765 q 186 768 188 768 l 186 747 q 198 747 193 747 q 203 743 203 746 q 185 739 203 739 q 167 743 167 739 q 182 747 167 747 l 182 768 q 179 765 179 768 q 181 764 179 764 l 163 754 l 161 756 l 158 756 l 158 776 l 160 776 q 161 781 161 778 l 143 768 q 149 753 153 756 q 135 767 144 751 q 128 785 125 779 q 140 772 133 785 l 158 785 q 156 783 157 785 q 153 782 154 783 l 136 792 l 138 796 l 163 788 l 175 797 l 163 806 l 138 796 l 138 800 l 153 810 q 156 808 154 808 q 161 808 156 808 q 157 810 158 808 l 138 821 q 131 812 135 815 q 125 810 128 808 q 126 815 124 810 q 132 828 128 821 q 138 839 135 835 q 144 842 142 843 q 139 825 147 839 l 158 814 l 163 811 q 160 815 163 815 q 157 817 158 817 l 158 836 l 161 838 l 163 839 l 181 831 l 179 828 q 182 824 179 824 l 182 849 q 167 854 167 851 q 185 858 167 858 q 203 854 203 858 q 198 851 203 851 q 186 849 193 850 l 186 826 q 185 824 185 824 q 189 828 189 824 l 188 828 l 188 831 l 206 839 l 207 838 l 208 838 l 210 818 l 207 818 q 206 813 204 814 l 208 815 l 228 826 q 222 843 219 840 q 236 831 224 844 m 572 -254 l 569 -254 l 589 -265 l 588 -267 l 567 -256 l 567 -258 l 568 -258 l 569 -260 l 572 -267 l 568 -267 l 564 -256 l 556 -251 l 556 -261 l 564 -269 l 563 -272 l 556 -267 l 554 -287 l 551 -287 l 551 -262 q 550 -267 550 -264 l 544 -272 l 543 -269 l 550 -261 l 550 -253 l 543 -256 l 539 -268 l 536 -267 l 536 -260 l 519 -269 l 518 -267 l 538 -254 l 535 -254 q 533 -256 535 -256 l 526 -254 l 526 -251 l 540 -251 l 547 -247 l 540 -243 l 526 -244 l 526 -242 l 533 -239 q 536 -240 535 -239 l 539 -240 l 517 -226 l 518 -225 l 540 -237 q 539 -235 540 -235 l 538 -233 l 536 -233 l 535 -226 l 538 -226 l 543 -237 l 550 -242 l 550 -233 l 543 -222 l 544 -221 l 550 -226 l 550 -228 q 551 -231 550 -231 l 551 -204 l 554 -204 l 556 -231 q 557 -228 557 -229 q 556 -226 556 -226 l 563 -221 l 564 -222 l 556 -233 l 556 -240 l 563 -237 l 567 -225 l 571 -226 l 569 -233 l 588 -222 l 589 -226 l 568 -239 q 571 -239 568 -239 l 572 -237 l 579 -240 l 579 -243 l 567 -242 l 560 -247 l 567 -251 l 579 -249 l 581 -251 l 572 -254 m 88 -324 l 85 -324 l 104 -335 l 103 -336 l 82 -325 l 82 -328 l 83 -328 l 85 -329 l 88 -336 l 83 -336 l 79 -325 l 71 -321 l 71 -331 l 79 -339 l 78 -342 l 71 -336 l 71 -332 l 69 -357 l 67 -357 l 67 -332 q 65 -336 65 -333 l 60 -342 l 58 -339 l 65 -331 l 65 -322 l 58 -325 l 54 -337 l 51 -336 l 51 -329 l 35 -339 l 33 -336 l 53 -324 l 50 -324 q 49 -325 50 -325 l 42 -324 l 42 -321 l 56 -321 l 63 -317 l 56 -312 l 42 -314 l 42 -311 l 49 -308 q 51 -310 50 -308 l 54 -310 l 32 -296 l 33 -294 l 56 -307 q 54 -304 56 -304 l 53 -303 l 51 -303 l 50 -296 l 53 -296 l 58 -307 l 65 -311 l 65 -303 l 58 -292 l 60 -290 l 65 -296 l 65 -297 q 67 -300 65 -300 l 67 -274 l 69 -274 l 71 -300 q 72 -297 72 -299 q 71 -296 71 -296 l 78 -290 l 79 -292 l 71 -303 l 71 -310 l 78 -307 l 82 -294 l 86 -296 l 85 -303 l 103 -292 l 104 -296 l 83 -308 q 86 -308 83 -308 l 88 -307 l 94 -310 l 94 -312 l 82 -311 l 75 -317 l 82 -321 l 94 -318 l 96 -321 l 88 -324 m 188 774 l 206 758 l 203 782 l 188 789 l 188 774 m 163 835 l 167 811 l 179 806 l 181 821 l 163 835 m 164 760 l 181 774 l 179 789 l 167 782 l 164 760 m 188 806 l 201 813 l 204 833 l 188 821 l 188 806 m 54 -329 q 56 -326 56 -328 l 51 -329 l 54 -329 m 539 -260 q 540 -257 540 -258 l 536 -260 l 539 -260 m 207 810 q 213 810 210 807 l 213 811 l 211 810 l 207 810 m 567 -233 l 569 -233 l 567 -233 m 82 -303 l 85 -303 l 82 -303 z "},"H":{"ha":1071,"x_min":15,"x_max":1413,"o":"m 751 783 q 654 865 717 839 q 578 881 617 881 q 506 869 540 882 q 442 831 471 856 q 394 772 413 807 q 374 716 382 749 q 369 652 367 683 q 385 595 371 621 q 428 557 399 569 q 485 554 457 546 q 531 585 513 563 q 547 620 542 600 q 549 660 551 640 q 603 656 582 671 q 628 604 625 640 q 621 558 631 579 q 594 519 611 536 q 556 490 578 501 q 514 472 535 478 q 456 471 486 465 q 400 493 425 476 q 352 542 369 513 q 327 606 335 571 q 321 676 319 640 q 329 743 322 711 q 378 847 343 801 q 460 920 413 892 q 565 958 508 949 q 681 956 622 968 q 763 926 724 947 q 833 878 801 906 l 997 960 l 1019 918 q 976 895 994 913 q 940 845 958 878 q 901 766 921 813 q 851 656 881 719 q 783 503 817 579 q 713 353 749 428 l 822 324 q 836 356 829 340 q 850 386 843 371 q 942 559 888 467 q 1066 733 997 651 q 1218 877 1135 815 q 1396 958 1301 939 l 1413 914 q 1284 826 1343 882 q 1175 703 1225 771 q 1084 562 1125 635 q 1010 425 1043 489 q 981 372 999 406 q 944 294 964 338 q 1033 288 993 288 q 1100 308 1072 289 q 1112 289 1107 301 q 1122 267 1117 276 q 1023 238 1074 243 q 919 236 972 233 q 883 129 899 183 q 866 29 867 75 q 883 -50 865 -17 q 947 -93 901 -83 q 926 -126 947 -115 q 878 -133 906 -137 q 823 -106 851 -128 q 779 -40 794 -83 q 763 103 756 28 q 794 251 769 179 q 733 262 763 257 q 672 269 703 267 q 659 244 665 257 q 646 219 653 232 q 596 132 622 175 q 538 49 569 89 q 471 -25 507 10 q 390 -86 435 -60 q 305 -123 354 -107 q 206 -140 256 -139 q 112 -122 156 -140 q 43 -56 68 -103 q 17 41 19 -11 q 30 144 15 93 q 74 242 44 196 q 144 321 104 289 q 233 367 185 353 q 332 371 281 382 q 378 345 356 365 q 404 301 401 325 q 433 348 414 331 q 476 373 451 365 q 530 381 500 381 q 592 378 560 382 q 655 502 625 440 q 715 622 685 564 q 776 735 744 681 q 846 835 808 789 l 751 783 m 401 221 q 365 247 388 239 q 318 258 343 256 q 269 256 293 260 q 228 247 244 253 q 129 176 174 231 q 97 113 110 151 q 82 35 83 74 q 94 -37 81 -4 q 143 -81 108 -69 q 258 -72 201 -100 q 364 10 314 -44 q 458 135 414 64 q 536 271 501 206 q 467 254 500 265 q 401 221 433 243 m 725 -322 q 730 -330 728 -325 q 729 -339 732 -335 q 713 -343 724 -349 q 708 -337 710 -342 q 707 -331 707 -333 l 681 -315 q 678 -317 678 -317 q 682 -319 681 -319 l 701 -343 l 694 -344 l 675 -319 q 656 -331 668 -328 l 668 -360 l 664 -364 l 651 -336 q 653 -332 653 -335 l 653 -331 l 650 -331 l 650 -364 q 658 -375 658 -364 q 647 -387 658 -387 q 636 -375 636 -387 q 644 -364 636 -367 l 643 -331 l 640 -331 l 640 -332 q 642 -336 640 -335 l 629 -364 l 625 -360 l 638 -331 q 619 -321 631 -329 l 601 -346 l 594 -346 l 614 -319 l 617 -319 q 614 -317 617 -317 l 588 -332 q 583 -346 592 -340 q 567 -343 574 -353 q 571 -325 560 -333 q 585 -328 575 -322 l 611 -311 l 610 -308 q 607 -311 607 -308 l 576 -315 l 578 -310 l 608 -306 q 606 -292 606 -294 q 606 -286 606 -289 q 607 -281 607 -283 l 578 -278 l 576 -272 l 607 -275 q 608 -278 607 -278 q 610 -275 610 -275 l 581 -257 q 567 -258 574 -264 q 563 -243 556 -253 q 578 -239 568 -232 q 583 -253 586 -243 l 614 -268 l 614 -265 l 593 -242 l 599 -239 l 617 -264 q 636 -251 625 -256 l 625 -225 l 629 -221 l 642 -250 q 640 -251 640 -250 q 643 -250 642 -250 l 644 -217 q 636 -206 636 -215 q 647 -193 636 -193 q 658 -206 658 -193 q 650 -217 658 -215 l 650 -250 q 652 -251 651 -250 q 654 -251 653 -251 q 653 -250 653 -250 l 664 -221 l 668 -225 l 658 -251 q 667 -256 663 -254 q 675 -261 672 -258 l 692 -237 l 697 -239 l 681 -264 l 678 -264 q 681 -268 678 -267 l 708 -250 q 713 -235 706 -242 q 729 -239 724 -229 q 726 -256 738 -250 q 711 -254 717 -260 l 683 -274 q 685 -275 683 -275 l 686 -274 l 717 -269 l 715 -275 l 685 -281 q 686 -292 686 -283 q 686 -297 686 -294 q 685 -303 686 -300 l 715 -306 l 718 -312 l 686 -308 q 685 -306 686 -307 q 683 -308 683 -308 l 710 -325 q 725 -322 715 -317 m 194 594 q 200 576 204 576 q 188 588 197 574 l 172 575 l 190 565 l 188 561 l 164 571 l 151 561 l 164 551 l 189 561 l 190 558 l 174 547 q 171 549 171 549 l 168 549 l 186 538 q 197 551 196 551 q 193 532 201 547 q 185 521 189 525 q 179 518 182 517 q 180 524 179 519 q 185 535 181 528 l 167 546 q 168 542 167 542 l 169 542 l 169 521 l 164 518 l 146 528 l 146 529 q 144 532 146 532 l 144 511 q 156 510 151 511 q 161 507 161 510 q 143 503 161 503 q 125 507 125 503 q 140 511 125 511 l 140 532 q 138 529 138 532 q 139 528 138 528 l 121 518 l 119 519 l 117 519 l 117 540 l 118 540 q 119 544 119 542 l 101 532 q 107 517 111 519 q 93 531 103 515 q 86 549 83 543 q 99 536 92 549 l 117 549 q 114 547 115 549 q 111 546 113 547 l 94 556 l 96 560 l 121 551 l 133 561 l 121 569 l 96 560 l 96 564 l 111 574 q 114 572 113 572 q 119 572 114 572 q 115 574 117 572 l 96 585 q 90 576 93 579 q 83 574 86 572 q 84 579 82 574 q 90 592 86 585 q 97 603 93 599 q 103 606 100 607 q 97 589 106 603 l 117 578 l 121 575 q 118 579 121 579 q 115 581 117 581 l 117 600 l 119 601 l 121 603 l 139 594 l 138 592 q 140 588 138 588 l 140 613 q 125 618 125 615 q 143 622 125 622 q 161 618 161 622 q 156 615 161 615 q 144 613 151 614 l 144 590 q 143 588 143 588 q 147 592 147 588 l 146 592 l 146 594 l 164 603 l 165 601 l 167 601 l 168 582 l 165 582 q 164 576 163 578 l 167 579 l 186 590 q 181 607 178 604 q 194 594 182 608 m 124 -265 l 121 -265 l 140 -276 l 139 -278 l 118 -267 l 118 -269 l 119 -269 l 121 -271 l 124 -278 l 119 -278 l 115 -267 l 107 -262 l 107 -272 l 115 -281 l 114 -283 l 107 -278 l 106 -299 l 103 -299 l 103 -274 q 101 -278 101 -275 l 96 -283 l 94 -281 l 101 -272 l 101 -264 l 94 -267 l 90 -279 l 88 -278 l 88 -271 l 71 -281 l 69 -278 l 89 -265 l 86 -265 q 85 -267 86 -267 l 78 -265 l 78 -262 l 92 -262 l 99 -258 l 92 -254 l 78 -256 l 78 -253 l 85 -250 q 88 -251 86 -250 l 90 -251 l 68 -237 l 69 -236 l 92 -249 q 90 -246 92 -246 l 89 -244 l 88 -244 l 86 -237 l 89 -237 l 94 -249 l 101 -253 l 101 -244 l 94 -233 l 96 -232 l 101 -237 l 101 -239 q 103 -242 101 -242 l 103 -215 l 106 -215 l 107 -242 q 108 -239 108 -240 q 107 -237 107 -237 l 114 -232 l 115 -233 l 107 -244 l 107 -251 l 114 -249 l 118 -236 l 122 -237 l 121 -244 l 139 -233 l 140 -237 l 119 -250 q 122 -250 119 -250 l 124 -249 l 131 -251 l 131 -254 l 118 -253 l 111 -258 l 118 -262 l 131 -260 l 132 -262 l 124 -265 m 683 -292 q 682 -281 683 -283 l 672 -282 l 658 -292 l 674 -303 l 682 -303 q 683 -297 683 -300 q 683 -292 683 -294 m 610 -292 q 611 -306 610 -300 l 619 -303 l 633 -293 l 619 -282 l 611 -282 q 610 -292 610 -285 m 638 -254 q 619 -267 631 -256 l 625 -274 l 640 -281 l 642 -264 l 638 -254 m 656 -328 q 665 -323 660 -325 q 674 -317 669 -321 l 669 -311 l 653 -303 l 651 -321 l 656 -328 m 672 -265 q 665 -259 669 -262 q 656 -256 661 -256 l 651 -264 l 653 -281 l 668 -272 l 672 -265 m 146 538 l 164 522 l 161 546 l 146 553 l 146 538 m 621 -318 q 629 -323 624 -321 q 639 -328 635 -325 l 642 -321 l 640 -304 l 625 -311 l 621 -318 m 121 599 l 125 575 l 138 569 l 139 585 l 121 599 m 122 524 l 139 538 l 138 553 l 125 546 l 122 524 m 146 569 l 160 576 l 163 597 l 146 585 l 146 569 m 654 -254 l 650 -254 l 650 -260 q 654 -254 654 -256 m 617 -279 l 614 -276 q 611 -279 611 -278 q 617 -279 614 -281 m 672 -272 l 676 -269 l 674 -267 q 672 -272 672 -268 m 643 -260 l 643 -254 l 640 -254 q 643 -260 640 -257 m 619 -268 q 617 -269 617 -269 l 621 -272 q 619 -269 619 -271 l 619 -268 m 681 -278 l 681 -275 l 676 -278 l 681 -278 m 90 -271 q 92 -268 92 -269 l 88 -271 l 90 -271 m 165 574 q 171 574 168 571 l 171 575 l 169 574 l 165 574 m 675 -314 q 676 -312 676 -312 l 675 -312 l 675 -314 m 118 -244 l 121 -244 l 118 -244 m 679 -306 l 681 -307 l 681 -306 l 679 -306 m 619 -314 l 618 -314 l 619 -315 l 619 -314 z "},"R":{"ha":1014,"x_min":11,"x_max":1179,"o":"m 501 665 q 549 649 535 665 q 563 610 564 632 q 548 564 563 588 q 511 526 533 540 q 426 500 469 500 q 346 521 382 500 q 288 580 310 542 q 269 669 265 618 q 325 809 275 746 q 449 914 375 872 q 606 972 522 956 q 765 974 690 989 q 893 910 840 960 q 956 769 946 861 q 949 669 961 717 q 915 581 938 621 q 858 513 900 554 q 763 435 815 471 q 814 326 789 388 q 865 199 839 264 q 919 72 890 135 q 985 -37 949 10 q 1065 -110 1021 -83 q 1165 -129 1108 -136 q 1173 -172 1179 -153 q 1151 -204 1167 -190 q 1112 -226 1135 -218 q 1069 -235 1089 -233 q 951 -206 1007 -240 q 864 -118 896 -171 q 806 7 826 -57 q 774 138 786 71 q 750 272 761 204 q 721 408 739 339 q 683 391 701 399 q 647 378 665 383 q 604 263 626 322 q 555 145 582 203 q 492 35 528 88 q 411 -57 457 -17 q 283 -128 354 -107 q 136 -132 211 -149 q 90 -112 113 -126 q 51 -78 67 -99 q 17 5 24 -40 q 19 97 11 50 q 48 187 28 143 q 96 263 68 231 q 149 312 118 289 q 213 349 179 335 q 284 366 247 363 q 354 358 321 369 q 404 325 383 347 q 429 272 425 303 q 427 233 433 238 q 403 234 421 228 q 353 249 385 240 q 276 254 322 258 q 213 235 243 250 q 158 198 183 221 q 115 146 133 175 q 85 86 96 117 q 72 16 72 54 q 92 -50 72 -22 q 149 -83 111 -78 q 222 -75 188 -87 q 327 4 281 -53 q 410 131 374 61 q 476 272 447 201 q 529 394 506 343 q 530 397 529 396 q 531 399 531 397 q 519 414 524 406 q 513 438 513 425 q 515 458 513 450 q 544 497 524 482 q 589 524 564 513 q 629 599 608 563 q 675 672 650 636 q 706 712 689 692 q 742 749 724 732 q 780 780 761 767 q 815 800 799 793 q 801 814 808 807 q 786 828 793 821 q 712 866 757 851 q 617 883 667 881 q 517 874 568 885 q 426 838 467 863 q 360 773 386 813 q 332 676 333 733 q 344 635 331 651 q 376 612 357 619 q 419 606 396 604 q 461 617 442 607 q 501 665 490 633 m 835 644 q 842 706 842 674 q 833 767 843 738 q 790 725 810 753 q 751 663 769 697 q 719 590 733 629 q 692 515 704 551 q 729 482 713 503 q 797 553 769 511 q 835 644 824 596 m 681 -239 q 685 -247 683 -242 q 685 -256 688 -251 q 668 -260 679 -265 q 664 -254 665 -258 q 663 -247 663 -250 l 636 -232 q 633 -233 633 -233 q 638 -236 636 -236 l 657 -260 l 650 -261 l 631 -236 q 611 -247 624 -244 l 624 -276 l 619 -281 l 607 -253 q 608 -249 608 -251 l 608 -247 l 606 -247 l 606 -281 q 614 -292 614 -281 q 603 -304 614 -304 q 592 -292 592 -304 q 600 -281 592 -283 l 599 -247 l 596 -247 l 596 -249 q 597 -253 596 -251 l 585 -281 l 581 -276 l 593 -247 q 575 -237 586 -246 l 557 -262 l 550 -262 l 569 -236 l 572 -236 q 569 -233 572 -233 l 543 -249 q 539 -262 547 -257 q 522 -260 529 -269 q 526 -242 515 -250 q 540 -244 531 -239 l 567 -228 l 565 -225 q 563 -228 563 -225 l 532 -232 l 533 -226 l 564 -222 q 561 -208 561 -211 q 562 -203 561 -206 q 563 -197 563 -200 l 533 -194 l 532 -189 l 563 -192 q 564 -194 563 -194 q 565 -192 565 -192 l 536 -174 q 522 -175 529 -181 q 518 -160 511 -169 q 533 -156 524 -149 q 539 -169 542 -160 l 569 -185 l 569 -182 l 549 -158 l 554 -156 l 572 -181 q 592 -168 581 -172 l 581 -142 l 585 -137 l 597 -167 q 596 -168 596 -167 q 599 -167 597 -167 l 600 -133 q 592 -122 592 -132 q 603 -110 592 -110 q 614 -122 614 -110 q 606 -133 614 -132 l 606 -167 q 608 -167 607 -167 q 610 -168 608 -168 q 608 -167 608 -167 l 619 -137 l 624 -142 l 614 -168 q 623 -173 618 -171 q 631 -178 628 -175 l 647 -154 l 653 -156 l 636 -181 l 633 -181 q 636 -185 633 -183 l 664 -167 q 668 -151 661 -158 q 685 -156 679 -146 q 682 -172 693 -167 q 667 -171 672 -176 l 639 -190 q 640 -192 639 -192 l 642 -190 l 672 -186 l 671 -192 l 640 -197 q 642 -208 642 -200 q 642 -214 642 -211 q 640 -219 642 -217 l 671 -222 l 674 -229 l 642 -225 q 640 -222 642 -224 q 639 -225 639 -225 l 665 -242 q 681 -239 671 -233 m 160 549 q 165 531 169 531 q 153 542 163 528 l 138 529 l 156 519 l 153 515 l 129 525 l 117 515 l 129 506 l 154 515 l 156 513 l 139 501 q 136 503 136 503 l 133 503 l 151 492 q 163 506 161 506 q 158 486 167 501 q 151 475 154 479 q 144 472 147 471 q 145 478 144 474 q 150 489 146 482 l 132 500 q 133 496 132 496 l 135 496 l 135 475 l 129 472 l 111 482 l 111 483 q 110 486 111 486 l 110 465 q 122 465 117 465 q 126 461 126 464 q 108 457 126 457 q 90 461 90 457 q 106 465 90 465 l 106 486 q 103 483 103 486 q 104 482 103 482 l 86 472 l 85 474 l 82 474 l 82 494 l 83 494 q 85 499 85 496 l 67 486 q 72 471 76 474 q 58 485 68 469 q 51 503 49 497 q 64 490 57 503 l 82 503 q 79 501 81 503 q 76 500 78 501 l 60 510 l 61 514 l 86 506 l 99 515 l 86 524 l 61 514 l 61 518 l 76 528 q 79 526 78 526 q 85 526 79 526 q 81 528 82 526 l 61 539 q 55 530 58 533 q 49 528 51 526 q 49 533 47 528 q 56 546 51 539 q 62 557 58 553 q 68 560 65 561 q 63 543 71 557 l 82 532 q 86 528 86 529 q 83 533 86 533 q 81 535 82 535 l 82 554 l 85 556 l 86 557 l 104 549 l 103 546 q 106 542 103 542 l 106 567 q 90 572 90 569 q 108 576 90 576 q 126 572 126 576 q 122 569 126 569 q 110 567 117 568 l 110 544 q 108 542 108 542 q 113 546 113 542 l 111 546 l 111 549 l 129 557 l 131 556 l 132 556 l 133 536 l 131 536 q 129 531 128 532 l 132 533 l 151 544 q 146 561 143 558 q 160 549 147 563 m 303 976 l 300 976 l 319 965 l 318 964 l 297 975 l 297 972 l 299 972 l 300 971 l 303 964 l 299 964 l 294 975 l 286 979 l 286 969 l 294 961 l 293 958 l 286 964 l 285 943 l 282 943 l 282 968 q 281 964 281 967 l 275 958 l 274 961 l 281 969 l 281 978 l 274 975 l 269 963 l 267 964 l 267 971 l 250 961 l 249 964 l 268 976 l 265 976 q 264 975 265 975 l 257 976 l 257 979 l 271 979 l 278 983 l 271 988 l 257 986 l 257 989 l 264 992 q 267 990 265 992 l 269 990 l 247 1004 l 249 1006 l 271 993 q 269 996 271 996 l 268 997 l 267 997 l 265 1004 l 268 1004 l 274 993 l 281 989 l 281 997 l 274 1008 l 275 1010 l 281 1004 l 281 1003 q 282 1000 281 1000 l 282 1026 l 285 1026 l 286 1000 q 288 1003 288 1001 q 286 1004 286 1004 l 293 1010 l 294 1008 l 286 997 l 286 990 l 293 993 l 297 1006 l 301 1004 l 300 997 l 318 1008 l 319 1004 l 299 992 q 301 992 299 992 l 303 993 l 310 990 l 310 988 l 297 989 l 290 983 l 297 979 l 310 982 l 311 979 l 303 976 m 678 472 l 667 439 l 696 454 l 678 472 m 639 -208 q 638 -197 639 -200 l 628 -199 l 614 -208 l 629 -219 l 638 -219 q 639 -214 639 -217 q 639 -208 639 -211 m 565 -208 q 567 -222 565 -217 l 575 -219 l 589 -210 l 575 -199 l 567 -199 q 565 -208 565 -201 m 593 -171 q 575 -183 586 -172 l 581 -190 l 596 -197 l 597 -181 l 593 -171 m 611 -244 q 620 -240 615 -242 q 629 -233 625 -237 l 625 -228 l 608 -219 l 607 -237 l 611 -244 m 628 -182 q 621 -176 625 -179 q 611 -172 617 -172 l 607 -181 l 608 -197 l 624 -189 l 628 -182 m 111 492 l 129 476 l 126 500 l 111 507 l 111 492 m 576 -235 q 585 -240 579 -237 q 594 -244 590 -242 l 597 -237 l 596 -221 l 581 -228 l 576 -235 m 86 553 l 90 529 l 103 524 l 104 539 l 86 553 m 88 478 l 104 492 l 103 507 l 90 500 l 88 478 m 111 524 l 125 531 l 128 551 l 111 539 l 111 524 m 610 -171 l 606 -171 l 606 -176 q 610 -171 610 -172 m 572 -196 l 569 -193 q 567 -196 567 -194 q 572 -196 569 -197 m 628 -189 l 632 -186 l 629 -183 q 628 -189 628 -185 m 599 -176 l 599 -171 l 596 -171 q 599 -176 596 -174 m 575 -185 q 572 -186 572 -186 l 576 -189 q 575 -186 575 -187 l 575 -185 m 636 -194 l 636 -192 l 632 -194 l 636 -194 m 269 971 q 271 974 271 972 l 267 971 l 269 971 m 131 528 q 136 528 133 525 l 136 529 l 135 528 l 131 528 m 297 997 q 296 994 297 996 l 300 997 l 297 997 m 631 -231 q 632 -229 632 -229 l 631 -229 l 631 -231 m 575 -231 l 574 -231 l 575 -232 l 575 -231 m 635 -222 l 636 -224 l 636 -222 l 635 -222 z "},"Q":{"ha":1018,"x_min":10,"x_max":1071,"o":"m 242 644 q 283 624 272 640 q 294 588 294 608 q 284 547 293 567 q 264 518 275 528 q 206 490 242 497 q 135 494 171 483 q 49 551 78 513 q 15 638 21 589 q 25 738 10 686 q 70 835 40 790 q 142 910 100 879 q 231 949 183 942 q 333 947 288 957 q 418 916 379 938 q 490 864 457 894 q 554 800 522 833 q 615 861 583 831 q 681 918 647 892 q 751 965 715 944 q 824 997 788 986 q 931 1001 886 1015 q 1006 952 976 986 q 1050 869 1035 918 q 1067 771 1065 821 q 1038 565 1071 675 q 947 348 1004 456 q 815 143 890 240 q 657 -24 739 46 q 706 -77 681 -51 q 761 -122 732 -103 q 822 -153 790 -142 q 890 -167 854 -165 q 894 -205 899 -187 q 878 -235 890 -222 q 849 -256 867 -247 q 811 -268 831 -264 q 729 -263 769 -276 q 655 -224 689 -250 q 594 -165 621 -199 q 554 -97 568 -131 q 379 -151 463 -151 q 238 -75 296 -151 q 188 40 197 -24 q 192 174 179 104 q 233 313 204 243 q 299 449 263 383 q 374 571 335 514 q 444 668 413 628 l 489 725 q 429 780 460 754 q 367 826 399 806 q 304 858 336 846 q 238 871 272 871 q 178 860 206 872 q 131 829 151 849 q 95 784 110 810 q 72 732 81 758 q 67 685 64 708 q 80 642 69 661 q 109 608 90 622 q 151 590 128 594 q 206 599 179 585 q 242 644 232 613 m 626 13 q 701 99 665 51 q 765 194 736 146 q 818 290 794 243 q 858 376 842 338 q 897 465 875 414 q 933 571 918 515 l 921 563 q 813 524 864 526 q 716 542 763 522 q 625 599 669 563 q 538 678 581 636 q 485 589 508 632 q 444 513 461 546 q 417 458 433 490 q 383 385 400 425 q 348 302 365 346 q 318 214 331 258 q 410 208 368 222 q 489 163 453 193 q 559 94 525 133 q 626 13 593 54 m 913 886 q 828 919 875 925 q 736 887 782 914 q 652 822 690 860 q 593 758 614 785 q 692 663 640 707 q 814 603 744 619 q 896 608 860 593 q 948 660 933 624 q 962 740 963 697 q 947 824 961 783 q 913 886 933 864 m 306 163 q 296 40 290 96 q 339 -53 301 -17 q 436 -86 381 -90 q 533 -56 485 -82 q 490 33 514 -14 q 439 114 467 79 q 378 165 411 149 q 306 163 344 181 m 125 372 q 131 354 135 354 q 118 365 128 351 l 103 353 l 121 343 l 118 339 l 94 349 l 82 339 l 94 329 l 119 339 l 121 336 l 104 325 q 101 326 101 326 l 99 326 l 117 315 q 128 329 126 329 q 124 310 132 325 q 116 299 119 303 q 110 296 113 294 q 110 301 110 297 q 115 313 111 306 l 97 324 q 99 319 97 319 l 100 319 l 100 299 l 94 296 l 76 306 l 76 307 q 75 310 76 310 l 75 289 q 87 288 82 289 q 92 285 92 288 q 74 281 92 281 q 56 285 56 281 q 71 289 56 289 l 71 310 q 68 307 68 310 q 69 306 68 306 l 51 296 l 50 297 l 47 297 l 47 318 l 49 318 q 50 322 50 319 l 32 310 q 38 294 42 297 q 24 308 33 293 q 17 326 14 321 q 29 314 22 326 l 47 326 q 44 325 46 326 q 42 324 43 325 l 25 333 l 26 338 l 51 329 l 64 339 l 51 347 l 26 338 l 26 342 l 42 351 q 44 350 43 350 q 50 350 44 350 q 46 351 47 350 l 26 363 q 20 353 24 357 q 14 351 17 350 q 15 357 13 351 q 21 369 17 363 q 27 381 24 376 q 33 383 31 385 q 28 367 36 381 l 47 356 l 51 353 q 49 357 51 357 q 46 358 47 358 l 47 378 l 50 379 l 51 381 l 69 372 l 68 369 q 71 365 68 365 l 71 390 q 56 396 56 393 q 74 400 56 400 q 92 396 92 400 q 87 392 92 393 q 75 390 82 392 l 75 368 q 74 365 74 365 q 78 369 78 365 l 76 369 l 76 372 l 94 381 l 96 379 l 97 379 l 99 360 l 96 360 q 94 354 93 356 l 97 357 l 117 368 q 111 385 108 382 q 125 372 113 386 m 472 -296 l 469 -296 l 489 -307 l 488 -308 l 467 -297 l 467 -300 l 468 -300 l 469 -301 l 472 -308 l 468 -308 l 464 -297 l 456 -293 l 456 -303 l 464 -311 l 463 -314 l 456 -308 l 454 -329 l 451 -329 l 451 -304 q 450 -308 450 -306 l 444 -314 l 443 -311 l 450 -303 l 450 -294 l 443 -297 l 439 -310 l 436 -308 l 436 -301 l 419 -311 l 418 -308 l 438 -296 l 435 -296 q 433 -297 435 -297 l 426 -296 l 426 -293 l 440 -293 l 447 -289 l 440 -285 l 426 -286 l 426 -283 l 433 -281 q 436 -282 435 -281 l 439 -282 l 417 -268 l 418 -267 l 440 -279 q 439 -276 440 -276 l 438 -275 l 436 -275 l 435 -268 l 438 -268 l 443 -279 l 450 -283 l 450 -275 l 443 -264 l 444 -262 l 450 -268 l 450 -269 q 451 -272 450 -272 l 451 -246 l 454 -246 l 456 -272 q 457 -269 457 -271 q 456 -268 456 -268 l 463 -262 l 464 -264 l 456 -275 l 456 -282 l 463 -279 l 467 -267 l 471 -268 l 469 -275 l 488 -264 l 489 -268 l 468 -281 q 471 -281 468 -281 l 472 -279 l 479 -282 l 479 -285 l 467 -283 l 460 -289 l 467 -293 l 479 -290 l 481 -293 l 472 -296 m 625 1019 l 622 1019 l 642 1008 l 640 1007 l 619 1018 l 619 1015 l 621 1015 l 622 1014 l 625 1007 l 621 1007 l 617 1018 l 608 1022 l 608 1013 l 617 1004 l 615 1001 l 608 1007 l 607 986 l 604 986 l 604 1011 q 603 1007 603 1010 l 597 1001 l 596 1004 l 603 1013 l 603 1021 l 596 1018 l 592 1006 l 589 1007 l 589 1014 l 572 1004 l 571 1007 l 590 1019 l 588 1019 q 586 1018 588 1018 l 579 1019 l 579 1022 l 593 1022 l 600 1026 l 593 1031 l 579 1029 l 579 1032 l 586 1035 q 589 1033 588 1035 l 592 1033 l 569 1047 l 571 1049 l 593 1036 q 592 1039 593 1039 l 590 1040 l 589 1040 l 588 1047 l 590 1047 l 596 1036 l 603 1032 l 603 1040 l 596 1051 l 597 1053 l 603 1047 l 603 1046 q 604 1043 603 1043 l 604 1069 l 607 1069 l 608 1043 q 610 1046 610 1044 q 608 1047 608 1047 l 615 1053 l 617 1051 l 608 1040 l 608 1033 l 615 1036 l 619 1049 l 624 1047 l 622 1040 l 640 1051 l 642 1047 l 621 1035 q 624 1035 621 1035 l 625 1036 l 632 1033 l 632 1031 l 619 1032 l 613 1026 l 619 1022 l 632 1025 l 633 1022 l 625 1019 m 76 315 l 94 300 l 92 324 l 76 331 l 76 315 m 51 376 l 56 353 l 68 347 l 69 363 l 51 376 m 53 301 l 69 315 l 68 331 l 56 324 l 53 301 m 76 347 l 90 354 l 93 375 l 76 363 l 76 347 m 439 -301 q 440 -299 440 -300 l 436 -301 l 439 -301 m 592 1014 q 593 1017 593 1015 l 589 1014 l 592 1014 m 96 351 q 101 351 99 349 l 101 353 l 100 351 l 96 351 m 619 1040 q 618 1038 619 1039 l 622 1040 l 619 1040 m 467 -275 l 469 -275 l 467 -275 z "},"P":{"ha":990,"x_min":11,"x_max":1057,"o":"m 472 654 q 515 629 504 649 q 524 587 526 610 q 506 542 521 564 q 472 510 492 519 q 407 492 442 493 q 341 501 372 490 q 285 536 310 513 q 249 592 260 560 q 238 703 228 651 q 282 798 249 756 q 365 873 315 840 q 472 927 415 906 q 588 958 529 949 q 699 965 647 968 q 805 945 753 963 q 901 897 857 928 q 978 824 944 867 q 1029 726 1011 781 q 1053 575 1057 646 q 1022 445 1050 504 q 947 339 994 386 q 840 258 900 292 q 710 206 779 225 q 571 182 642 186 q 508 56 543 115 q 424 -51 472 -4 q 343 -106 390 -82 q 245 -139 296 -131 q 146 -136 194 -147 q 63 -85 97 -125 q 22 -4 32 -50 q 17 88 11 42 q 40 180 22 135 q 85 260 58 225 q 136 312 106 289 q 202 349 167 335 q 274 367 238 364 q 344 357 311 369 q 393 325 372 347 q 418 272 414 303 q 415 240 421 249 q 398 233 410 232 q 372 240 386 235 q 342 250 357 246 q 253 251 296 260 q 176 218 211 242 q 117 159 142 194 q 81 82 92 124 q 73 8 71 47 q 101 -54 75 -31 q 176 -85 135 -85 q 266 -49 218 -86 q 367 68 314 -11 q 476 275 419 147 q 546 446 514 361 q 622 614 578 531 q 698 735 658 681 q 799 822 738 789 q 712 861 761 847 q 610 878 663 875 q 505 871 557 881 q 410 838 453 861 q 338 776 367 814 q 304 683 310 738 q 312 638 301 657 q 340 607 322 618 q 381 594 358 596 q 426 603 404 593 q 454 624 443 610 q 472 654 465 638 m 649 403 q 619 315 633 360 q 589 226 606 271 q 685 240 638 228 q 774 276 732 253 q 849 335 815 300 q 903 419 882 371 q 930 518 924 467 q 928 618 936 569 q 896 712 919 667 q 835 794 872 757 q 787 756 808 783 q 747 692 765 729 q 714 613 729 656 q 686 531 699 571 q 665 456 674 490 q 649 403 656 422 m 744 -133 q 749 -141 747 -136 q 749 -150 751 -146 q 732 -154 743 -160 q 728 -149 729 -153 q 726 -142 726 -144 l 700 -126 q 697 -128 697 -128 q 701 -131 700 -131 l 721 -154 l 714 -156 l 694 -131 q 675 -142 688 -139 l 688 -171 l 683 -175 l 671 -147 q 672 -143 672 -146 l 672 -142 l 669 -142 l 669 -175 q 678 -186 678 -175 q 667 -199 678 -199 q 656 -186 656 -199 q 664 -175 656 -178 l 663 -142 l 660 -142 l 660 -143 q 661 -147 660 -146 l 649 -175 l 644 -171 l 657 -142 q 639 -132 650 -140 l 621 -157 l 614 -157 l 633 -131 l 636 -131 q 633 -128 636 -128 l 607 -143 q 603 -157 611 -151 q 586 -154 593 -164 q 590 -136 579 -144 q 604 -139 594 -133 l 631 -122 l 629 -119 q 626 -122 626 -119 l 596 -126 l 597 -121 l 628 -117 q 625 -103 625 -106 q 626 -97 625 -100 q 626 -92 626 -94 l 597 -89 l 596 -83 l 626 -86 q 628 -89 626 -89 q 629 -86 629 -86 l 600 -68 q 586 -69 593 -75 q 582 -54 575 -64 q 597 -50 588 -43 q 603 -64 606 -54 l 633 -79 l 633 -76 l 613 -53 l 618 -50 l 636 -75 q 656 -62 644 -67 l 644 -36 l 649 -32 l 661 -61 q 660 -62 660 -61 q 663 -61 661 -61 l 664 -28 q 656 -17 656 -26 q 667 -4 656 -4 q 678 -17 678 -4 q 669 -28 678 -26 l 669 -61 q 672 -62 671 -61 q 674 -62 672 -62 q 672 -61 672 -61 l 683 -32 l 688 -36 l 678 -62 q 687 -67 682 -65 q 694 -72 692 -69 l 711 -49 l 717 -50 l 700 -75 l 697 -75 q 700 -79 697 -78 l 728 -61 q 732 -46 725 -53 q 749 -50 743 -40 q 746 -67 757 -61 q 731 -65 736 -71 l 703 -85 q 704 -86 703 -86 l 706 -85 l 736 -81 l 735 -86 l 704 -92 q 706 -103 706 -94 q 706 -108 706 -106 q 704 -114 706 -111 l 735 -117 l 738 -124 l 706 -119 q 704 -117 706 -118 q 703 -119 703 -119 l 729 -136 q 744 -133 735 -128 m 175 563 q 181 544 185 544 q 168 556 178 542 l 153 543 l 171 533 l 168 529 l 144 539 l 132 529 l 144 519 l 169 529 l 171 526 l 154 515 q 151 517 151 517 l 149 517 l 167 506 q 178 519 176 519 q 174 500 182 515 q 166 489 169 493 q 160 486 163 485 q 160 492 160 488 q 165 503 161 496 l 147 514 q 149 510 147 510 l 150 510 l 150 489 l 144 486 l 126 496 l 126 497 q 125 500 126 500 l 125 479 q 137 478 132 479 q 142 475 142 478 q 124 471 142 471 q 106 475 106 471 q 121 479 106 479 l 121 500 q 118 497 118 500 q 119 496 118 496 l 101 486 l 100 488 l 97 488 l 97 508 l 99 508 q 100 513 100 510 l 82 500 q 88 485 92 488 q 74 499 83 483 q 67 517 64 511 q 79 504 72 517 l 97 517 q 94 515 96 517 q 92 514 93 515 l 75 524 l 76 528 l 101 519 l 114 529 l 101 538 l 76 528 l 76 532 l 92 542 q 94 540 93 540 q 100 540 94 540 q 96 542 97 540 l 76 553 q 70 544 74 547 q 64 542 67 540 q 65 547 63 542 q 71 560 67 553 q 77 571 74 567 q 83 574 81 575 q 78 557 86 571 l 97 546 q 101 542 101 543 q 99 547 101 547 q 96 549 97 549 l 97 568 l 100 569 l 101 571 l 119 563 l 118 560 q 121 556 118 556 l 121 581 q 106 586 106 583 q 124 590 106 590 q 142 586 142 590 q 137 583 142 583 q 125 581 132 582 l 125 558 q 124 556 124 556 q 128 560 128 556 l 126 560 l 126 563 l 144 571 l 146 569 l 147 569 l 149 550 l 146 550 q 144 544 143 546 l 147 547 l 167 558 q 161 575 158 572 q 175 563 163 576 m 111 -300 l 108 -300 l 128 -311 l 126 -312 l 106 -301 l 106 -304 l 107 -304 l 108 -306 l 111 -312 l 107 -312 l 103 -301 l 94 -297 l 94 -307 l 103 -315 l 101 -318 l 94 -312 l 93 -333 l 90 -333 l 90 -308 q 89 -312 89 -310 l 83 -318 l 82 -315 l 89 -307 l 89 -299 l 82 -301 l 78 -314 l 75 -312 l 75 -306 l 58 -315 l 57 -312 l 76 -300 l 74 -300 q 72 -301 74 -301 l 65 -300 l 65 -297 l 79 -297 l 86 -293 l 79 -289 l 65 -290 l 65 -287 l 72 -285 q 75 -286 74 -285 l 78 -286 l 56 -272 l 57 -271 l 79 -283 q 78 -281 79 -281 l 76 -279 l 75 -279 l 74 -272 l 76 -272 l 82 -283 l 89 -287 l 89 -279 l 82 -268 l 83 -267 l 89 -272 l 89 -274 q 90 -276 89 -276 l 90 -250 l 93 -250 l 94 -276 q 96 -274 96 -275 q 94 -272 94 -272 l 101 -267 l 103 -268 l 94 -279 l 94 -286 l 101 -283 l 106 -271 l 110 -272 l 108 -279 l 126 -268 l 128 -272 l 107 -285 q 110 -285 107 -285 l 111 -283 l 118 -286 l 118 -289 l 106 -287 l 99 -293 l 106 -297 l 118 -294 l 119 -297 l 111 -300 m 703 -103 q 701 -92 703 -94 l 692 -93 l 678 -103 l 693 -114 l 701 -114 q 703 -108 703 -111 q 703 -103 703 -106 m 629 -103 q 631 -117 629 -111 l 639 -114 l 653 -104 l 639 -93 l 631 -93 q 629 -103 629 -96 m 657 -65 q 639 -78 650 -67 l 644 -85 l 660 -92 l 661 -75 l 657 -65 m 675 -139 q 684 -134 679 -136 q 693 -128 689 -132 l 689 -122 l 672 -114 l 671 -132 l 675 -139 m 692 -76 q 685 -70 689 -74 q 675 -67 681 -67 l 671 -75 l 672 -92 l 688 -83 l 692 -76 m 126 506 l 144 490 l 142 514 l 126 521 l 126 506 m 640 -129 q 649 -134 643 -132 q 658 -139 654 -136 l 661 -132 l 660 -115 l 644 -122 l 640 -129 m 101 567 l 106 543 l 118 538 l 119 553 l 101 567 m 103 492 l 119 506 l 118 521 l 106 514 l 103 492 m 126 538 l 140 544 l 143 565 l 126 553 l 126 538 m 674 -65 l 669 -65 l 669 -71 q 674 -65 674 -67 m 636 -90 l 633 -87 q 631 -90 631 -89 q 636 -90 633 -92 m 692 -83 l 696 -81 l 693 -78 q 692 -83 692 -79 m 663 -71 l 663 -65 l 660 -65 q 663 -71 660 -68 m 639 -79 q 636 -81 636 -81 l 640 -83 q 639 -81 639 -82 l 639 -79 m 700 -89 l 700 -86 l 696 -89 l 700 -89 m 78 -306 q 79 -303 79 -304 l 75 -306 l 78 -306 m 146 542 q 151 542 149 539 l 151 543 l 150 542 l 146 542 m 694 -125 q 696 -124 696 -124 l 694 -124 l 694 -125 m 106 -279 l 108 -279 l 106 -279 m 699 -117 l 700 -118 l 700 -117 l 699 -117 m 639 -125 l 638 -125 l 639 -126 l 639 -125 z "},"O":{"ha":1010,"x_min":-11,"x_max":1069,"o":"m 242 644 q 283 624 271 639 q 296 589 296 608 q 287 550 296 569 q 264 518 278 531 q 205 491 240 499 q 133 494 169 483 q 49 551 76 513 q 15 638 21 589 q 25 738 10 686 q 69 835 40 790 q 140 910 99 879 q 229 949 182 942 q 333 947 286 957 q 418 916 379 938 q 490 864 457 894 q 554 800 522 833 q 616 862 583 831 q 683 920 649 893 q 755 967 718 947 q 828 999 792 988 q 934 1001 889 1017 q 1008 950 979 986 q 1052 864 1038 914 q 1068 765 1067 814 q 1045 590 1069 683 q 977 405 1021 497 q 874 224 933 313 q 747 63 814 136 q 609 -62 681 -10 q 470 -137 538 -115 q 342 -147 403 -160 q 238 -75 282 -133 q 188 40 197 -24 q 192 174 179 104 q 233 313 204 243 q 299 449 263 383 q 374 571 335 514 q 444 668 413 628 l 489 725 q 429 780 460 754 q 367 826 399 806 q 304 858 336 846 q 238 871 272 871 q 132 832 178 874 q 97 790 113 814 q 74 738 82 765 q 67 684 65 711 q 83 635 68 657 q 140 593 103 603 q 210 601 178 583 q 230 620 219 607 q 242 644 240 633 m 444 513 q 407 439 429 483 q 363 341 385 394 q 323 231 342 288 q 298 120 304 174 q 300 22 292 67 q 339 -53 308 -24 q 436 -86 381 -90 q 532 -57 486 -82 q 619 6 578 -32 q 696 92 660 44 q 762 190 732 140 q 816 289 792 240 q 858 376 840 338 q 897 465 875 414 q 933 571 918 515 l 921 563 q 813 524 864 526 q 716 542 763 522 q 625 599 669 563 q 538 678 581 636 q 485 589 508 632 q 444 513 461 546 m 913 886 q 828 925 875 928 q 736 896 782 922 q 651 829 690 869 q 593 758 613 789 q 692 663 640 707 q 814 603 744 619 q 913 617 876 588 q 959 693 949 646 q 958 794 969 740 q 913 886 946 849 m 101 307 q 107 289 111 289 q 94 300 104 286 l 79 288 l 97 278 l 94 274 l 71 283 l 58 274 l 71 264 l 96 274 l 97 271 l 81 260 q 78 261 78 261 l 75 261 l 93 250 q 104 264 103 264 q 100 244 108 260 q 92 233 96 238 q 86 231 89 229 q 87 236 86 232 q 92 247 88 240 l 74 258 q 75 254 74 254 l 76 254 l 76 233 l 71 231 l 53 240 l 53 242 q 51 244 53 244 l 51 224 q 63 223 58 224 q 68 219 68 222 q 50 215 68 215 q 32 219 32 215 q 47 224 32 224 l 47 244 q 44 242 44 244 q 46 240 44 240 l 28 231 l 26 232 l 24 232 l 24 253 l 25 253 q 26 257 26 254 l 8 244 q 14 229 18 232 q 0 243 10 228 q -7 261 -10 256 q 6 249 -1 261 l 24 261 q 21 260 22 261 q 18 258 19 260 l 1 268 l 3 272 l 28 264 l 40 274 l 28 282 l 3 272 l 3 276 l 18 286 q 21 285 19 285 q 26 285 21 285 q 22 286 24 285 l 3 297 q -3 288 0 292 q -10 286 -7 285 q -9 292 -11 286 q -3 304 -7 297 q 3 315 0 311 q 10 318 7 319 q 4 301 13 315 l 24 290 q 28 286 28 288 q 25 292 28 292 q 22 293 24 293 l 24 313 l 26 314 l 28 315 l 46 307 l 44 304 q 47 300 44 300 l 47 325 q 32 331 32 328 q 50 335 32 335 q 68 331 68 335 q 63 327 68 328 q 51 325 58 326 l 51 303 q 50 300 50 300 q 54 304 54 300 l 53 304 l 53 307 l 71 315 l 72 314 l 74 314 l 75 294 l 72 294 q 71 289 69 290 l 74 292 l 93 303 q 88 319 85 317 q 101 307 89 321 m 664 -261 l 661 -261 l 681 -272 l 679 -274 l 658 -262 l 658 -265 l 660 -265 l 661 -267 l 664 -274 l 660 -274 l 656 -262 l 647 -258 l 647 -268 l 656 -276 l 654 -279 l 647 -274 l 646 -294 l 643 -294 l 643 -269 q 642 -274 642 -271 l 636 -279 l 635 -276 l 642 -268 l 642 -260 l 635 -262 l 631 -275 l 628 -274 l 628 -267 l 611 -276 l 610 -274 l 629 -261 l 626 -261 q 625 -262 626 -262 l 618 -261 l 618 -258 l 632 -258 l 639 -254 l 632 -250 l 618 -251 l 618 -249 l 625 -246 q 628 -247 626 -246 l 631 -247 l 608 -233 l 610 -232 l 632 -244 q 631 -242 632 -242 l 629 -240 l 628 -240 l 626 -233 l 629 -233 l 635 -244 l 642 -249 l 642 -240 l 635 -229 l 636 -228 l 642 -233 l 642 -235 q 643 -237 642 -237 l 643 -211 l 646 -211 l 647 -237 q 649 -235 649 -236 q 647 -233 647 -233 l 654 -228 l 656 -229 l 647 -240 l 647 -247 l 654 -244 l 658 -232 l 663 -233 l 661 -240 l 679 -229 l 681 -233 l 660 -246 q 663 -246 660 -246 l 664 -244 l 671 -247 l 671 -250 l 658 -249 l 651 -254 l 658 -258 l 671 -256 l 672 -258 l 664 -261 m 586 1033 l 583 1033 l 603 1022 l 601 1021 l 581 1032 l 581 1029 l 582 1029 l 583 1028 l 586 1021 l 582 1021 l 578 1032 l 569 1036 l 569 1026 l 578 1018 l 576 1015 l 569 1021 l 568 1000 l 565 1000 l 565 1025 q 564 1021 564 1024 l 558 1015 l 557 1018 l 564 1026 l 564 1035 l 557 1032 l 553 1019 l 550 1021 l 550 1028 l 533 1018 l 532 1021 l 551 1033 l 549 1033 q 547 1032 549 1032 l 540 1033 l 540 1036 l 554 1036 l 561 1040 l 554 1044 l 540 1043 l 540 1046 l 547 1049 q 550 1047 549 1049 l 553 1047 l 531 1061 l 532 1063 l 554 1050 q 553 1053 554 1053 l 551 1054 l 550 1054 l 549 1061 l 551 1061 l 557 1050 l 564 1046 l 564 1054 l 557 1065 l 558 1067 l 564 1061 l 564 1060 q 565 1057 564 1057 l 565 1083 l 568 1083 l 569 1057 q 571 1060 571 1058 q 569 1061 569 1061 l 576 1067 l 578 1065 l 569 1054 l 569 1047 l 576 1050 l 581 1063 l 585 1061 l 583 1054 l 601 1065 l 603 1061 l 582 1049 q 585 1049 582 1049 l 586 1050 l 593 1047 l 593 1044 l 581 1046 l 574 1040 l 581 1036 l 593 1039 l 594 1036 l 586 1033 m 53 250 l 71 235 l 68 258 l 53 265 l 53 250 m 28 311 l 32 288 l 44 282 l 46 297 l 28 311 m 29 236 l 46 250 l 44 265 l 32 258 l 29 236 m 53 282 l 67 289 l 69 310 l 53 297 l 53 282 m 553 1028 q 554 1031 554 1029 l 550 1028 l 553 1028 m 631 -267 q 632 -264 632 -265 l 628 -267 l 631 -267 m 72 286 q 78 286 75 283 l 78 288 l 76 286 l 72 286 m 581 1054 q 579 1051 581 1053 l 583 1054 l 581 1054 m 658 -240 l 661 -240 l 658 -240 z "},"N":{"ha":1161,"x_min":15,"x_max":1601,"o":"m 1601 914 q 1476 850 1535 893 q 1365 753 1417 807 q 1269 641 1314 700 q 1188 526 1225 582 q 1131 443 1164 493 q 1066 335 1099 393 q 1004 215 1033 278 q 960 95 975 153 q 948 -12 944 38 q 982 -94 951 -61 q 977 -117 982 -106 q 969 -140 972 -129 q 899 -87 926 -122 q 853 -6 871 -51 q 826 90 835 39 q 815 192 818 142 q 815 290 813 243 q 819 372 817 338 q 858 605 831 488 q 938 828 885 722 q 890 749 913 792 q 848 663 867 706 q 815 581 829 619 q 789 518 800 543 q 731 378 758 450 q 673 238 704 307 q 605 102 642 168 q 518 -21 568 36 q 397 -112 464 -82 q 263 -146 329 -143 q 140 -125 197 -149 q 49 -54 82 -101 q 16 63 17 -7 q 61 221 15 132 q 108 285 79 256 q 174 335 138 315 q 249 363 210 356 q 329 361 289 371 q 385 330 361 354 q 415 272 410 306 q 404 232 421 232 q 354 249 388 232 q 290 261 326 263 q 222 246 253 260 q 165 209 190 232 q 119 158 139 186 q 88 99 100 131 q 75 36 76 67 q 89 -36 72 -3 q 143 -83 106 -69 q 242 -92 194 -101 q 335 -56 290 -83 q 419 13 379 -28 q 492 100 458 54 q 554 190 526 146 q 603 269 582 235 q 684 419 646 344 q 760 570 722 494 q 837 720 797 646 q 924 868 876 794 l 776 789 q 735 835 758 817 q 682 865 713 853 q 606 881 644 882 q 531 867 567 881 q 467 828 496 853 q 422 771 439 803 q 402 715 410 747 q 397 652 394 683 q 413 595 399 621 q 456 557 426 569 q 513 554 485 546 q 558 585 540 563 q 574 620 569 600 q 576 660 579 640 q 632 656 610 671 q 657 604 654 640 q 649 558 658 579 q 624 519 640 536 q 585 490 607 501 q 543 472 564 478 q 485 471 515 465 q 428 493 454 476 q 380 541 397 511 q 355 605 363 571 q 349 675 347 639 q 357 743 350 711 q 406 847 371 801 q 489 919 440 892 q 594 958 538 947 q 708 956 651 968 q 792 926 751 947 q 865 876 833 904 l 1025 960 l 1056 928 q 989 729 1013 829 q 952 528 965 629 q 933 322 939 426 q 921 111 926 218 q 1011 365 957 242 q 1131 601 1065 489 q 1172 672 1147 631 q 1229 758 1197 714 q 1299 846 1261 803 q 1376 921 1336 889 q 1460 968 1417 953 q 1546 974 1503 983 q 1587 949 1574 967 q 1601 914 1600 931 m 815 -269 q 820 -277 818 -272 q 819 -286 822 -282 q 803 -290 814 -296 q 799 -285 800 -289 q 797 -278 797 -281 l 771 -262 q 768 -264 768 -264 q 772 -267 771 -267 l 792 -290 l 785 -292 l 765 -267 q 746 -278 758 -275 l 758 -307 l 754 -311 l 742 -283 q 743 -279 743 -282 l 743 -278 l 740 -278 l 740 -311 q 749 -322 749 -311 q 738 -335 749 -335 q 726 -322 726 -335 q 735 -311 726 -314 l 733 -278 l 731 -278 l 731 -279 q 732 -283 731 -282 l 719 -311 l 715 -307 l 728 -278 q 710 -268 721 -276 l 692 -293 l 685 -293 l 704 -267 l 707 -267 q 704 -264 707 -264 l 678 -279 q 674 -293 682 -287 q 657 -290 664 -300 q 661 -272 650 -281 q 675 -275 665 -269 l 701 -258 l 700 -256 q 697 -258 697 -256 l 667 -262 l 668 -257 l 699 -253 q 696 -239 696 -242 q 697 -233 696 -236 q 697 -228 697 -231 l 668 -225 l 667 -219 l 697 -222 q 699 -225 697 -225 q 700 -222 700 -222 l 671 -204 q 657 -206 664 -211 q 653 -190 646 -200 q 668 -186 658 -179 q 674 -200 676 -190 l 704 -215 l 704 -212 l 683 -189 l 689 -186 l 707 -211 q 726 -199 715 -203 l 715 -172 l 719 -168 l 732 -197 q 731 -199 731 -197 q 733 -197 732 -197 l 735 -164 q 726 -153 726 -162 q 738 -140 726 -140 q 749 -153 749 -140 q 740 -164 749 -162 l 740 -197 q 742 -198 742 -197 q 744 -199 743 -199 q 743 -197 743 -197 l 754 -168 l 758 -172 l 749 -199 q 758 -203 753 -201 q 765 -208 763 -206 l 782 -185 l 788 -186 l 771 -211 l 768 -211 q 771 -215 768 -214 l 799 -197 q 803 -182 796 -189 q 819 -186 814 -176 q 817 -203 828 -197 q 801 -201 807 -207 l 774 -221 q 775 -222 774 -222 l 776 -221 l 807 -217 l 806 -222 l 775 -228 q 776 -239 776 -231 q 776 -244 776 -242 q 775 -250 776 -247 l 806 -253 l 808 -260 l 776 -256 q 775 -253 776 -254 q 774 -256 774 -256 l 800 -272 q 815 -269 806 -264 m 278 567 q 283 549 288 549 q 271 560 281 546 l 256 547 l 274 538 l 271 533 l 247 543 l 235 533 l 247 524 l 272 533 l 274 531 l 257 519 q 254 521 254 521 l 251 521 l 269 510 q 281 524 279 524 q 276 504 285 519 q 269 493 272 497 q 263 490 265 489 q 263 496 263 492 q 268 507 264 500 l 250 518 q 251 514 250 514 l 253 514 l 253 493 l 247 490 l 229 500 l 229 501 q 228 504 229 504 l 228 483 q 240 483 235 483 q 244 479 244 482 q 226 475 244 475 q 208 479 208 475 q 224 483 208 483 l 224 504 q 221 501 221 504 q 222 500 221 500 l 204 490 l 203 492 l 200 492 l 200 513 l 201 513 q 203 517 203 514 l 185 504 q 190 489 194 492 q 176 503 186 488 q 169 521 167 515 q 182 508 175 521 l 200 521 q 197 519 199 521 q 194 518 196 519 l 178 528 l 179 532 l 204 524 l 217 533 l 204 542 l 179 532 l 179 536 l 194 546 q 197 544 196 544 q 203 544 197 544 q 199 546 200 544 l 179 557 q 173 548 176 551 q 167 546 169 544 q 167 551 165 546 q 174 564 169 557 q 180 575 176 571 q 186 578 183 579 q 181 561 189 575 l 200 550 l 204 547 q 201 551 204 551 q 199 553 200 553 l 200 572 l 203 574 l 204 575 l 222 567 l 221 564 q 224 560 221 560 l 224 585 q 208 590 208 588 q 226 594 208 594 q 244 590 244 594 q 240 587 244 588 q 228 585 235 586 l 228 563 q 226 560 226 560 q 231 564 231 560 l 229 564 l 229 567 l 247 575 l 249 574 l 250 574 l 251 554 l 249 554 q 247 549 246 550 l 250 551 l 269 563 q 264 579 261 576 q 278 567 265 581 m 1217 974 l 1214 974 l 1233 963 l 1232 961 l 1211 972 l 1211 969 l 1213 969 l 1214 968 l 1217 961 l 1213 961 l 1208 972 l 1200 976 l 1200 967 l 1208 958 l 1207 956 l 1200 961 l 1199 940 l 1196 940 l 1196 965 q 1194 961 1194 964 l 1189 956 l 1188 958 l 1194 967 l 1194 975 l 1188 972 l 1183 960 l 1181 961 l 1181 968 l 1164 958 l 1163 961 l 1182 974 l 1179 974 q 1178 972 1179 972 l 1171 974 l 1171 976 l 1185 976 l 1192 981 l 1185 985 l 1171 983 l 1171 986 l 1178 989 q 1181 988 1179 989 l 1183 988 l 1161 1001 l 1163 1003 l 1185 990 q 1183 993 1185 993 l 1182 994 l 1181 994 l 1179 1001 l 1182 1001 l 1188 990 l 1194 986 l 1194 994 l 1188 1006 l 1189 1007 l 1194 1001 l 1194 1000 q 1196 997 1194 997 l 1196 1024 l 1199 1024 l 1200 997 q 1201 1000 1201 999 q 1200 1001 1200 1001 l 1207 1007 l 1208 1006 l 1200 994 l 1200 988 l 1207 990 l 1211 1003 l 1215 1001 l 1214 994 l 1232 1006 l 1233 1001 l 1213 989 q 1215 989 1213 989 l 1217 990 l 1224 988 l 1224 985 l 1211 986 l 1204 981 l 1211 976 l 1224 979 l 1225 976 l 1217 974 m 774 -239 q 772 -228 774 -231 l 763 -229 l 749 -239 l 764 -250 l 772 -250 q 774 -244 774 -247 q 774 -239 774 -242 m 700 -239 q 701 -253 700 -247 l 710 -250 l 724 -240 l 710 -229 l 701 -229 q 700 -239 700 -232 m 728 -201 q 710 -214 721 -203 l 715 -221 l 731 -228 l 732 -211 l 728 -201 m 746 -275 q 755 -270 750 -272 q 764 -264 760 -268 l 760 -258 l 743 -250 l 742 -268 l 746 -275 m 763 -212 q 756 -206 760 -210 q 746 -203 751 -203 l 742 -211 l 743 -228 l 758 -219 l 763 -212 m 229 510 l 247 494 l 244 518 l 229 525 l 229 510 m 711 -265 q 719 -270 714 -268 q 729 -275 725 -272 l 732 -268 l 731 -251 l 715 -258 l 711 -265 m 204 571 l 208 547 l 221 542 l 222 557 l 204 571 m 206 496 l 222 510 l 221 525 l 208 518 l 206 496 m 229 542 l 243 549 l 246 569 l 229 557 l 229 542 m 744 -201 l 740 -201 l 740 -207 q 744 -201 744 -203 m 707 -226 l 704 -224 q 701 -226 701 -225 q 707 -226 704 -228 m 763 -219 l 767 -217 l 764 -214 q 763 -219 763 -215 m 733 -207 l 733 -201 l 731 -201 q 733 -207 731 -204 m 710 -215 q 707 -217 707 -217 l 711 -219 q 710 -217 710 -218 l 710 -215 m 771 -225 l 771 -222 l 767 -225 l 771 -225 m 1183 968 q 1185 971 1185 969 l 1181 968 l 1183 968 m 249 546 q 254 546 251 543 l 254 547 l 253 546 l 249 546 m 1211 994 q 1210 992 1211 993 l 1214 994 l 1211 994 m 765 -261 q 767 -260 767 -260 l 765 -260 l 765 -261 m 710 -261 l 708 -261 l 710 -262 l 710 -261 m 769 -253 l 771 -254 l 771 -253 l 769 -253 z "},"J":{"ha":807,"x_min":14,"x_max":1053,"o":"m 729 765 q 636 863 694 832 q 494 874 578 894 q 433 842 461 865 q 385 788 404 819 q 356 719 365 756 q 351 649 347 683 q 375 585 356 614 q 432 538 394 556 q 490 528 463 524 q 537 549 517 533 q 568 589 557 565 q 579 636 579 613 q 641 619 622 639 q 657 563 660 599 q 613 481 653 514 q 521 443 574 447 q 460 448 490 440 q 403 474 429 456 q 334 555 358 504 q 306 662 310 606 q 317 773 301 718 q 365 867 332 828 q 472 942 411 919 q 597 962 533 965 q 717 932 660 958 q 813 858 775 906 l 1033 960 l 1053 917 q 992 872 1022 907 q 936 793 963 836 q 890 709 910 750 q 863 650 871 668 q 769 442 813 547 q 676 232 726 336 q 617 126 653 183 q 535 15 581 68 q 437 -81 490 -39 q 326 -142 383 -124 q 208 -147 268 -160 q 88 -76 147 -133 q 31 11 49 -39 q 15 115 14 61 q 32 222 15 169 q 76 315 49 274 q 142 385 104 356 q 221 429 181 414 q 299 446 261 444 q 367 439 338 447 q 423 407 399 429 q 456 353 447 385 q 451 314 465 319 q 407 324 438 308 q 343 340 382 336 q 251 329 304 343 q 196 303 224 322 q 144 257 168 285 q 99 185 117 225 q 78 104 82 146 q 84 24 74 63 q 124 -43 94 -14 q 200 -81 153 -74 q 289 -74 247 -89 q 379 -19 338 -57 q 456 69 421 18 q 522 178 492 119 q 578 294 553 236 q 627 407 604 353 q 671 503 650 461 q 772 685 718 596 q 889 842 826 774 l 729 765 m 174 736 q 179 718 183 718 q 167 729 176 715 l 151 717 l 169 707 l 167 703 l 143 713 l 131 703 l 143 693 l 168 703 l 169 700 l 153 689 q 150 690 150 690 l 147 690 l 165 679 q 176 693 175 693 q 172 674 181 689 q 165 663 168 667 q 158 660 161 658 q 159 665 158 661 q 164 676 160 669 l 146 688 q 147 683 146 683 l 149 683 l 149 663 l 143 660 l 125 669 l 125 671 q 124 674 125 674 l 124 653 q 135 652 131 653 q 140 649 140 651 q 122 644 140 644 q 104 649 104 644 q 119 653 104 653 l 119 674 q 117 671 117 674 q 118 669 117 669 l 100 660 l 99 661 l 96 661 l 96 682 l 97 682 q 99 686 99 683 l 81 674 q 86 658 90 661 q 72 672 82 657 q 65 690 63 685 q 78 678 71 690 l 96 690 q 93 689 94 690 q 90 688 92 689 l 74 697 l 75 701 l 100 693 l 113 703 l 100 711 l 75 701 l 75 706 l 90 715 q 93 714 92 714 q 99 714 93 714 q 94 715 96 714 l 75 726 q 69 717 72 721 q 63 715 65 714 q 63 721 61 715 q 69 733 65 726 q 76 744 72 740 q 82 747 79 749 q 76 731 85 744 l 96 719 q 100 715 100 717 q 97 721 100 721 q 94 722 96 722 l 96 742 l 99 743 l 100 744 l 118 736 l 117 733 q 119 729 117 729 l 119 754 q 104 760 104 757 q 122 764 104 764 q 140 760 140 764 q 135 756 140 757 q 124 754 131 756 l 124 732 q 122 729 122 729 q 126 733 126 729 l 125 733 l 125 736 l 143 744 l 144 743 l 146 743 l 147 724 l 144 724 q 143 718 142 719 l 146 721 l 165 732 q 160 749 157 746 q 174 736 161 750 m 147 -275 l 144 -275 l 164 -286 l 163 -287 l 142 -276 l 142 -279 l 143 -279 l 144 -281 l 147 -287 l 143 -287 l 139 -276 l 131 -272 l 131 -282 l 139 -290 l 138 -293 l 131 -287 l 129 -308 l 126 -308 l 126 -283 q 125 -287 125 -285 l 119 -293 l 118 -290 l 125 -282 l 125 -274 l 118 -276 l 114 -289 l 111 -287 l 111 -281 l 94 -290 l 93 -287 l 113 -275 l 110 -275 q 108 -276 110 -276 l 101 -275 l 101 -272 l 115 -272 l 122 -268 l 115 -264 l 101 -265 l 101 -262 l 108 -260 q 111 -261 110 -260 l 114 -261 l 92 -247 l 93 -246 l 115 -258 q 114 -256 115 -256 l 113 -254 l 111 -254 l 110 -247 l 113 -247 l 118 -258 l 125 -262 l 125 -254 l 118 -243 l 119 -242 l 125 -247 l 125 -249 q 126 -251 125 -251 l 126 -225 l 129 -225 l 131 -251 q 132 -249 132 -250 q 131 -247 131 -247 l 138 -242 l 139 -243 l 131 -254 l 131 -261 l 138 -258 l 142 -246 l 146 -247 l 144 -254 l 163 -243 l 164 -247 l 143 -260 q 146 -260 143 -260 l 147 -258 l 154 -261 l 154 -264 l 142 -262 l 135 -268 l 142 -272 l 154 -269 l 156 -272 l 147 -275 m 619 -167 l 617 -167 l 636 -178 l 635 -179 l 614 -168 l 614 -171 l 615 -171 l 617 -172 l 619 -179 l 615 -179 l 611 -168 l 603 -164 l 603 -174 l 611 -182 l 610 -185 l 603 -179 l 601 -200 l 599 -200 l 599 -175 q 597 -179 597 -176 l 592 -185 l 590 -182 l 597 -174 l 597 -165 l 590 -168 l 586 -181 l 583 -179 l 583 -172 l 567 -182 l 565 -179 l 585 -167 l 582 -167 q 581 -168 582 -168 l 574 -167 l 574 -164 l 588 -164 l 594 -160 l 588 -156 l 574 -157 l 574 -154 l 581 -151 q 583 -153 582 -151 l 586 -153 l 564 -139 l 565 -137 l 588 -150 q 586 -147 588 -147 l 585 -146 l 583 -146 l 582 -139 l 585 -139 l 590 -150 l 597 -154 l 597 -146 l 590 -135 l 592 -133 l 597 -139 l 597 -140 q 599 -143 597 -143 l 599 -117 l 601 -117 l 603 -143 q 604 -140 604 -142 q 603 -139 603 -139 l 610 -133 l 611 -135 l 603 -146 l 603 -153 l 610 -150 l 614 -137 l 618 -139 l 617 -146 l 635 -135 l 636 -139 l 615 -151 q 618 -151 615 -151 l 619 -150 l 626 -153 l 626 -156 l 614 -154 l 607 -160 l 614 -164 l 626 -161 l 628 -164 l 619 -167 m 125 679 l 143 664 l 140 688 l 125 694 l 125 679 m 100 740 l 104 717 l 117 711 l 118 726 l 100 740 m 101 665 l 118 679 l 117 694 l 104 688 l 101 665 m 125 711 l 139 718 l 142 739 l 125 726 l 125 711 m 586 -172 q 588 -169 588 -171 l 583 -172 l 586 -172 m 114 -281 q 115 -278 115 -279 l 111 -281 l 114 -281 m 144 715 q 150 715 147 713 l 150 717 l 149 715 l 144 715 m 142 -254 l 144 -254 l 142 -254 m 614 -146 l 617 -146 l 614 -146 z "},"K":{"ha":1085,"x_min":11,"x_max":1536,"o":"m 751 782 q 653 865 715 839 q 590 880 625 876 q 518 872 556 883 q 447 835 481 861 q 394 771 414 810 q 369 692 376 739 q 379 607 363 644 q 424 558 393 574 q 488 554 456 543 q 537 595 521 567 q 549 660 553 624 q 603 656 581 671 q 628 604 625 640 q 621 558 631 579 q 594 519 611 536 q 556 490 578 501 q 514 472 535 478 q 456 471 486 465 q 399 493 425 476 q 351 541 368 511 q 326 605 333 571 q 319 675 318 639 q 328 743 321 711 q 376 847 342 801 q 460 920 411 892 q 565 958 508 949 q 681 956 622 968 q 760 928 722 947 q 829 881 797 908 l 996 960 l 1019 918 q 961 875 986 907 q 916 803 936 843 q 880 723 896 764 q 851 656 864 682 q 801 548 825 601 q 753 440 778 494 q 778 437 764 440 q 801 426 792 433 q 873 490 839 453 q 938 565 907 526 q 996 641 968 603 q 1049 708 1024 679 q 1168 845 1115 788 q 1274 933 1221 903 q 1408 963 1342 974 q 1514 900 1474 953 q 1532 860 1536 871 q 1506 844 1528 849 q 1447 836 1483 840 q 1368 818 1410 832 q 1242 746 1299 794 q 1133 647 1185 697 q 996 513 1065 583 q 844 392 926 443 q 892 314 872 360 q 926 219 911 268 q 955 126 942 171 q 983 49 968 81 q 1025 -26 1001 8 q 1078 -85 1049 -61 q 1146 -122 1108 -110 q 1232 -129 1183 -133 q 1224 -201 1250 -174 q 1150 -239 1199 -229 q 1090 -240 1118 -246 q 1035 -222 1061 -235 q 986 -189 1008 -208 q 946 -147 964 -169 q 881 -26 901 -92 q 847 107 860 39 q 840 165 843 131 q 833 235 838 199 q 819 306 828 271 q 796 364 811 340 q 701 329 751 342 l 644 219 q 594 131 621 175 q 537 48 568 88 q 469 -26 506 8 q 389 -86 433 -60 q 305 -123 353 -107 q 208 -140 257 -139 q 115 -123 158 -142 q 43 -56 71 -104 q 15 41 18 -11 q 26 144 11 93 q 70 240 40 194 q 140 317 100 286 q 231 362 181 349 q 333 361 281 375 q 389 328 365 353 q 418 272 413 304 q 408 235 425 236 q 357 249 392 233 q 237 251 300 274 q 129 175 174 229 q 92 114 107 149 q 74 40 76 79 q 88 -34 71 1 q 143 -79 106 -69 q 248 -72 197 -93 q 344 -6 299 -50 q 431 99 390 39 q 507 219 472 158 q 569 334 542 279 q 615 424 597 389 q 664 521 639 468 q 717 628 689 574 q 777 737 746 683 q 846 836 808 790 l 751 782 m 206 594 q 211 576 215 576 q 199 588 208 574 l 183 575 l 201 565 l 199 561 l 175 571 l 163 561 l 175 551 l 200 561 l 201 558 l 185 547 q 182 549 182 549 l 179 549 l 197 538 q 208 551 207 551 q 204 532 213 547 q 197 521 200 525 q 190 518 193 517 q 191 524 190 519 q 196 535 192 528 l 178 546 q 179 542 178 542 l 181 542 l 181 521 l 175 518 l 157 528 l 157 529 q 156 532 157 532 l 156 511 q 167 510 163 511 q 172 507 172 510 q 154 503 172 503 q 136 507 136 503 q 151 511 136 511 l 151 532 q 149 529 149 532 q 150 528 149 528 l 132 518 l 131 519 l 128 519 l 128 540 l 129 540 q 131 544 131 542 l 113 532 q 118 517 122 519 q 104 531 114 515 q 97 549 94 543 q 110 536 103 549 l 128 549 q 125 547 126 549 q 122 546 124 547 l 106 556 l 107 560 l 132 551 l 144 561 l 132 569 l 107 560 l 107 564 l 122 574 q 125 572 124 572 q 131 572 125 572 q 126 574 128 572 l 107 585 q 101 576 104 579 q 94 574 97 572 q 95 579 93 574 q 101 592 97 585 q 108 603 104 599 q 114 606 111 607 q 108 589 117 603 l 128 578 l 132 575 q 129 579 132 579 q 126 581 128 581 l 128 600 l 131 601 l 132 603 l 150 594 l 149 592 q 151 588 149 588 l 151 613 q 136 618 136 615 q 154 622 136 622 q 172 618 172 622 q 167 615 172 615 q 156 613 163 614 l 156 590 q 154 588 154 588 q 158 592 158 588 l 157 592 l 157 594 l 175 603 l 176 601 l 178 601 l 179 582 l 176 582 q 175 576 174 578 l 178 579 l 197 590 q 192 607 189 604 q 206 594 193 608 m 142 -296 l 139 -296 l 158 -307 l 157 -308 l 136 -297 l 136 -300 l 138 -300 l 139 -301 l 142 -308 l 138 -308 l 133 -297 l 125 -293 l 125 -303 l 133 -311 l 132 -314 l 125 -308 l 124 -329 l 121 -329 l 121 -304 q 119 -308 119 -306 l 114 -314 l 113 -311 l 119 -303 l 119 -294 l 113 -297 l 108 -310 l 106 -308 l 106 -301 l 89 -311 l 88 -308 l 107 -296 l 104 -296 q 103 -297 104 -297 l 96 -296 l 96 -293 l 110 -293 l 117 -289 l 110 -285 l 96 -286 l 96 -283 l 103 -281 q 106 -282 104 -281 l 108 -282 l 86 -268 l 88 -267 l 110 -279 q 108 -276 110 -276 l 107 -275 l 106 -275 l 104 -268 l 107 -268 l 113 -279 l 119 -283 l 119 -275 l 113 -264 l 114 -262 l 119 -268 l 119 -269 q 121 -272 119 -272 l 121 -246 l 124 -246 l 125 -272 q 126 -269 126 -271 q 125 -268 125 -268 l 132 -262 l 133 -264 l 125 -275 l 125 -282 l 132 -279 l 136 -267 l 140 -268 l 139 -275 l 157 -264 l 158 -268 l 138 -281 q 140 -281 138 -281 l 142 -279 l 149 -282 l 149 -285 l 136 -283 l 129 -289 l 136 -293 l 149 -290 l 150 -293 l 142 -296 m 667 -106 l 664 -106 l 683 -117 l 682 -118 l 661 -107 l 661 -110 l 663 -110 l 664 -111 l 667 -118 l 663 -118 l 658 -107 l 650 -103 l 650 -112 l 658 -121 l 657 -124 l 650 -118 l 649 -139 l 646 -139 l 646 -114 q 644 -118 644 -115 l 639 -124 l 638 -121 l 644 -112 l 644 -104 l 638 -107 l 633 -119 l 631 -118 l 631 -111 l 614 -121 l 613 -118 l 632 -106 l 629 -106 q 628 -107 629 -107 l 621 -106 l 621 -103 l 635 -103 l 642 -99 l 635 -94 l 621 -96 l 621 -93 l 628 -90 q 631 -92 629 -90 l 633 -92 l 611 -78 l 613 -76 l 635 -89 q 633 -86 635 -86 l 632 -85 l 631 -85 l 629 -78 l 632 -78 l 638 -89 l 644 -93 l 644 -85 l 638 -74 l 639 -72 l 644 -78 l 644 -79 q 646 -82 644 -82 l 646 -56 l 649 -56 l 650 -82 q 651 -79 651 -81 q 650 -78 650 -78 l 657 -72 l 658 -74 l 650 -85 l 650 -92 l 657 -89 l 661 -76 l 665 -78 l 664 -85 l 682 -74 l 683 -78 l 663 -90 q 665 -90 663 -90 l 667 -89 l 674 -92 l 674 -94 l 661 -93 l 654 -99 l 661 -103 l 674 -100 l 675 -103 l 667 -106 m 764 399 l 735 401 l 726 381 l 764 399 m 157 538 l 175 522 l 172 546 l 157 553 l 157 538 m 132 599 l 136 575 l 149 569 l 150 585 l 132 599 m 133 524 l 150 538 l 149 553 l 136 546 l 133 524 m 157 569 l 171 576 l 174 597 l 157 585 l 157 569 m 633 -111 q 635 -108 635 -110 l 631 -111 l 633 -111 m 108 -301 q 110 -299 110 -300 l 106 -301 l 108 -301 m 176 574 q 182 574 179 571 l 182 575 l 181 574 l 176 574 m 136 -275 l 139 -275 l 136 -275 m 661 -85 l 664 -85 l 661 -85 z "},"L":{"ha":942,"x_min":14,"x_max":1113,"o":"m 14 26 q 112 37 63 39 q 211 24 161 35 q 280 66 249 39 q 338 127 311 93 q 387 200 364 161 q 431 278 410 239 q 334 344 375 301 q 276 453 293 386 q 278 511 265 500 q 307 494 290 522 q 378 422 333 453 q 478 372 424 392 l 493 401 q 563 544 526 467 q 641 694 599 621 q 735 832 683 768 q 854 936 788 896 q 919 960 885 954 q 986 960 954 967 q 1046 931 1018 953 q 1090 874 1074 910 q 1111 767 1113 824 q 1090 653 1110 710 q 1035 541 1069 596 q 960 438 1001 486 q 872 353 918 390 q 783 293 826 315 q 674 256 733 268 q 554 249 615 244 q 505 171 532 210 q 446 99 478 132 q 377 39 414 65 q 299 0 340 13 q 428 -46 363 -21 q 562 -92 494 -71 q 697 -123 629 -112 q 836 -122 765 -133 q 847 -162 847 -142 q 839 -201 847 -182 q 815 -234 831 -219 q 781 -257 800 -249 q 647 -262 718 -281 q 493 -193 576 -243 q 391 -128 447 -167 q 273 -59 335 -90 q 147 -12 211 -28 q 19 -15 82 3 l 14 26 m 646 353 q 788 397 719 360 q 910 488 856 433 q 1003 612 965 543 q 1053 753 1040 681 q 1057 806 1058 779 q 1044 854 1056 832 q 1013 889 1032 876 q 972 904 994 901 q 927 901 950 907 q 886 883 904 896 q 794 785 833 849 q 724 647 756 722 q 665 494 692 572 q 608 351 638 415 q 627 351 618 351 q 646 353 636 351 m 292 -331 q 297 -338 294 -333 q 296 -347 299 -343 q 279 -351 290 -357 q 275 -346 276 -350 q 274 -339 274 -342 l 247 -324 q 244 -325 244 -325 q 249 -328 247 -328 l 268 -351 l 261 -353 l 242 -328 q 222 -339 235 -336 l 235 -368 l 231 -372 l 218 -344 q 219 -340 219 -343 l 219 -339 l 217 -339 l 217 -372 q 225 -383 225 -372 q 214 -396 225 -396 q 203 -383 203 -396 q 211 -372 203 -375 l 210 -339 l 207 -339 l 207 -340 q 208 -344 207 -343 l 196 -372 l 192 -368 l 204 -339 q 186 -329 197 -337 l 168 -354 l 161 -354 l 181 -328 l 183 -328 q 181 -325 183 -325 l 154 -340 q 150 -354 158 -349 q 133 -351 140 -361 q 138 -333 126 -342 q 151 -336 142 -331 l 178 -319 l 176 -317 q 174 -319 174 -317 l 143 -324 l 144 -318 l 175 -314 q 172 -300 172 -303 q 173 -294 172 -297 q 174 -289 174 -292 l 144 -286 l 143 -281 l 174 -283 q 175 -286 174 -286 q 176 -283 176 -283 l 147 -265 q 133 -267 140 -272 q 129 -251 122 -261 q 144 -247 135 -240 q 150 -261 153 -251 l 181 -276 l 181 -274 l 160 -250 l 165 -247 l 183 -272 q 203 -260 192 -264 l 192 -233 l 196 -229 l 208 -258 q 207 -260 207 -258 q 210 -258 208 -258 l 211 -225 q 203 -214 203 -224 q 214 -201 203 -201 q 225 -214 225 -201 q 217 -225 225 -224 l 217 -258 q 219 -259 218 -258 q 221 -260 219 -260 q 219 -258 219 -258 l 231 -229 l 235 -233 l 225 -260 q 234 -265 229 -262 q 242 -269 239 -267 l 258 -246 l 264 -247 l 247 -272 l 244 -272 q 247 -276 244 -275 l 275 -258 q 279 -243 272 -250 q 296 -247 290 -237 q 293 -264 304 -258 q 278 -262 283 -268 l 250 -282 q 251 -283 250 -283 l 253 -282 l 283 -278 l 282 -283 l 251 -289 q 253 -300 253 -292 q 253 -306 253 -303 q 251 -311 253 -308 l 282 -314 l 285 -321 l 253 -317 q 251 -314 253 -315 q 250 -317 250 -317 l 276 -333 q 292 -331 282 -325 m 444 692 q 450 674 454 674 q 438 685 447 671 l 422 672 l 440 663 l 438 658 l 414 668 l 401 658 l 414 649 l 439 658 l 440 656 l 424 644 q 421 646 421 646 l 418 646 l 436 635 q 447 649 446 649 q 443 629 451 644 q 435 618 439 622 q 429 615 432 614 q 430 621 429 617 q 435 632 431 625 l 417 643 q 418 639 417 639 l 419 639 l 419 618 l 414 615 l 396 625 l 396 626 q 394 629 396 629 l 394 608 q 406 608 401 608 q 411 604 411 607 q 393 600 411 600 q 375 604 375 600 q 390 608 375 608 l 390 629 q 388 626 388 629 q 389 625 388 625 l 371 615 l 369 617 l 367 617 l 367 638 l 368 638 q 369 642 369 639 l 351 629 q 357 614 361 617 q 343 628 353 613 q 336 646 333 640 q 349 633 342 646 l 367 646 q 364 644 365 646 q 361 643 363 644 l 344 653 l 346 657 l 371 649 l 383 658 l 371 667 l 346 657 l 346 661 l 361 671 q 364 669 363 669 q 369 669 364 669 q 365 671 367 669 l 346 682 q 340 673 343 676 q 333 671 336 669 q 334 676 332 671 q 340 689 336 682 q 347 700 343 696 q 353 703 350 704 q 347 686 356 700 l 367 675 l 371 672 q 368 676 371 676 q 365 678 367 678 l 367 697 l 369 699 l 371 700 l 389 692 l 388 689 q 390 685 388 685 l 390 710 q 375 715 375 713 q 393 719 375 719 q 411 715 411 719 q 406 712 411 713 q 394 710 401 711 l 394 688 q 393 685 393 685 q 397 689 397 685 l 396 689 l 396 692 l 414 700 l 415 699 l 417 699 l 418 679 l 415 679 q 414 674 413 675 l 417 676 l 436 688 q 431 704 428 701 q 444 692 432 706 m 722 -412 l 719 -412 l 739 -424 l 738 -425 l 717 -414 l 717 -417 l 718 -417 l 719 -418 l 722 -425 l 718 -425 l 714 -414 l 706 -410 l 706 -419 l 714 -428 l 713 -431 l 706 -425 l 706 -421 l 704 -446 l 701 -446 l 701 -421 q 700 -425 700 -422 l 694 -431 l 693 -428 l 700 -419 l 700 -411 l 693 -414 l 689 -426 l 686 -425 l 686 -418 l 669 -428 l 668 -425 l 688 -412 l 685 -412 q 683 -414 685 -414 l 676 -412 l 676 -410 l 690 -410 l 697 -406 l 690 -401 l 676 -403 l 676 -400 l 683 -397 q 686 -399 685 -397 l 689 -399 l 667 -385 l 668 -383 l 690 -396 q 689 -393 690 -393 l 688 -392 l 686 -392 l 685 -385 l 688 -385 l 693 -396 l 700 -400 l 700 -392 l 693 -381 l 694 -379 l 700 -385 l 700 -386 q 701 -389 700 -389 l 701 -362 l 704 -362 l 706 -389 q 707 -386 707 -387 q 706 -385 706 -385 l 713 -379 l 714 -381 l 706 -392 l 706 -399 l 713 -396 l 717 -383 l 721 -385 l 719 -392 l 738 -381 l 739 -385 l 718 -397 q 721 -397 718 -397 l 722 -396 l 729 -399 l 729 -401 l 717 -400 l 710 -406 l 717 -410 l 729 -407 l 731 -410 l 722 -412 m 250 -300 q 249 -289 250 -292 l 239 -290 l 225 -300 l 240 -311 l 249 -311 q 250 -306 250 -308 q 250 -300 250 -303 m 176 -300 q 178 -314 176 -308 l 186 -311 l 200 -301 l 186 -290 l 178 -290 q 176 -300 176 -293 m 204 -262 q 186 -275 197 -264 l 192 -282 l 207 -289 l 208 -272 l 204 -262 m 222 -336 q 231 -331 226 -333 q 240 -325 236 -329 l 236 -319 l 219 -311 l 218 -329 l 222 -336 m 239 -274 q 232 -267 236 -271 q 222 -264 228 -264 l 218 -272 l 219 -289 l 235 -281 l 239 -274 m 396 635 l 414 619 l 411 643 l 396 650 l 396 635 m 188 -326 q 196 -331 190 -329 q 206 -336 201 -333 l 208 -329 l 207 -312 l 192 -319 l 188 -326 m 371 696 l 375 672 l 388 667 l 389 682 l 371 696 m 372 621 l 389 635 l 388 650 l 375 643 l 372 621 m 396 667 l 410 674 l 413 694 l 396 682 l 396 667 m 221 -262 l 217 -262 l 217 -268 q 221 -262 221 -264 m 183 -287 l 181 -285 q 178 -287 178 -286 q 183 -287 181 -289 m 239 -281 l 243 -278 l 240 -275 q 239 -281 239 -276 m 210 -268 l 210 -262 l 207 -262 q 210 -268 207 -265 m 186 -276 q 183 -278 183 -278 l 188 -281 q 186 -278 186 -279 l 186 -276 m 247 -286 l 247 -283 l 243 -286 l 247 -286 m 689 -418 q 690 -415 690 -417 l 686 -418 l 689 -418 m 415 671 q 421 671 418 668 l 421 672 l 419 671 l 415 671 m 242 -322 q 243 -321 243 -321 l 242 -321 l 242 -322 m 717 -392 l 719 -392 l 717 -392 m 186 -322 l 185 -322 l 186 -324 l 186 -322 m 246 -314 l 247 -315 l 247 -314 l 246 -314 z "},"M":{"ha":1226,"x_min":11,"x_max":1589,"o":"m 1008 918 q 914 771 950 854 q 853 594 878 688 q 814 403 829 500 q 785 214 799 306 q 940 440 856 328 q 1122 651 1024 553 q 1332 830 1219 750 q 1572 958 1444 910 l 1589 914 q 1394 785 1481 867 q 1242 603 1307 703 q 1137 396 1178 503 q 1080 192 1096 289 q 1074 19 1064 96 q 1124 -93 1085 -57 q 1117 -117 1125 -104 q 1097 -139 1110 -131 q 1065 -150 1083 -147 q 1026 -143 1047 -153 q 955 -72 975 -119 q 937 38 935 -25 q 960 176 939 101 q 1014 329 981 251 q 1088 483 1047 407 q 1171 626 1129 560 q 1073 526 1126 586 q 964 391 1019 465 q 855 234 908 317 q 757 68 801 151 l 711 79 q 697 219 701 138 q 699 393 693 301 q 635 240 667 322 q 562 79 603 157 q 467 -62 521 1 q 338 -157 413 -125 q 222 -179 275 -183 q 128 -149 169 -175 q 60 -81 88 -124 q 22 13 33 -39 q 19 119 11 64 q 54 225 26 174 q 102 288 72 258 q 167 338 132 318 q 243 365 203 358 q 322 361 283 372 q 377 324 358 350 q 400 274 396 299 q 395 237 404 250 q 368 239 386 224 q 309 263 343 260 q 240 257 275 267 q 174 225 206 247 q 121 174 142 203 q 87 107 100 144 q 72 33 74 69 q 85 -35 71 -4 q 132 -82 99 -67 q 248 -94 190 -110 q 360 -34 306 -79 q 467 80 415 11 q 563 226 518 149 q 647 385 608 304 q 714 536 685 465 q 754 695 728 617 q 818 832 781 774 l 742 782 q 643 865 706 839 q 567 881 606 882 q 493 866 528 879 q 430 828 458 853 q 385 771 401 803 q 365 715 372 747 q 358 652 357 683 q 374 595 360 621 q 417 557 388 569 q 474 554 446 546 q 519 585 501 563 q 535 620 531 600 q 538 660 540 640 q 593 656 571 671 q 618 604 615 640 q 597 529 621 560 q 538 484 574 499 q 462 471 503 469 q 389 493 421 472 q 341 541 358 511 q 316 605 324 571 q 310 675 308 639 q 318 743 311 711 q 367 847 332 801 q 450 919 401 892 q 556 958 499 947 q 669 956 613 968 q 750 928 713 947 q 819 881 788 908 l 985 960 l 1008 918 m 194 581 q 200 563 204 563 q 188 574 197 560 l 172 561 l 190 551 l 188 547 l 164 557 l 151 547 l 164 538 l 189 547 l 190 544 l 174 533 q 171 535 171 535 l 168 535 l 186 524 q 197 538 196 538 q 193 518 201 533 q 185 507 189 511 q 179 504 182 503 q 180 510 179 506 q 185 521 181 514 l 167 532 q 168 528 167 528 l 169 528 l 169 507 l 164 504 l 146 514 l 146 515 q 144 518 146 518 l 144 497 q 156 497 151 497 q 161 493 161 496 q 143 489 161 489 q 125 493 125 489 q 140 497 125 497 l 140 518 q 138 515 138 518 q 139 514 138 514 l 121 504 l 119 506 l 117 506 l 117 526 l 118 526 q 119 531 119 528 l 101 518 q 107 503 111 506 q 93 517 103 501 q 86 535 83 529 q 99 522 92 535 l 117 535 q 114 533 115 535 q 111 532 113 533 l 94 542 l 96 546 l 121 538 l 133 547 l 121 556 l 96 546 l 96 550 l 111 560 q 114 558 113 558 q 119 558 114 558 q 115 560 117 558 l 96 571 q 90 562 93 565 q 83 560 86 558 q 84 565 82 560 q 90 578 86 571 q 97 589 93 585 q 103 592 100 593 q 97 575 106 589 l 117 564 q 121 560 121 561 q 118 565 121 565 q 115 567 117 567 l 117 586 l 119 588 l 121 589 l 139 581 l 138 578 q 140 574 138 574 l 140 599 q 125 604 125 601 q 143 608 125 608 q 161 604 161 608 q 156 601 161 601 q 144 599 151 600 l 144 576 q 143 574 143 574 q 147 578 147 574 l 146 578 l 146 581 l 164 589 l 165 588 l 167 588 l 168 568 l 165 568 q 164 563 163 564 l 167 565 l 186 576 q 181 593 178 590 q 194 581 182 594 m 1178 978 l 1175 978 l 1194 967 l 1193 965 l 1172 976 l 1172 974 l 1174 974 l 1175 972 l 1178 965 l 1174 965 l 1169 976 l 1161 981 l 1161 971 l 1169 963 l 1168 960 l 1161 965 l 1160 944 l 1157 944 l 1157 969 q 1156 965 1156 968 l 1150 960 l 1149 963 l 1156 971 l 1156 979 l 1149 976 l 1144 964 l 1142 965 l 1142 972 l 1125 963 l 1124 965 l 1143 978 l 1140 978 q 1139 976 1140 976 l 1132 978 l 1132 981 l 1146 981 l 1153 985 l 1146 989 l 1132 988 l 1132 990 l 1139 993 q 1142 992 1140 993 l 1144 992 l 1122 1006 l 1124 1007 l 1146 994 q 1144 997 1146 997 l 1143 999 l 1142 999 l 1140 1006 l 1143 1006 l 1149 994 l 1156 990 l 1156 999 l 1149 1010 l 1150 1011 l 1156 1006 l 1156 1004 q 1157 1001 1156 1001 l 1157 1028 l 1160 1028 l 1161 1001 q 1163 1004 1163 1003 q 1161 1006 1161 1006 l 1168 1011 l 1169 1010 l 1161 999 l 1161 992 l 1168 994 l 1172 1007 l 1176 1006 l 1175 999 l 1193 1010 l 1194 1006 l 1174 993 q 1176 993 1174 993 l 1178 994 l 1185 992 l 1185 989 l 1172 990 l 1165 985 l 1172 981 l 1185 983 l 1186 981 l 1178 978 m 722 -175 l 719 -175 l 739 -186 l 738 -187 l 717 -176 l 717 -179 l 718 -179 l 719 -181 l 722 -187 l 718 -187 l 714 -176 l 706 -172 l 706 -182 l 714 -190 l 713 -193 l 706 -187 l 704 -208 l 701 -208 l 701 -183 q 700 -187 700 -185 l 694 -193 l 693 -190 l 700 -182 l 700 -174 l 693 -176 l 689 -189 l 686 -187 l 686 -181 l 669 -190 l 668 -187 l 688 -175 l 685 -175 q 683 -176 685 -176 l 676 -175 l 676 -172 l 690 -172 l 697 -168 l 690 -164 l 676 -165 l 676 -162 l 683 -160 q 686 -161 685 -160 l 689 -161 l 667 -147 l 668 -146 l 690 -158 q 689 -156 690 -156 l 688 -154 l 686 -154 l 685 -147 l 688 -147 l 693 -158 l 700 -162 l 700 -154 l 693 -143 l 694 -142 l 700 -147 l 700 -149 q 701 -151 700 -151 l 701 -125 l 704 -125 l 706 -151 q 707 -149 707 -150 q 706 -147 706 -147 l 713 -142 l 714 -143 l 706 -154 l 706 -161 l 713 -158 l 717 -146 l 721 -147 l 719 -154 l 738 -143 l 739 -147 l 718 -160 q 721 -160 718 -160 l 722 -158 l 729 -161 l 729 -164 l 717 -162 l 710 -168 l 717 -172 l 729 -169 l 731 -172 l 722 -175 m 146 524 l 164 508 l 161 532 l 146 539 l 146 524 m 121 585 l 125 561 l 138 556 l 139 571 l 121 585 m 122 510 l 139 524 l 138 539 l 125 532 l 122 510 m 146 556 l 160 563 l 163 583 l 146 571 l 146 556 m 689 -181 q 690 -178 690 -179 l 686 -181 l 689 -181 m 1144 972 q 1146 975 1146 974 l 1142 972 l 1144 972 m 165 560 q 171 560 168 557 l 171 561 l 169 560 l 165 560 m 1172 999 q 1171 996 1172 997 l 1175 999 l 1172 999 m 717 -154 l 719 -154 l 717 -154 z "},"T":{"ha":799,"x_min":13,"x_max":1289,"o":"m 525 679 q 567 670 550 681 q 590 643 583 660 q 594 605 597 626 q 578 561 590 583 q 535 519 563 538 q 471 497 507 501 q 397 505 435 492 q 331 547 360 518 q 289 606 304 574 q 269 674 274 639 q 271 744 265 708 q 293 811 276 779 q 363 900 321 865 q 454 950 404 935 q 560 963 504 965 q 674 942 617 961 q 749 908 701 932 q 854 860 796 885 q 920 927 885 899 q 1000 961 956 956 l 1013 915 q 963 890 986 914 q 919 833 939 867 q 1035 796 978 810 q 1140 789 1093 782 q 1215 829 1186 796 q 1247 935 1244 863 l 1288 936 q 1261 819 1289 867 q 1187 743 1233 771 q 1081 708 1140 715 q 963 711 1022 700 q 871 738 915 719 q 854 696 861 714 q 842 667 847 678 q 743 447 790 557 q 639 229 696 336 q 534 58 592 140 q 389 -82 476 -25 q 304 -121 353 -104 q 206 -139 256 -137 q 113 -122 157 -140 q 43 -57 69 -104 q 15 39 18 -12 q 27 141 13 90 q 71 237 42 192 q 140 314 100 282 q 229 360 181 346 q 332 361 278 374 q 389 327 368 353 q 413 274 410 301 q 401 235 417 236 q 360 249 386 233 q 302 265 333 263 q 239 259 271 268 q 178 229 207 250 q 128 175 149 208 q 92 113 108 146 q 74 39 76 79 q 88 -35 71 0 q 143 -81 106 -71 q 246 -72 196 -94 q 342 -3 296 -49 q 428 103 388 42 q 502 226 468 164 q 563 343 536 288 q 607 433 589 399 q 696 606 651 519 q 793 772 740 692 q 710 813 751 793 q 628 847 669 833 q 542 867 586 861 q 450 863 497 872 q 394 839 419 856 q 352 799 369 822 q 326 747 335 775 q 318 688 317 718 q 331 640 319 660 q 361 607 343 619 q 401 590 379 594 q 447 593 424 586 q 500 624 478 600 q 525 679 522 647 m 686 -283 q 691 -291 689 -286 q 690 -300 693 -296 q 674 -304 685 -310 q 669 -299 671 -303 q 668 -292 668 -294 l 642 -276 q 639 -278 639 -278 q 643 -281 642 -281 l 663 -304 l 656 -306 l 636 -281 q 617 -292 629 -289 l 629 -321 l 625 -325 l 613 -297 q 614 -293 614 -296 l 614 -292 l 611 -292 l 611 -325 q 619 -336 619 -325 q 608 -349 619 -349 q 597 -336 597 -349 q 606 -325 597 -328 l 604 -292 l 601 -292 l 601 -293 q 603 -297 601 -296 l 590 -325 l 586 -321 l 599 -292 q 581 -282 592 -290 l 563 -307 l 556 -307 l 575 -281 l 578 -281 q 575 -278 578 -278 l 549 -293 q 544 -307 553 -301 q 528 -304 535 -314 q 532 -286 521 -294 q 546 -289 536 -283 l 572 -272 l 571 -269 q 568 -272 568 -269 l 538 -276 l 539 -271 l 569 -267 q 567 -253 567 -256 q 567 -247 567 -250 q 568 -242 568 -244 l 539 -239 l 538 -233 l 568 -236 q 569 -239 568 -239 q 571 -236 571 -236 l 542 -218 q 528 -219 535 -225 q 524 -204 517 -214 q 539 -200 529 -193 q 544 -214 547 -204 l 575 -229 l 575 -226 l 554 -203 l 560 -200 l 578 -225 q 597 -212 586 -217 l 586 -186 l 590 -182 l 603 -211 q 601 -212 601 -211 q 604 -211 603 -211 l 606 -178 q 597 -167 597 -176 q 608 -154 597 -154 q 619 -167 619 -154 q 611 -178 619 -176 l 611 -211 q 613 -212 613 -211 q 615 -212 614 -212 q 614 -211 614 -211 l 625 -182 l 629 -186 l 619 -212 q 628 -217 624 -215 q 636 -222 633 -219 l 653 -199 l 658 -200 l 642 -225 l 639 -225 q 642 -229 639 -228 l 669 -211 q 674 -196 667 -203 q 690 -200 685 -190 q 688 -217 699 -211 q 672 -215 678 -221 l 644 -235 q 646 -236 644 -236 l 647 -235 l 678 -231 l 676 -236 l 646 -242 q 647 -253 647 -244 q 647 -258 647 -256 q 646 -264 647 -261 l 676 -267 l 679 -274 l 647 -269 q 646 -267 647 -268 q 644 -269 644 -269 l 671 -286 q 686 -283 676 -278 m 194 608 q 200 590 204 590 q 188 601 197 588 l 172 589 l 190 579 l 188 575 l 164 585 l 151 575 l 164 565 l 189 575 l 190 572 l 174 561 q 171 563 171 563 l 168 563 l 186 551 q 197 565 196 565 q 193 546 201 561 q 185 535 189 539 q 179 532 182 531 q 180 538 179 533 q 185 549 181 542 l 167 560 q 168 556 167 556 l 169 556 l 169 535 l 164 532 l 146 542 l 146 543 q 144 546 146 546 l 144 525 q 156 524 151 525 q 161 521 161 524 q 143 517 161 517 q 125 521 125 517 q 140 525 125 525 l 140 546 q 138 543 138 546 q 139 542 138 542 l 121 532 l 119 533 l 117 533 l 117 554 l 118 554 q 119 558 119 556 l 101 546 q 107 531 111 533 q 93 544 103 529 q 86 563 83 557 q 99 550 92 563 l 117 563 q 114 561 115 563 q 111 560 113 561 l 94 569 l 96 574 l 121 565 l 133 575 l 121 583 l 96 574 l 96 578 l 111 588 q 114 586 113 586 q 119 586 114 586 q 115 588 117 586 l 96 599 q 90 590 93 593 q 83 588 86 586 q 84 593 82 588 q 90 606 86 599 q 97 617 93 613 q 103 619 100 621 q 97 603 106 617 l 117 592 l 121 589 q 118 593 121 593 q 115 594 117 594 l 117 614 l 119 615 l 121 617 l 139 608 l 138 606 q 140 601 138 601 l 140 626 q 125 632 125 629 q 143 636 125 636 q 161 632 161 636 q 156 628 161 629 q 144 626 151 628 l 144 604 q 143 601 143 601 q 147 606 147 601 l 146 606 l 146 608 l 164 617 l 165 615 l 167 615 l 168 596 l 165 596 q 164 590 163 592 l 167 593 l 186 604 q 181 621 178 618 q 194 608 182 622 m 139 -258 l 136 -258 l 156 -269 l 154 -271 l 133 -260 l 133 -262 l 135 -262 l 136 -264 l 139 -271 l 135 -271 l 131 -260 l 122 -256 l 122 -265 l 131 -274 l 129 -276 l 122 -271 l 121 -292 l 118 -292 l 118 -267 q 117 -271 117 -268 l 111 -276 l 110 -274 l 117 -265 l 117 -257 l 110 -260 l 106 -272 l 103 -271 l 103 -264 l 86 -274 l 85 -271 l 104 -258 l 101 -258 q 100 -260 101 -260 l 93 -258 l 93 -256 l 107 -256 l 114 -251 l 107 -247 l 93 -249 l 93 -246 l 100 -243 q 103 -244 101 -243 l 106 -244 l 83 -231 l 85 -229 l 107 -242 q 106 -239 107 -239 l 104 -237 l 103 -237 l 101 -231 l 104 -231 l 110 -242 l 117 -246 l 117 -237 l 110 -226 l 111 -225 l 117 -231 l 117 -232 q 118 -235 117 -235 l 118 -208 l 121 -208 l 122 -235 q 124 -232 124 -233 q 122 -231 122 -231 l 129 -225 l 131 -226 l 122 -237 l 122 -244 l 129 -242 l 133 -229 l 138 -231 l 136 -237 l 154 -226 l 156 -231 l 135 -243 q 138 -243 135 -243 l 139 -242 l 146 -244 l 146 -247 l 133 -246 l 126 -251 l 133 -256 l 146 -253 l 147 -256 l 139 -258 m 644 -253 q 643 -242 644 -244 l 633 -243 l 619 -253 l 635 -264 l 643 -264 q 644 -258 644 -261 q 644 -253 644 -256 m 571 -253 q 572 -267 571 -261 l 581 -264 l 594 -254 l 581 -243 l 572 -243 q 571 -253 571 -246 m 599 -215 q 581 -228 592 -217 l 586 -235 l 601 -242 l 603 -225 l 599 -215 m 617 -289 q 626 -284 621 -286 q 635 -278 631 -282 l 631 -272 l 614 -264 l 613 -282 l 617 -289 m 633 -226 q 626 -220 631 -224 q 617 -217 622 -217 l 613 -225 l 614 -242 l 629 -233 l 633 -226 m 146 551 l 164 536 l 161 560 l 146 567 l 146 551 m 582 -279 q 590 -284 585 -282 q 600 -289 596 -286 l 603 -282 l 601 -265 l 586 -272 l 582 -279 m 121 613 l 125 589 l 138 583 l 139 599 l 121 613 m 122 538 l 139 551 l 138 567 l 125 560 l 122 538 m 146 583 l 160 590 l 163 611 l 146 599 l 146 583 m 615 -215 l 611 -215 l 611 -221 q 615 -215 615 -217 m 578 -240 l 575 -237 q 572 -240 572 -239 q 578 -240 575 -242 m 633 -233 l 638 -231 l 635 -228 q 633 -233 633 -229 m 604 -221 l 604 -215 l 601 -215 q 604 -221 601 -218 m 581 -229 q 578 -231 578 -231 l 582 -233 q 581 -231 581 -232 l 581 -229 m 642 -239 l 642 -236 l 638 -239 l 642 -239 m 106 -264 q 107 -261 107 -262 l 103 -264 l 106 -264 m 165 588 q 171 588 168 585 l 171 589 l 169 588 l 165 588 m 636 -275 q 638 -274 638 -274 l 636 -274 l 636 -275 m 133 -237 l 136 -237 l 133 -237 m 581 -275 l 579 -275 l 581 -276 l 581 -275 m 640 -267 l 642 -268 l 642 -267 l 640 -267 z "},"U":{"ha":907,"x_min":10,"x_max":1238,"o":"m 933 914 q 805 851 865 896 q 692 751 744 807 q 593 633 639 694 q 508 517 547 571 q 422 397 469 463 q 333 258 375 331 q 263 109 292 185 q 233 -39 235 33 q 253 -85 232 -69 q 304 -92 274 -100 q 373 -51 338 -82 q 444 24 408 -21 q 517 122 481 68 q 586 233 553 176 q 649 344 619 289 q 703 443 678 399 q 798 603 744 519 q 917 760 851 688 q 1058 887 982 833 q 1221 958 1135 940 l 1238 914 q 1109 826 1168 882 q 1000 701 1050 769 q 909 560 950 633 q 835 424 868 488 q 799 356 822 400 q 753 258 776 311 q 710 147 729 204 q 688 41 692 90 q 701 -44 685 -8 q 767 -89 718 -79 q 744 -130 764 -112 q 696 -153 724 -147 q 638 -151 668 -158 q 588 -118 608 -143 q 562 -28 558 -83 q 584 86 565 28 q 627 197 603 144 q 663 279 651 249 q 579 136 622 208 q 488 3 536 64 q 390 -98 440 -57 q 285 -147 339 -139 q 245 -149 269 -150 q 199 -133 221 -147 q 136 -49 149 -103 q 136 70 124 6 q 179 205 149 135 q 247 339 210 275 q 318 454 283 403 q 374 535 353 506 q 436 615 400 571 q 513 703 472 660 q 598 788 554 747 q 685 860 642 829 l 449 782 q 407 831 431 810 q 353 864 383 851 q 290 879 325 875 q 218 872 256 883 q 144 837 182 863 q 86 774 106 811 q 66 716 72 747 q 63 656 60 685 q 81 601 67 626 q 124 564 96 576 q 180 559 151 553 q 228 586 208 565 q 244 620 239 601 q 246 658 250 639 q 303 655 278 669 q 326 604 328 640 q 300 529 325 558 q 240 488 275 500 q 165 478 204 475 q 94 501 125 482 q 38 559 57 525 q 14 633 18 593 q 19 714 10 672 q 47 794 28 756 q 92 864 65 832 q 149 915 118 896 q 250 956 197 946 q 355 958 303 965 q 456 926 407 950 q 546 865 506 901 l 922 961 l 933 914 m 164 -264 q 169 -282 174 -282 q 157 -271 167 -285 l 142 -282 l 160 -293 l 157 -297 l 133 -287 l 121 -297 l 133 -307 l 158 -297 l 160 -300 l 143 -311 q 140 -310 140 -310 l 138 -310 l 156 -321 q 167 -307 165 -307 q 163 -326 171 -311 q 149 -340 151 -342 q 149 -335 149 -339 q 154 -324 150 -331 l 136 -312 q 138 -317 136 -317 l 139 -317 l 139 -337 l 133 -340 l 115 -331 l 115 -329 q 114 -326 115 -326 l 114 -347 q 126 -348 121 -347 q 131 -351 131 -349 q 113 -356 131 -356 q 94 -351 94 -356 q 110 -347 94 -347 l 110 -326 q 107 -329 107 -326 q 108 -331 107 -331 l 90 -340 l 89 -339 l 86 -339 l 86 -318 l 88 -318 q 89 -314 89 -317 l 71 -326 q 76 -342 81 -339 q 63 -328 72 -343 q 56 -310 53 -315 q 68 -322 61 -310 l 86 -310 q 83 -311 85 -310 q 81 -312 82 -311 l 64 -303 l 65 -299 l 90 -307 l 103 -297 l 90 -289 l 65 -299 l 65 -294 l 81 -285 q 83 -286 82 -286 q 89 -286 83 -286 q 85 -285 86 -286 l 65 -274 q 59 -283 63 -279 q 53 -285 56 -286 q 53 -279 51 -285 q 60 -267 56 -274 q 66 -256 63 -260 q 72 -253 69 -251 q 67 -269 75 -256 l 86 -281 q 90 -285 90 -283 q 88 -279 90 -279 q 85 -278 86 -278 l 86 -258 l 89 -257 l 90 -256 l 108 -264 l 107 -267 q 110 -271 107 -271 l 110 -246 q 94 -240 94 -243 q 113 -236 94 -236 q 131 -240 131 -236 q 126 -244 131 -243 q 114 -246 121 -244 l 114 -268 q 113 -271 113 -271 q 117 -267 117 -271 l 115 -267 l 115 -264 l 133 -256 l 135 -257 l 136 -257 l 138 -276 l 135 -276 q 133 -282 132 -281 l 136 -279 l 156 -268 q 150 -251 147 -254 q 164 -264 151 -250 m 585 -262 l 582 -262 l 601 -274 l 600 -275 l 579 -264 l 579 -267 l 581 -267 l 582 -268 l 585 -275 l 581 -275 l 576 -264 l 568 -260 l 568 -269 l 576 -278 l 575 -281 l 568 -275 l 567 -296 l 564 -296 l 564 -271 q 563 -275 563 -272 l 557 -281 l 556 -278 l 563 -269 l 563 -261 l 556 -264 l 551 -276 l 549 -275 l 549 -268 l 532 -278 l 531 -275 l 550 -262 l 547 -262 q 546 -264 547 -264 l 539 -262 l 539 -260 l 553 -260 l 560 -256 l 553 -251 l 539 -253 l 539 -250 l 546 -247 q 549 -249 547 -247 l 551 -249 l 529 -235 l 531 -233 l 553 -246 q 551 -243 553 -243 l 550 -242 l 549 -242 l 547 -235 l 550 -235 l 556 -246 l 563 -250 l 563 -242 l 556 -231 l 557 -229 l 563 -235 l 563 -236 q 564 -239 563 -239 l 564 -212 l 567 -212 l 568 -239 q 569 -236 569 -237 q 568 -235 568 -235 l 575 -229 l 576 -231 l 568 -242 l 568 -249 l 575 -246 l 579 -233 l 583 -235 l 582 -242 l 600 -231 l 601 -235 l 581 -247 q 583 -247 581 -247 l 585 -246 l 592 -249 l 592 -251 l 579 -250 l 572 -256 l 579 -260 l 592 -257 l 593 -260 l 585 -262 m 100 333 l 97 333 l 117 322 l 115 321 l 94 332 l 94 329 l 96 329 l 97 328 l 100 321 l 96 321 l 92 332 l 83 336 l 83 326 l 92 318 l 90 315 l 83 321 l 82 300 l 79 300 l 79 325 q 78 321 78 324 l 72 315 l 71 318 l 78 326 l 78 335 l 71 332 l 67 319 l 64 321 l 64 328 l 47 318 l 46 321 l 65 333 l 63 333 q 61 332 63 332 l 54 333 l 54 336 l 68 336 l 75 340 l 68 344 l 54 343 l 54 346 l 61 349 q 64 347 63 349 l 67 347 l 44 361 l 46 363 l 68 350 q 67 353 68 353 l 65 354 l 64 354 l 63 361 l 65 361 l 71 350 l 78 346 l 78 354 l 71 365 l 72 367 l 78 361 l 78 360 q 79 357 78 357 l 79 383 l 82 383 l 83 357 q 85 360 85 358 q 83 361 83 361 l 90 367 l 92 365 l 83 354 l 83 347 l 90 350 l 94 363 l 99 361 l 97 354 l 115 365 l 117 361 l 96 349 q 99 349 96 349 l 100 350 l 107 347 l 107 344 l 94 346 l 88 340 l 94 336 l 107 339 l 108 336 l 100 333 m 115 -321 l 133 -336 l 131 -312 l 115 -306 l 115 -321 m 90 -260 l 94 -283 l 107 -289 l 108 -274 l 90 -260 m 92 -335 l 108 -321 l 107 -306 l 94 -312 l 92 -335 m 115 -289 l 129 -282 l 132 -261 l 115 -274 l 115 -289 m 551 -268 q 553 -265 553 -267 l 549 -268 l 551 -268 m 67 328 q 68 331 68 329 l 64 328 l 67 328 m 135 -285 q 140 -285 138 -287 l 140 -283 l 139 -285 l 135 -285 m 94 354 q 93 351 94 353 l 97 354 l 94 354 m 579 -242 l 582 -242 l 579 -242 z "},"V":{"ha":921,"x_min":8,"x_max":1419,"o":"m 1401 913 q 1363 911 1386 917 q 1331 903 1339 906 q 1201 820 1264 876 q 1076 690 1138 764 q 955 528 1015 615 q 833 354 894 442 q 742 215 786 286 q 656 80 699 144 q 572 -38 613 15 q 490 -123 531 -92 q 410 -158 450 -154 q 332 -131 371 -162 q 268 -35 285 -92 q 257 87 251 22 q 284 221 263 151 q 334 355 306 290 q 394 476 363 419 q 450 571 425 532 q 547 711 490 636 q 672 847 603 786 l 449 782 q 407 831 431 810 q 353 864 383 851 q 277 879 315 879 q 203 867 239 879 q 140 831 168 854 q 94 775 111 807 q 68 697 75 740 q 76 614 61 654 q 122 566 90 582 q 185 560 153 550 q 235 598 219 569 q 246 658 250 626 q 303 655 279 669 q 326 604 326 640 q 301 531 326 560 q 241 489 276 501 q 166 479 206 476 q 96 501 126 482 q 24 597 40 539 q 21 717 8 656 q 68 832 33 778 q 150 915 103 886 q 251 956 199 946 q 356 958 304 965 q 457 926 408 950 q 546 865 506 901 l 922 961 l 933 915 q 849 883 890 910 q 769 820 807 857 q 697 740 731 783 q 638 653 664 696 q 592 576 611 611 q 561 522 572 542 q 522 449 547 497 q 470 343 497 401 q 418 220 443 285 q 378 95 393 156 q 362 -15 363 35 q 383 -93 361 -64 q 427 -102 400 -115 q 488 -51 454 -89 q 562 48 522 -12 q 644 182 601 108 q 733 338 688 256 q 825 504 779 421 q 874 592 843 539 q 944 703 904 644 q 1029 819 983 763 q 1125 919 1075 876 q 1228 983 1175 963 q 1332 990 1281 1004 q 1390 961 1361 982 q 1413 939 1407 949 q 1419 923 1419 929 q 1413 914 1418 917 q 1401 913 1407 911 m 747 -258 q 752 -266 750 -261 q 751 -275 754 -271 q 735 -279 746 -285 q 731 -274 732 -278 q 729 -267 729 -269 l 703 -251 q 700 -253 700 -253 q 704 -256 703 -256 l 724 -279 l 717 -281 l 697 -256 q 678 -267 690 -264 l 690 -296 l 686 -300 l 674 -272 q 675 -268 675 -271 l 675 -267 l 672 -267 l 672 -300 q 681 -311 681 -300 q 669 -324 681 -324 q 658 -311 658 -324 q 667 -300 658 -303 l 665 -267 l 663 -267 l 663 -268 q 664 -272 663 -271 l 651 -300 l 647 -296 l 660 -267 q 642 -257 653 -265 l 624 -282 l 617 -282 l 636 -256 l 639 -256 q 636 -253 639 -253 l 610 -268 q 606 -282 614 -276 q 589 -279 596 -289 q 593 -261 582 -269 q 607 -264 597 -258 l 633 -247 l 632 -244 q 629 -247 629 -244 l 599 -251 l 600 -246 l 631 -242 q 628 -228 628 -231 q 628 -222 628 -225 q 629 -217 629 -219 l 600 -214 l 599 -208 l 629 -211 q 631 -214 629 -214 q 632 -211 632 -211 l 603 -193 q 589 -194 596 -200 q 585 -179 578 -189 q 600 -175 590 -168 q 606 -189 608 -179 l 636 -204 l 636 -201 l 615 -178 l 621 -175 l 639 -200 q 658 -187 647 -192 l 647 -161 l 651 -157 l 664 -186 q 663 -187 663 -186 q 665 -186 664 -186 l 667 -153 q 658 -142 658 -151 q 669 -129 658 -129 q 681 -142 681 -129 q 672 -153 681 -151 l 672 -186 q 674 -187 674 -186 q 676 -187 675 -187 q 675 -186 675 -186 l 686 -157 l 690 -161 l 681 -187 q 690 -192 685 -190 q 697 -197 694 -194 l 714 -174 l 719 -175 l 703 -200 l 700 -200 q 703 -204 700 -203 l 731 -186 q 735 -171 728 -178 q 751 -175 746 -165 q 749 -192 760 -186 q 733 -190 739 -196 l 706 -210 q 707 -211 706 -211 l 708 -210 l 739 -206 l 738 -211 l 707 -217 q 708 -228 708 -219 q 708 -233 708 -231 q 707 -239 708 -236 l 738 -242 l 740 -249 l 708 -244 q 707 -242 708 -243 q 706 -244 706 -244 l 732 -261 q 747 -258 738 -253 m 224 368 q 229 350 233 350 q 217 361 226 347 l 201 349 l 219 339 l 217 335 l 193 344 l 181 335 l 193 325 l 218 335 l 219 332 l 203 321 q 200 322 200 322 l 197 322 l 215 311 q 226 325 225 325 q 222 306 231 321 q 215 294 218 299 q 208 292 211 290 q 209 297 208 293 q 214 308 210 301 l 196 319 q 197 315 196 315 l 199 315 l 199 294 l 193 292 l 175 301 l 175 303 q 174 306 175 306 l 174 285 q 185 284 181 285 q 190 281 190 283 q 172 276 190 276 q 154 281 154 276 q 169 285 154 285 l 169 306 q 167 303 167 306 q 168 301 167 301 l 150 292 l 149 293 l 146 293 l 146 314 l 147 314 q 149 318 149 315 l 131 306 q 136 290 140 293 q 122 304 132 289 q 115 322 113 317 q 128 310 121 322 l 146 322 q 143 321 144 322 q 140 319 142 321 l 124 329 l 125 333 l 150 325 l 163 335 l 150 343 l 125 333 l 125 338 l 140 347 q 143 346 142 346 q 149 346 143 346 q 144 347 146 346 l 125 358 q 119 349 122 353 q 113 347 115 346 q 113 353 111 347 q 119 365 115 358 q 126 376 122 372 q 132 379 129 381 q 126 363 135 376 l 146 351 q 150 347 150 349 q 147 353 150 353 q 144 354 146 354 l 146 374 l 149 375 l 150 376 l 168 368 l 167 365 q 169 361 167 361 l 169 386 q 154 392 154 389 q 172 396 154 396 q 190 392 190 396 q 185 388 190 389 q 174 386 181 388 l 174 364 q 172 361 172 361 q 176 365 176 361 l 175 365 l 175 368 l 193 376 l 194 375 l 196 375 l 197 356 l 194 356 q 193 350 192 351 l 196 353 l 215 364 q 210 381 207 378 q 224 368 211 382 m 146 -285 l 143 -285 l 163 -296 l 161 -297 l 140 -286 l 140 -289 l 142 -289 l 143 -290 l 146 -297 l 142 -297 l 138 -286 l 129 -282 l 129 -292 l 138 -300 l 136 -303 l 129 -297 l 128 -318 l 125 -318 l 125 -293 q 124 -297 124 -294 l 118 -303 l 117 -300 l 124 -292 l 124 -283 l 117 -286 l 113 -299 l 110 -297 l 110 -290 l 93 -300 l 92 -297 l 111 -285 l 108 -285 q 107 -286 108 -286 l 100 -285 l 100 -282 l 114 -282 l 121 -278 l 114 -274 l 100 -275 l 100 -272 l 107 -269 q 110 -271 108 -269 l 113 -271 l 90 -257 l 92 -256 l 114 -268 q 113 -265 114 -265 l 111 -264 l 110 -264 l 108 -257 l 111 -257 l 117 -268 l 124 -272 l 124 -264 l 117 -253 l 118 -251 l 124 -257 l 124 -258 q 125 -261 124 -261 l 125 -235 l 128 -235 l 129 -261 q 131 -258 131 -260 q 129 -257 129 -257 l 136 -251 l 138 -253 l 129 -264 l 129 -271 l 136 -268 l 140 -256 l 144 -257 l 143 -264 l 161 -253 l 163 -257 l 142 -269 q 144 -269 142 -269 l 146 -268 l 153 -271 l 153 -274 l 140 -272 l 133 -278 l 140 -282 l 153 -279 l 154 -282 l 146 -285 m 706 -228 q 704 -217 706 -219 l 694 -218 l 681 -228 l 696 -239 l 704 -239 q 706 -233 706 -236 q 706 -228 706 -231 m 632 -228 q 633 -242 632 -236 l 642 -239 l 656 -229 l 642 -218 l 633 -218 q 632 -228 632 -221 m 660 -190 q 642 -203 653 -192 l 647 -210 l 663 -217 l 664 -200 l 660 -190 m 678 -264 q 687 -259 682 -261 q 696 -253 692 -257 l 692 -247 l 675 -239 l 674 -257 l 678 -264 m 694 -201 q 688 -195 692 -199 q 678 -192 683 -192 l 674 -200 l 675 -217 l 690 -208 l 694 -201 m 175 311 l 193 296 l 190 319 l 175 326 l 175 311 m 643 -254 q 651 -259 646 -257 q 661 -264 657 -261 l 664 -257 l 663 -240 l 647 -247 l 643 -254 m 150 372 l 154 349 l 167 343 l 168 358 l 150 372 m 151 297 l 168 311 l 167 326 l 154 319 l 151 297 m 175 343 l 189 350 l 192 371 l 175 358 l 175 343 m 676 -190 l 672 -190 l 672 -196 q 676 -190 676 -192 m 639 -215 l 636 -212 q 633 -215 633 -214 q 639 -215 636 -217 m 694 -208 l 699 -206 l 696 -203 q 694 -208 694 -204 m 665 -196 l 665 -190 l 663 -190 q 665 -196 663 -193 m 642 -204 q 639 -206 639 -206 l 643 -208 q 642 -206 642 -207 l 642 -204 m 703 -214 l 703 -211 l 699 -214 l 703 -214 m 113 -290 q 114 -287 114 -289 l 110 -290 l 113 -290 m 194 347 q 200 347 197 344 l 200 349 l 199 347 l 194 347 m 697 -250 q 699 -249 699 -249 l 697 -249 l 697 -250 m 140 -264 l 143 -264 l 140 -264 m 701 -242 l 703 -243 l 703 -242 l 701 -242 m 642 -250 l 640 -250 l 642 -251 l 642 -250 z "},"W":{"ha":1143,"x_min":7,"x_max":1635,"o":"m 933 915 q 805 849 865 896 q 692 744 744 803 q 594 621 639 685 q 514 501 550 557 q 442 386 479 450 q 369 258 404 322 q 307 131 335 193 q 263 21 279 69 q 247 -57 247 -28 q 271 -87 247 -86 q 337 -69 303 -89 q 403 -19 371 -49 q 467 42 436 10 q 521 99 497 75 q 539 182 526 140 q 567 263 551 224 q 602 341 583 303 q 638 413 621 379 q 672 476 647 432 q 731 575 697 521 q 806 683 765 629 q 888 778 846 738 q 969 835 929 818 q 1040 832 1008 853 q 1053 772 1064 817 q 1009 666 1042 726 q 929 536 976 606 q 835 403 882 467 q 747 288 788 339 q 685 213 706 238 q 652 140 667 181 q 628 59 638 99 q 615 -15 618 19 q 618 -71 613 -50 q 638 -93 624 -92 q 679 -68 653 -94 q 797 76 742 -4 q 903 243 851 156 q 1003 419 954 331 q 1101 588 1053 507 q 1155 672 1122 621 q 1228 778 1188 724 q 1315 881 1268 832 q 1413 960 1363 929 q 1515 994 1463 990 q 1617 961 1567 997 q 1635 940 1635 949 q 1626 926 1635 932 q 1602 917 1617 921 q 1576 908 1588 913 q 1495 863 1536 893 q 1415 794 1454 832 q 1249 606 1326 706 q 1097 404 1172 506 q 948 193 1021 300 q 794 -14 875 86 q 758 -61 779 -33 q 710 -112 736 -89 q 656 -147 685 -135 q 596 -149 626 -160 q 559 -122 574 -140 q 535 -79 544 -103 q 522 -31 526 -56 q 517 13 518 -7 q 439 -63 478 -28 q 363 -122 400 -99 q 289 -151 325 -144 q 219 -139 253 -158 q 159 -56 169 -111 q 163 69 149 0 q 212 215 178 139 q 284 360 246 290 q 359 484 322 429 q 417 568 396 539 q 529 710 465 635 q 668 847 593 785 l 449 782 q 407 831 431 810 q 353 864 383 851 q 290 879 325 875 q 218 872 256 883 q 148 838 182 863 q 94 775 114 813 q 67 697 75 740 q 75 614 60 653 q 95 583 82 596 q 124 564 108 571 q 181 558 151 553 q 226 586 210 564 q 243 621 239 601 q 246 658 247 640 q 300 655 278 669 q 325 604 322 640 q 317 557 326 579 q 290 518 307 535 q 250 491 272 501 q 206 476 228 481 q 149 479 178 472 q 94 501 119 486 q 23 597 39 539 q 19 717 7 656 q 67 832 32 778 q 149 915 103 886 q 250 956 197 946 q 355 958 303 965 q 456 926 407 950 q 546 865 504 901 l 922 961 l 933 915 m 1007 796 q 963 768 992 804 q 897 668 933 732 q 819 521 860 604 q 742 351 779 438 q 829 469 786 410 q 913 592 872 529 q 946 647 926 614 q 982 711 965 679 q 1007 767 999 743 q 1007 796 1015 792 m 208 -231 q 214 -249 218 -249 q 201 -237 211 -251 l 186 -249 l 204 -260 l 201 -264 l 178 -254 l 165 -264 l 178 -274 l 203 -264 l 204 -267 l 188 -278 q 185 -276 185 -276 l 182 -276 l 200 -287 q 211 -274 210 -274 q 207 -293 215 -278 q 193 -307 196 -308 q 194 -301 193 -306 q 199 -290 194 -297 l 181 -279 q 182 -283 181 -283 l 183 -283 l 183 -304 l 178 -307 l 160 -297 l 160 -296 q 158 -293 160 -293 l 158 -314 q 170 -315 165 -314 q 175 -318 175 -315 q 157 -322 175 -322 q 139 -318 139 -322 q 154 -314 139 -314 l 154 -293 q 151 -296 151 -293 q 153 -297 151 -297 l 135 -307 l 133 -306 l 131 -306 l 131 -285 l 132 -285 q 133 -281 133 -283 l 115 -293 q 121 -308 125 -306 q 107 -294 117 -310 q 100 -276 97 -282 q 113 -289 106 -276 l 131 -276 q 128 -278 129 -276 q 125 -279 126 -278 l 108 -269 l 110 -265 l 135 -274 l 147 -264 l 135 -256 l 110 -265 l 110 -261 l 125 -251 q 128 -253 126 -253 q 133 -253 128 -253 q 129 -251 131 -253 l 110 -240 q 103 -249 107 -246 q 97 -251 100 -253 q 98 -246 96 -251 q 104 -233 100 -240 q 110 -222 107 -226 q 117 -219 114 -218 q 111 -236 119 -222 l 131 -247 q 135 -251 135 -250 q 132 -246 135 -246 q 129 -244 131 -244 l 131 -225 l 133 -224 l 135 -222 l 153 -231 l 151 -233 q 154 -237 151 -237 l 154 -212 q 139 -207 139 -210 q 157 -203 139 -203 q 175 -207 175 -203 q 170 -210 175 -210 q 158 -212 165 -211 l 158 -235 q 157 -237 157 -237 q 161 -233 161 -237 l 160 -233 l 160 -231 l 178 -222 l 179 -224 l 181 -224 l 182 -243 l 179 -243 q 178 -249 176 -247 l 181 -246 l 200 -235 q 194 -218 192 -221 q 208 -231 196 -217 m 840 -226 l 838 -226 l 857 -237 l 856 -239 l 835 -228 l 835 -231 l 836 -231 l 838 -232 l 840 -239 l 836 -239 l 832 -228 l 824 -224 l 824 -233 l 832 -242 l 831 -244 l 824 -239 l 822 -260 l 819 -260 l 819 -235 q 818 -239 818 -236 l 813 -244 l 811 -242 l 818 -233 l 818 -225 l 811 -228 l 807 -240 l 804 -239 l 804 -232 l 788 -242 l 786 -239 l 806 -226 l 803 -226 q 801 -228 803 -228 l 794 -226 l 794 -224 l 808 -224 l 815 -219 l 808 -215 l 794 -217 l 794 -214 l 801 -211 q 804 -212 803 -211 l 807 -212 l 785 -199 l 786 -197 l 808 -210 q 807 -207 808 -207 l 806 -206 l 804 -206 l 803 -199 l 806 -199 l 811 -210 l 818 -214 l 818 -206 l 811 -194 l 813 -193 l 818 -199 l 818 -200 q 819 -203 818 -203 l 819 -176 l 822 -176 l 824 -203 q 825 -200 825 -201 q 824 -199 824 -199 l 831 -193 l 832 -194 l 824 -206 l 824 -212 l 831 -210 l 835 -197 l 839 -199 l 838 -206 l 856 -194 l 857 -199 l 836 -211 q 839 -211 836 -211 l 840 -210 l 847 -212 l 847 -215 l 835 -214 l 828 -219 l 835 -224 l 847 -221 l 849 -224 l 840 -226 m 82 300 l 79 300 l 99 289 l 97 288 l 76 299 l 76 296 l 78 296 l 79 294 l 82 288 l 78 288 l 74 299 l 65 303 l 65 293 l 74 285 l 72 282 l 65 288 l 65 292 l 64 267 l 61 267 l 61 292 q 60 288 60 290 l 54 282 l 53 285 l 60 293 l 60 301 l 53 299 l 49 286 l 46 288 l 46 294 l 29 285 l 28 288 l 47 300 l 44 300 q 43 299 44 299 l 36 300 l 36 303 l 50 303 l 57 307 l 50 311 l 36 310 l 36 313 l 43 315 q 46 314 44 315 l 49 314 l 26 328 l 28 329 l 50 317 q 49 319 50 319 l 47 321 l 46 321 l 44 328 l 47 328 l 53 317 l 60 313 l 60 321 l 53 332 l 54 333 l 60 328 l 60 326 q 61 324 60 324 l 61 350 l 64 350 l 65 324 q 67 326 67 325 q 65 328 65 328 l 72 333 l 74 332 l 65 321 l 65 314 l 72 317 l 76 329 l 81 328 l 79 321 l 97 332 l 99 328 l 78 315 q 81 315 78 315 l 82 317 l 89 314 l 89 311 l 76 313 l 69 307 l 76 303 l 89 306 l 90 303 l 82 300 m 160 -287 l 178 -303 l 175 -279 l 160 -272 l 160 -287 m 135 -226 l 139 -250 l 151 -256 l 153 -240 l 135 -226 m 136 -301 l 153 -287 l 151 -272 l 139 -279 l 136 -301 m 160 -256 l 174 -249 l 176 -228 l 160 -240 l 160 -256 m 49 294 q 50 297 50 296 l 46 294 l 49 294 m 807 -232 q 808 -229 808 -231 l 804 -232 l 807 -232 m 179 -251 q 185 -251 182 -254 l 185 -250 l 183 -251 l 179 -251 m 76 321 q 75 318 76 319 l 79 321 l 76 321 m 835 -206 l 838 -206 l 835 -206 z "},"X":{"ha":1061,"x_min":10,"x_max":1435,"o":"m 742 782 q 699 832 724 810 q 644 865 674 854 q 568 879 607 879 q 494 867 529 879 q 431 830 460 854 q 385 771 403 806 q 365 715 372 746 q 359 652 357 683 q 374 595 361 621 q 417 556 388 569 q 474 553 444 544 q 519 585 504 561 q 535 619 531 600 q 539 658 540 639 q 593 655 571 669 q 618 604 615 640 q 595 531 619 561 q 535 485 571 500 q 458 472 499 471 q 389 492 418 472 q 341 540 358 510 q 316 604 324 569 q 310 675 308 639 q 318 743 311 711 q 367 847 332 801 q 450 919 401 892 q 556 958 499 947 q 669 956 613 968 q 750 928 713 947 q 819 881 788 908 l 986 960 l 1011 917 q 955 831 978 879 q 917 728 932 782 q 894 615 901 674 q 882 501 886 557 q 969 629 925 564 q 1063 754 1014 694 q 1168 865 1113 814 q 1290 953 1224 917 q 1347 969 1318 968 q 1394 961 1375 971 q 1426 924 1418 949 q 1421 881 1435 900 q 1359 876 1393 890 q 1292 838 1325 863 q 1230 787 1258 814 q 1185 743 1201 760 q 1029 581 1103 665 q 878 407 956 497 q 877 394 878 400 q 876 381 876 388 q 938 358 904 368 q 1006 345 972 349 q 1072 346 1040 342 q 1128 367 1104 350 l 1151 325 q 1092 299 1126 306 q 1019 294 1057 293 q 944 302 982 296 q 875 314 906 308 q 879 192 875 258 q 902 67 883 126 q 957 -37 921 7 q 1057 -94 993 -82 q 1035 -140 1054 -126 q 991 -155 1017 -154 q 938 -144 965 -156 q 889 -111 910 -132 q 827 -27 851 -72 q 788 66 803 18 q 765 163 772 114 q 753 258 757 213 q 634 126 696 192 q 504 5 572 60 q 362 -89 436 -50 q 208 -137 288 -128 q 89 -114 140 -144 q 22 -15 38 -83 q 20 97 10 43 q 53 194 31 150 q 185 332 100 289 q 259 358 219 350 q 335 362 299 367 q 399 335 371 357 q 440 272 428 314 q 438 242 449 243 q 400 248 428 242 q 328 257 372 254 q 229 238 285 260 q 175 202 201 226 q 128 146 149 178 q 93 74 107 114 q 85 -7 79 33 q 126 -75 92 -54 q 204 -92 160 -96 q 358 -41 282 -85 q 503 65 433 3 q 636 197 574 126 q 749 329 699 268 l 749 336 q 626 331 685 344 q 521 260 568 318 q 496 278 504 268 q 485 300 488 289 q 482 320 482 311 q 482 335 482 329 q 511 401 486 375 q 574 439 536 428 q 657 446 611 450 q 749 421 703 442 q 761 534 751 474 q 787 654 771 594 q 826 769 803 714 q 878 865 849 824 l 742 782 m 711 -169 q 716 -177 714 -172 q 715 -186 718 -182 q 699 -190 710 -196 q 694 -185 696 -189 q 693 -178 693 -181 l 667 -162 q 664 -164 664 -164 q 668 -167 667 -167 l 688 -190 l 681 -192 l 661 -167 q 642 -178 654 -175 l 654 -207 l 650 -211 l 638 -183 q 639 -179 639 -182 l 639 -178 l 636 -178 l 636 -211 q 644 -222 644 -211 q 633 -235 644 -235 q 622 -222 622 -235 q 631 -211 622 -214 l 629 -178 l 626 -178 l 626 -179 q 628 -183 626 -182 l 615 -211 l 611 -207 l 624 -178 q 606 -168 617 -176 l 588 -193 l 581 -193 l 600 -167 l 603 -167 q 600 -164 603 -164 l 574 -179 q 569 -193 578 -187 q 553 -190 560 -200 q 557 -172 546 -181 q 571 -175 561 -169 l 597 -158 l 596 -156 q 593 -158 593 -156 l 563 -162 l 564 -157 l 594 -153 q 592 -139 592 -142 q 592 -133 592 -136 q 593 -128 593 -131 l 564 -125 l 563 -119 l 593 -122 q 594 -125 593 -125 q 596 -122 596 -122 l 567 -104 q 553 -106 560 -111 q 549 -90 542 -100 q 564 -86 554 -79 q 569 -100 572 -90 l 600 -115 l 600 -112 l 579 -89 l 585 -86 l 603 -111 q 622 -99 611 -103 l 611 -72 l 615 -68 l 628 -97 q 626 -99 626 -97 q 629 -97 628 -97 l 631 -64 q 622 -53 622 -62 q 633 -40 622 -40 q 644 -53 644 -40 q 636 -64 644 -62 l 636 -97 q 638 -98 638 -97 q 640 -99 639 -99 q 639 -97 639 -97 l 650 -68 l 654 -72 l 644 -99 q 653 -103 649 -101 q 661 -108 658 -106 l 678 -85 l 683 -86 l 667 -111 l 664 -111 q 667 -115 664 -114 l 694 -97 q 699 -82 692 -89 q 715 -86 710 -76 q 713 -103 724 -97 q 697 -101 703 -107 l 669 -121 q 671 -122 669 -122 l 672 -121 l 703 -117 l 701 -122 l 671 -128 q 672 -139 672 -131 q 672 -144 672 -142 q 671 -150 672 -147 l 701 -153 l 704 -160 l 672 -156 q 671 -153 672 -154 q 669 -156 669 -156 l 696 -172 q 711 -169 701 -164 m 194 581 q 200 563 204 563 q 188 574 197 560 l 172 561 l 190 551 l 188 547 l 164 557 l 151 547 l 164 538 l 189 547 l 190 544 l 174 533 q 171 535 171 535 l 168 535 l 186 524 q 197 538 196 538 q 193 518 201 533 q 185 507 189 511 q 179 504 182 503 q 180 510 179 506 q 185 521 181 514 l 167 532 q 168 528 167 528 l 169 528 l 169 507 l 164 504 l 146 514 l 146 515 q 144 518 146 518 l 144 497 q 156 497 151 497 q 161 493 161 496 q 143 489 161 489 q 125 493 125 489 q 140 497 125 497 l 140 518 q 138 515 138 518 q 139 514 138 514 l 121 504 l 119 506 l 117 506 l 117 526 l 118 526 q 119 531 119 528 l 101 518 q 107 503 111 506 q 93 517 103 501 q 86 535 83 529 q 99 522 92 535 l 117 535 q 114 533 115 535 q 111 532 113 533 l 94 542 l 96 546 l 121 538 l 133 547 l 121 556 l 96 546 l 96 550 l 111 560 q 114 558 113 558 q 119 558 114 558 q 115 560 117 558 l 96 571 q 90 562 93 565 q 83 560 86 558 q 84 565 82 560 q 90 578 86 571 q 97 589 93 585 q 103 592 100 593 q 97 575 106 589 l 117 564 q 121 560 121 561 q 118 565 121 565 q 115 567 117 567 l 117 586 l 119 588 l 121 589 l 139 581 l 138 578 q 140 574 138 574 l 140 599 q 125 604 125 601 q 143 608 125 608 q 161 604 161 608 q 156 601 161 601 q 144 599 151 600 l 144 576 q 143 574 143 574 q 147 578 147 574 l 146 578 l 146 581 l 164 589 l 165 588 l 167 588 l 168 568 l 165 568 q 164 563 163 564 l 167 565 l 186 576 q 181 593 178 590 q 194 581 182 594 m 181 -314 l 178 -314 l 197 -325 l 196 -326 l 175 -315 l 175 -318 l 176 -318 l 178 -319 l 181 -326 l 176 -326 l 172 -315 l 164 -311 l 164 -321 l 172 -329 l 171 -332 l 164 -326 l 163 -347 l 160 -347 l 160 -322 q 158 -326 158 -324 l 153 -332 l 151 -329 l 158 -321 l 158 -312 l 151 -315 l 147 -328 l 144 -326 l 144 -319 l 128 -329 l 126 -326 l 146 -314 l 143 -314 q 142 -315 143 -315 l 135 -314 l 135 -311 l 149 -311 l 156 -307 l 149 -303 l 135 -304 l 135 -301 l 142 -299 q 144 -300 143 -299 l 147 -300 l 125 -286 l 126 -285 l 149 -297 q 147 -294 149 -294 l 146 -293 l 144 -293 l 143 -286 l 146 -286 l 151 -297 l 158 -301 l 158 -293 l 151 -282 l 153 -281 l 158 -286 l 158 -287 q 160 -290 158 -290 l 160 -264 l 163 -264 l 164 -290 q 165 -287 165 -289 q 164 -286 164 -286 l 171 -281 l 172 -282 l 164 -293 l 164 -300 l 171 -297 l 175 -285 l 179 -286 l 178 -293 l 196 -282 l 197 -286 l 176 -299 q 179 -299 176 -299 l 181 -297 l 188 -300 l 188 -303 l 175 -301 l 168 -307 l 175 -311 l 188 -308 l 189 -311 l 181 -314 m 669 -139 q 668 -128 669 -131 l 658 -129 l 644 -139 l 660 -150 l 668 -150 q 669 -144 669 -147 q 669 -139 669 -142 m 596 -139 q 597 -153 596 -147 l 606 -150 l 619 -140 l 606 -129 l 597 -129 q 596 -139 596 -132 m 624 -101 q 606 -114 617 -103 l 611 -121 l 626 -128 l 628 -111 l 624 -101 m 642 -175 q 651 -170 646 -172 q 660 -164 656 -168 l 656 -158 l 639 -150 l 638 -168 l 642 -175 m 658 -112 q 651 -106 656 -110 q 642 -103 647 -103 l 638 -111 l 639 -128 l 654 -119 l 658 -112 m 146 524 l 164 508 l 161 532 l 146 539 l 146 524 m 607 -165 q 615 -170 610 -168 q 625 -175 621 -172 l 628 -168 l 626 -151 l 611 -158 l 607 -165 m 121 585 l 125 561 l 138 556 l 139 571 l 121 585 m 122 510 l 139 524 l 138 539 l 125 532 l 122 510 m 146 556 l 160 563 l 163 583 l 146 571 l 146 556 m 640 -101 l 636 -101 l 636 -107 q 640 -101 640 -103 m 603 -126 l 600 -124 q 597 -126 597 -125 q 603 -126 600 -128 m 658 -119 l 663 -117 l 660 -114 q 658 -119 658 -115 m 629 -107 l 629 -101 l 626 -101 q 629 -107 626 -104 m 606 -115 q 603 -117 603 -117 l 607 -119 q 606 -117 606 -118 l 606 -115 m 667 -125 l 667 -122 l 663 -125 l 667 -125 m 147 -319 q 149 -317 149 -318 l 144 -319 l 147 -319 m 165 560 q 171 560 168 557 l 171 561 l 169 560 l 165 560 m 661 -161 q 663 -160 663 -160 l 661 -160 l 661 -161 m 175 -293 l 178 -293 l 175 -293 m 665 -153 l 667 -154 l 667 -153 l 665 -153 m 606 -161 l 604 -161 l 606 -162 l 606 -161 z "},"Y":{"ha":833,"x_min":-6,"x_max":1135,"o":"m 447 782 q 404 831 429 810 q 349 865 379 853 q 273 879 311 879 q 200 866 235 879 q 137 828 165 853 q 90 771 108 804 q 65 691 72 738 q 74 607 58 644 q 103 569 85 583 q 144 552 122 556 q 187 556 165 549 q 225 585 208 564 q 241 619 236 600 q 243 658 246 639 q 299 655 276 669 q 324 604 321 640 q 316 557 325 579 q 290 517 307 535 q 253 488 274 500 q 210 472 232 476 q 107 484 149 463 q 42 546 65 506 q 15 639 19 586 q 24 743 10 692 q 74 847 39 801 q 158 920 110 892 q 262 958 206 949 q 375 956 318 968 q 459 925 419 946 q 533 875 499 904 l 757 960 l 781 917 q 707 862 747 892 q 626 797 667 832 q 550 722 586 761 q 489 640 514 682 q 453 555 464 599 q 454 468 443 511 q 501 397 469 413 q 568 389 532 381 q 639 421 604 397 q 696 469 674 444 q 744 617 718 539 q 806 763 771 694 q 885 885 840 832 q 989 958 931 938 q 1046 969 1018 968 q 1094 960 1074 969 q 1124 930 1114 950 q 1131 879 1135 910 q 1049 856 1086 879 q 981 794 1013 832 q 924 710 950 757 q 877 615 899 663 q 838 522 856 567 q 806 446 819 478 q 732 288 771 371 q 644 129 693 206 q 533 -10 596 53 q 389 -108 471 -74 q 312 -133 353 -124 q 231 -141 271 -142 q 152 -128 190 -140 q 83 -92 114 -117 q 35 -25 51 -62 q 15 52 18 13 q 22 132 13 92 q 50 206 31 172 q 102 272 71 243 q 172 318 133 300 q 253 341 211 336 q 338 333 296 346 q 393 299 369 324 q 419 242 417 274 q 413 209 424 211 q 379 214 403 207 q 316 228 356 221 q 222 225 276 236 q 169 201 196 219 q 124 154 143 182 q 97 104 107 132 q 85 48 88 76 q 92 -8 83 19 q 122 -54 101 -35 q 199 -92 156 -86 q 287 -87 242 -97 q 374 -56 332 -78 q 446 -8 417 -33 q 514 65 483 25 q 569 151 544 106 q 613 243 593 196 q 650 336 632 290 l 672 397 q 595 351 639 374 q 506 319 551 328 q 422 324 461 311 q 357 383 382 338 q 333 516 321 450 q 389 642 346 582 q 494 757 432 703 q 619 856 557 811 l 447 782 m 158 -224 q 164 -242 168 -242 q 151 -231 161 -244 l 136 -242 l 154 -253 l 151 -257 l 128 -247 l 115 -257 l 128 -267 l 153 -257 l 154 -260 l 138 -271 q 135 -269 135 -269 l 132 -269 l 150 -281 q 161 -267 160 -267 q 157 -286 165 -271 q 143 -300 146 -301 q 144 -294 143 -299 q 149 -283 144 -290 l 131 -272 q 132 -276 131 -276 l 133 -276 l 133 -297 l 128 -300 l 110 -290 l 110 -289 q 108 -286 110 -286 l 108 -307 q 120 -308 115 -307 q 125 -311 125 -308 q 107 -315 125 -315 q 89 -311 89 -315 q 104 -307 89 -307 l 104 -286 q 101 -289 101 -286 q 103 -290 101 -290 l 85 -300 l 83 -299 l 81 -299 l 81 -278 l 82 -278 q 83 -274 83 -276 l 65 -286 q 71 -301 75 -299 q 57 -287 67 -303 q 50 -269 47 -275 q 63 -282 56 -269 l 81 -269 q 78 -271 79 -269 q 75 -272 76 -271 l 58 -262 l 60 -258 l 85 -267 l 97 -257 l 85 -249 l 60 -258 l 60 -254 l 75 -244 q 78 -246 76 -246 q 83 -246 78 -246 q 79 -244 81 -246 l 60 -233 q 53 -242 57 -239 q 47 -244 50 -246 q 48 -239 46 -244 q 54 -226 50 -233 q 60 -215 57 -219 q 67 -212 64 -211 q 61 -229 69 -215 l 81 -240 q 85 -244 85 -243 q 82 -239 85 -239 q 79 -237 81 -237 l 81 -218 l 83 -217 l 85 -215 l 103 -224 l 101 -226 q 104 -231 101 -231 l 104 -206 q 89 -200 89 -203 q 107 -196 89 -196 q 125 -200 125 -196 q 120 -203 125 -203 q 108 -206 115 -204 l 108 -228 q 107 -231 107 -231 q 111 -226 111 -231 l 110 -226 l 110 -224 l 128 -215 l 129 -217 l 131 -217 l 132 -236 l 129 -236 q 128 -242 126 -240 l 131 -239 l 150 -228 q 144 -211 142 -214 q 158 -224 146 -210 m 50 357 l 47 357 l 67 346 l 65 344 l 44 356 l 44 353 l 46 353 l 47 351 l 50 344 l 46 344 l 42 356 l 33 360 l 33 350 l 42 342 l 40 339 l 33 344 l 32 324 l 29 324 l 29 349 q 28 344 28 347 l 22 339 l 21 342 l 28 350 l 28 358 l 21 356 l 17 343 l 14 344 l 14 351 l -3 342 l -4 344 l 15 357 l 13 357 q 11 356 13 356 l 4 357 l 4 360 l 18 360 l 25 364 l 18 368 l 4 367 l 4 369 l 11 372 q 14 371 13 372 l 17 371 l -6 385 l -4 386 l 18 374 q 17 376 18 376 l 15 378 l 14 378 l 13 385 l 15 385 l 21 374 l 28 369 l 28 378 l 21 389 l 22 390 l 28 385 l 28 383 q 29 381 28 381 l 29 407 l 32 407 l 33 381 q 35 383 35 382 q 33 385 33 385 l 40 390 l 42 389 l 33 378 l 33 371 l 40 374 l 44 386 l 49 385 l 47 378 l 65 389 l 67 385 l 46 372 q 49 372 46 372 l 50 374 l 57 371 l 57 368 l 44 369 l 38 364 l 44 360 l 57 363 l 58 360 l 50 357 m 589 -193 l 586 -193 l 606 -204 l 604 -206 l 583 -194 l 583 -197 l 585 -197 l 586 -199 l 589 -206 l 585 -206 l 581 -194 l 572 -190 l 572 -200 l 581 -208 l 579 -211 l 572 -206 l 571 -226 l 568 -226 l 568 -201 q 567 -206 567 -203 l 561 -211 l 560 -208 l 567 -200 l 567 -192 l 560 -194 l 556 -207 l 553 -206 l 553 -199 l 536 -208 l 535 -206 l 554 -193 l 551 -193 q 550 -194 551 -194 l 543 -193 l 543 -190 l 557 -190 l 564 -186 l 557 -182 l 543 -183 l 543 -181 l 550 -178 q 553 -179 551 -178 l 556 -179 l 533 -165 l 535 -164 l 557 -176 q 556 -174 557 -174 l 554 -172 l 553 -172 l 551 -165 l 554 -165 l 560 -176 l 567 -181 l 567 -172 l 560 -161 l 561 -160 l 567 -165 l 567 -167 q 568 -169 567 -169 l 568 -143 l 571 -143 l 572 -169 q 574 -167 574 -168 q 572 -165 572 -165 l 579 -160 l 581 -161 l 572 -172 l 572 -179 l 579 -176 l 583 -164 l 588 -165 l 586 -172 l 604 -161 l 606 -165 l 585 -178 q 588 -178 585 -178 l 589 -176 l 596 -179 l 596 -182 l 583 -181 l 576 -186 l 583 -190 l 596 -187 l 597 -190 l 589 -193 m 110 -281 l 128 -296 l 125 -272 l 110 -265 l 110 -281 m 85 -219 l 89 -243 l 101 -249 l 103 -233 l 85 -219 m 86 -294 l 103 -281 l 101 -265 l 89 -272 l 86 -294 m 110 -249 l 124 -242 l 126 -221 l 110 -233 l 110 -249 m 556 -199 q 557 -196 557 -197 l 553 -199 l 556 -199 m 17 351 q 18 354 18 353 l 14 351 l 17 351 m 129 -244 q 135 -244 132 -247 l 135 -243 l 133 -244 l 129 -244 m 44 378 q 43 375 44 376 l 47 378 l 44 378 m 583 -172 l 586 -172 l 583 -172 z "},"Z":{"ha":811,"x_min":14,"x_max":1200,"o":"m 14 26 q 65 33 40 31 q 115 33 90 35 q 218 74 168 44 q 313 140 268 104 q 450 274 388 201 q 574 422 513 347 q 638 505 603 458 q 713 601 672 551 q 797 698 753 650 q 889 783 840 746 q 858 794 872 789 q 833 806 844 800 q 744 847 789 825 q 653 882 699 869 q 560 892 607 894 q 464 861 513 890 q 425 828 443 849 q 397 783 407 807 q 384 732 386 758 q 392 681 382 706 q 415 646 400 660 q 450 626 431 632 q 490 621 469 619 q 531 629 511 622 q 552 642 540 633 q 574 660 564 650 q 589 684 583 671 q 592 710 594 697 q 630 703 615 713 q 652 678 644 694 q 660 643 660 663 q 653 606 660 624 q 622 563 644 582 q 568 535 599 544 q 496 530 531 524 q 432 554 461 536 q 381 600 403 572 q 347 661 358 628 q 335 761 329 714 q 363 847 340 808 q 422 917 386 886 q 502 966 458 947 q 593 991 546 985 q 685 989 640 997 q 760 964 726 981 q 828 926 794 947 q 898 881 863 904 q 978 839 933 858 q 1028 858 999 849 q 1089 873 1058 868 q 1146 874 1119 878 q 1185 854 1172 871 q 1197 811 1200 833 q 1173 773 1194 789 q 1110 750 1151 757 q 1008 753 1069 743 q 949 690 976 724 q 897 626 921 656 q 771 467 832 547 q 643 308 710 386 q 565 222 607 267 q 476 135 522 176 q 377 61 429 94 q 269 7 325 28 q 408 -40 339 -12 q 547 -89 476 -67 q 688 -122 617 -111 q 836 -122 760 -133 q 851 -162 850 -142 q 842 -201 851 -183 q 817 -235 833 -219 q 782 -258 801 -250 q 711 -272 750 -272 q 634 -264 672 -272 q 559 -241 596 -256 q 494 -211 522 -226 q 405 -156 449 -186 q 317 -99 361 -126 q 226 -50 272 -72 q 128 -17 179 -28 q 72 -11 96 -10 q 21 -21 47 -12 l 14 26 m 313 407 q 317 399 315 404 q 317 390 319 394 q 300 386 311 381 q 296 392 297 388 q 294 399 294 396 l 268 414 q 265 413 265 413 q 269 410 268 410 l 289 386 l 282 385 l 263 410 q 243 399 256 401 l 256 369 l 251 365 l 239 393 q 240 397 240 394 l 240 399 l 238 399 l 238 365 q 246 354 246 365 q 235 342 246 342 q 224 354 224 342 q 232 365 224 363 l 231 399 l 228 399 l 228 397 q 229 393 228 394 l 217 365 l 213 369 l 225 399 q 207 408 218 400 l 189 383 l 182 383 l 201 410 l 204 410 q 201 413 204 413 l 175 397 q 171 383 179 389 q 154 386 161 376 q 158 404 147 396 q 172 401 163 407 l 199 418 l 197 421 q 194 418 194 421 l 164 414 l 165 419 l 196 424 q 193 438 193 435 q 194 443 193 440 q 194 449 194 446 l 165 451 l 164 457 l 194 454 q 196 451 194 451 q 197 454 197 454 l 168 472 q 154 471 161 465 q 150 486 143 476 q 165 490 156 497 q 171 476 174 486 l 201 461 l 201 464 l 181 488 l 186 490 l 204 465 q 224 478 213 474 l 213 504 l 217 508 l 229 479 q 228 478 228 479 q 231 479 229 479 l 232 513 q 224 524 224 514 q 235 536 224 536 q 246 524 246 536 q 238 513 246 514 l 238 479 q 240 478 239 479 q 242 478 240 478 q 240 479 240 479 l 251 508 l 256 504 l 246 478 q 255 473 250 475 q 263 468 260 471 l 279 492 l 285 490 l 268 465 l 265 465 q 268 461 265 463 l 296 479 q 300 494 293 488 q 317 490 311 500 q 314 474 325 479 q 299 475 304 469 l 271 456 q 272 454 271 454 l 274 456 l 304 460 l 303 454 l 272 449 q 274 438 274 446 q 274 432 274 435 q 272 426 274 429 l 303 424 l 306 417 l 274 421 q 272 424 274 422 q 271 421 271 421 l 297 404 q 313 407 303 413 m 219 -261 q 225 -279 229 -279 q 213 -268 222 -282 l 197 -279 l 215 -290 l 213 -294 l 189 -285 l 176 -294 l 189 -304 l 214 -294 l 215 -297 l 199 -308 q 196 -307 196 -307 l 193 -307 l 211 -318 q 222 -304 221 -304 q 218 -324 226 -308 q 204 -337 207 -339 q 205 -332 204 -336 q 210 -321 206 -328 l 192 -310 q 193 -314 192 -314 l 194 -314 l 194 -335 l 189 -337 l 171 -328 l 171 -326 q 169 -324 171 -324 l 169 -344 q 181 -345 176 -344 q 186 -349 186 -346 q 168 -353 186 -353 q 150 -349 150 -353 q 165 -344 150 -344 l 165 -324 q 163 -326 163 -324 q 164 -328 163 -328 l 146 -337 l 144 -336 l 142 -336 l 142 -315 l 143 -315 q 144 -311 144 -314 l 126 -324 q 132 -339 136 -336 q 118 -325 128 -340 q 111 -307 108 -312 q 124 -319 117 -307 l 142 -307 q 139 -308 140 -307 q 136 -310 138 -308 l 119 -300 l 121 -296 l 146 -304 l 158 -294 l 146 -286 l 121 -296 l 121 -292 l 136 -282 q 139 -283 138 -283 q 144 -283 139 -283 q 140 -282 142 -283 l 121 -271 q 115 -280 118 -276 q 108 -282 111 -283 q 109 -276 107 -282 q 115 -264 111 -271 q 122 -253 118 -257 q 128 -250 125 -249 q 122 -267 131 -253 l 142 -278 q 146 -282 146 -281 q 143 -276 146 -276 q 140 -275 142 -275 l 142 -256 l 144 -254 l 146 -253 l 164 -261 l 163 -264 q 165 -268 163 -268 l 165 -243 q 150 -237 150 -240 q 168 -233 150 -233 q 186 -237 186 -233 q 181 -241 186 -240 q 169 -243 176 -242 l 169 -265 q 168 -268 168 -268 q 172 -264 172 -268 l 171 -264 l 171 -261 l 189 -253 l 190 -254 l 192 -254 l 193 -274 l 190 -274 q 189 -279 188 -278 l 192 -276 l 211 -265 q 206 -249 203 -251 q 219 -261 207 -247 m 1082 804 q 1126 806 1104 801 q 1146 821 1147 810 q 1137 826 1144 826 q 1119 822 1129 826 q 1098 813 1108 818 q 1082 804 1088 807 m 271 438 q 269 449 271 446 l 260 447 l 246 438 l 261 426 l 269 426 q 271 432 271 429 q 271 438 271 435 m 197 438 q 199 424 197 429 l 207 426 l 221 436 l 207 447 l 199 447 q 197 438 197 444 m 225 475 q 207 463 218 474 l 213 456 l 228 449 l 229 465 l 225 475 m 243 401 q 252 406 247 404 q 261 413 257 408 l 257 418 l 240 426 l 239 408 l 243 401 m 260 464 q 253 470 257 467 q 243 474 249 474 l 239 465 l 240 449 l 256 457 l 260 464 m 171 -318 l 189 -333 l 186 -310 l 171 -303 l 171 -318 m 208 411 q 217 406 211 408 q 226 401 222 404 l 229 408 l 228 425 l 213 418 l 208 411 m 146 -257 l 150 -281 l 163 -286 l 164 -271 l 146 -257 m 147 -332 l 164 -318 l 163 -303 l 150 -310 l 147 -332 m 171 -286 l 185 -279 l 188 -258 l 171 -271 l 171 -286 m 242 475 l 238 475 l 238 469 q 242 475 242 474 m 204 450 l 201 453 q 199 450 199 451 q 204 450 201 449 m 260 457 l 264 460 l 261 463 q 260 457 260 461 m 231 469 l 231 475 l 228 475 q 231 469 228 472 m 207 461 q 204 460 204 460 l 208 457 q 207 460 207 458 l 207 461 m 268 451 l 268 454 l 264 451 l 268 451 m 190 -282 q 196 -282 193 -285 l 196 -281 l 194 -282 l 190 -282 m 263 415 q 264 417 264 417 l 263 417 l 263 415 m 207 415 l 206 415 l 207 414 l 207 415 m 267 424 l 268 422 l 268 424 l 267 424 z "},"":{"ha":1028,"x_min":13,"x_max":1031,"o":"m 485 507 q 525 479 514 497 q 533 440 536 461 q 514 400 529 419 q 476 368 499 381 q 414 354 447 353 q 352 369 381 356 q 302 408 324 383 q 275 461 281 432 q 275 567 263 519 q 317 650 288 614 q 389 712 347 686 q 477 754 431 738 q 570 779 524 771 q 656 789 617 788 q 803 771 733 792 q 844 831 822 800 q 891 887 867 861 q 941 931 915 913 q 993 958 967 950 l 1019 918 q 980 892 999 911 q 944 848 961 874 q 913 792 928 822 q 886 735 899 763 q 958 676 926 711 q 1010 592 990 640 q 1030 491 1029 543 q 1018 392 1031 439 q 957 265 1000 318 q 856 178 914 211 q 731 133 799 146 q 594 132 663 121 q 498 1 551 61 q 369 -97 444 -58 q 294 -128 336 -115 q 208 -141 251 -140 q 126 -129 165 -142 q 57 -83 86 -117 q 22 -18 32 -54 q 14 56 13 18 q 27 131 15 94 q 57 197 39 168 q 107 258 76 231 q 174 302 138 285 q 251 324 211 319 q 329 319 290 329 q 384 287 361 311 q 411 231 407 263 q 406 194 415 197 q 372 199 396 192 q 311 215 349 207 q 221 211 274 224 q 160 183 188 203 q 112 135 132 163 q 81 76 92 108 q 71 14 69 44 q 99 -54 72 -33 q 165 -78 126 -75 q 242 -67 203 -81 q 308 -32 282 -54 q 422 91 371 21 q 524 249 474 161 q 627 443 574 336 q 747 676 681 550 q 656 705 704 696 q 560 710 608 714 q 469 692 513 707 q 390 647 425 676 q 351 599 367 626 q 333 546 336 572 q 341 505 332 522 q 366 476 350 488 q 401 460 382 464 q 439 464 421 457 q 466 482 454 471 q 485 507 478 493 m 619 175 q 682 171 651 171 q 749 186 713 171 q 822 234 789 203 q 878 304 856 265 q 910 388 900 343 q 913 475 919 432 q 833 619 899 561 q 738 407 786 515 q 619 175 690 299 m 772 -133 q 777 -141 775 -136 q 776 -150 779 -146 q 760 -154 771 -160 q 756 -149 757 -153 q 754 -142 754 -144 l 728 -126 q 725 -128 725 -128 q 729 -131 728 -131 l 749 -154 l 742 -156 l 722 -131 q 703 -142 715 -139 l 715 -171 l 711 -175 l 699 -147 q 700 -143 700 -146 l 700 -142 l 697 -142 l 697 -175 q 706 -186 706 -175 q 694 -199 706 -199 q 683 -186 683 -199 q 692 -175 683 -178 l 690 -142 l 688 -142 l 688 -143 q 689 -147 688 -146 l 676 -175 l 672 -171 l 685 -142 q 667 -132 678 -140 l 649 -157 l 642 -157 l 661 -131 l 664 -131 q 661 -128 664 -128 l 635 -143 q 631 -157 639 -151 q 614 -154 621 -164 q 618 -136 607 -144 q 632 -139 622 -133 l 658 -122 l 657 -119 q 654 -122 654 -119 l 624 -126 l 625 -121 l 656 -117 q 653 -103 653 -106 q 653 -97 653 -100 q 654 -92 654 -94 l 625 -89 l 624 -83 l 654 -86 q 656 -89 654 -89 q 657 -86 657 -86 l 628 -68 q 614 -69 621 -75 q 610 -54 603 -64 q 625 -50 615 -43 q 631 -64 633 -54 l 661 -79 l 661 -76 l 640 -53 l 646 -50 l 664 -75 q 683 -62 672 -67 l 672 -36 l 676 -32 l 689 -61 q 688 -62 688 -61 q 690 -61 689 -61 l 692 -28 q 683 -17 683 -26 q 694 -4 683 -4 q 706 -17 706 -4 q 697 -28 706 -26 l 697 -61 q 699 -62 699 -61 q 701 -62 700 -62 q 700 -61 700 -61 l 711 -32 l 715 -36 l 706 -62 q 715 -67 710 -65 q 722 -72 719 -69 l 739 -49 l 744 -50 l 728 -75 l 725 -75 q 728 -79 725 -78 l 756 -61 q 760 -46 753 -53 q 776 -50 771 -40 q 774 -67 785 -61 q 758 -65 764 -71 l 731 -85 q 732 -86 731 -86 l 733 -85 l 764 -81 l 763 -86 l 732 -92 q 733 -103 733 -94 q 733 -108 733 -106 q 732 -114 733 -111 l 763 -117 l 765 -124 l 733 -119 q 732 -117 733 -118 q 731 -119 731 -119 l 757 -136 q 772 -133 763 -128 m 203 563 q 208 544 213 544 q 196 556 206 542 l 181 543 l 199 533 l 196 529 l 172 539 l 160 529 l 172 519 l 197 529 l 199 526 l 182 515 q 179 517 179 517 l 176 517 l 194 506 q 206 519 204 519 q 201 500 210 515 q 194 489 197 493 q 188 486 190 485 q 188 492 188 488 q 193 503 189 496 l 175 514 q 176 510 175 510 l 178 510 l 178 489 l 172 486 l 154 496 l 154 497 q 153 500 154 500 l 153 479 q 165 478 160 479 q 169 475 169 478 q 151 471 169 471 q 133 475 133 471 q 149 479 133 479 l 149 500 q 146 497 146 500 q 147 496 146 496 l 129 486 l 128 488 l 125 488 l 125 508 l 126 508 q 128 513 128 510 l 110 500 q 115 485 119 488 q 101 499 111 483 q 94 517 92 511 q 107 504 100 517 l 125 517 q 122 515 124 517 q 119 514 121 515 l 103 524 l 104 528 l 129 519 l 142 529 l 129 538 l 104 528 l 104 532 l 119 542 q 122 540 121 540 q 128 540 122 540 q 124 542 125 540 l 104 553 q 98 544 101 547 q 92 542 94 540 q 92 547 90 542 q 99 560 94 553 q 105 571 101 567 q 111 574 108 575 q 106 557 114 571 l 125 546 q 129 542 129 543 q 126 547 129 547 q 124 549 125 549 l 125 568 l 128 569 l 129 571 l 147 563 l 146 560 q 149 556 146 556 l 149 581 q 133 586 133 583 q 151 590 133 590 q 169 586 169 590 q 165 583 169 583 q 153 581 160 582 l 153 558 q 151 556 151 556 q 156 560 156 556 l 154 560 l 154 563 l 172 571 l 174 569 l 175 569 l 176 550 l 174 550 q 172 544 171 546 l 175 547 l 194 558 q 189 575 186 572 q 203 563 190 576 m 139 -300 l 136 -300 l 156 -311 l 154 -312 l 133 -301 l 133 -304 l 135 -304 l 136 -306 l 139 -312 l 135 -312 l 131 -301 l 122 -297 l 122 -307 l 131 -315 l 129 -318 l 122 -312 l 121 -333 l 118 -333 l 118 -308 q 117 -312 117 -310 l 111 -318 l 110 -315 l 117 -307 l 117 -299 l 110 -301 l 106 -314 l 103 -312 l 103 -306 l 86 -315 l 85 -312 l 104 -300 l 101 -300 q 100 -301 101 -301 l 93 -300 l 93 -297 l 107 -297 l 114 -293 l 107 -289 l 93 -290 l 93 -287 l 100 -285 q 103 -286 101 -285 l 106 -286 l 83 -272 l 85 -271 l 107 -283 q 106 -281 107 -281 l 104 -279 l 103 -279 l 101 -272 l 104 -272 l 110 -283 l 117 -287 l 117 -279 l 110 -268 l 111 -267 l 117 -272 l 117 -274 q 118 -276 117 -276 l 118 -250 l 121 -250 l 122 -276 q 124 -274 124 -275 q 122 -272 122 -272 l 129 -267 l 131 -268 l 122 -279 l 122 -286 l 129 -283 l 133 -271 l 138 -272 l 136 -279 l 154 -268 l 156 -272 l 135 -285 q 138 -285 135 -285 l 139 -283 l 146 -286 l 146 -289 l 133 -287 l 126 -293 l 133 -297 l 146 -294 l 147 -297 l 139 -300 m 731 -103 q 729 -92 731 -94 l 719 -93 l 706 -103 l 721 -114 l 729 -114 q 731 -108 731 -111 q 731 -103 731 -106 m 657 -103 q 658 -117 657 -111 l 667 -114 l 681 -104 l 667 -93 l 658 -93 q 657 -103 657 -96 m 685 -65 q 667 -78 678 -67 l 672 -85 l 688 -92 l 689 -75 l 685 -65 m 703 -139 q 712 -134 707 -136 q 721 -128 717 -132 l 717 -122 l 700 -114 l 699 -132 l 703 -139 m 719 -76 q 713 -70 717 -74 q 703 -67 708 -67 l 699 -75 l 700 -92 l 715 -83 l 719 -76 m 154 506 l 172 490 l 169 514 l 154 521 l 154 506 m 668 -129 q 676 -134 671 -132 q 686 -139 682 -136 l 689 -132 l 688 -115 l 672 -122 l 668 -129 m 129 567 l 133 543 l 146 538 l 147 553 l 129 567 m 131 492 l 147 506 l 146 521 l 133 514 l 131 492 m 154 538 l 168 544 l 171 565 l 154 553 l 154 538 m 701 -65 l 697 -65 l 697 -71 q 701 -65 701 -67 m 719 -83 l 724 -81 l 721 -78 q 719 -83 719 -79 m 664 -90 l 661 -87 q 658 -90 658 -89 q 664 -90 661 -92 m 690 -71 l 690 -65 l 688 -65 q 690 -71 688 -68 m 667 -79 q 664 -81 664 -81 l 668 -83 q 667 -81 667 -82 l 667 -79 m 728 -89 l 728 -86 l 724 -89 l 728 -89 m 106 -306 q 107 -303 107 -304 l 103 -306 l 106 -306 m 174 542 q 179 542 176 539 l 179 543 l 178 542 l 174 542 m 722 -125 q 724 -124 724 -124 l 722 -124 l 722 -125 m 133 -279 l 136 -279 l 133 -279 m 726 -117 l 728 -118 l 728 -117 l 726 -117 m 667 -125 l 665 -125 l 667 -126 l 667 -125 z "},"b":{"ha":393,"x_min":-25,"x_max":553,"o":"m 521 438 l 539 400 q 498 378 522 389 q 448 357 474 367 q 395 340 422 347 q 346 326 368 332 q 291 194 328 257 q 208 84 254 131 q 115 15 163 38 q 29 6 68 -7 q -10 45 4 13 q -22 136 -25 78 q 7 279 -18 194 q 88 476 32 364 q 210 699 150 601 q 326 860 271 797 q 426 949 381 924 q 504 956 472 975 q 508 807 553 926 q 315 499 463 688 q 343 484 333 496 q 358 455 353 472 q 362 417 363 438 q 358 378 361 397 q 406 392 381 383 q 452 408 431 400 q 492 424 474 417 q 521 438 510 432 m 89 78 q 119 86 100 74 q 162 129 139 99 q 209 209 185 160 q 253 328 233 258 q 231 353 238 338 q 222 386 224 368 q 106 257 168 324 q 83 197 93 226 q 71 142 74 167 q 72 101 68 118 q 89 78 76 83 m 464 847 q 433 825 458 851 q 368 746 407 799 q 281 615 329 693 q 182 436 232 536 l 151 374 q 277 534 217 453 q 383 683 338 615 q 451 795 428 750 q 464 847 474 840 m 247 -49 q 253 -67 257 -67 q 240 -56 250 -69 l 225 -67 l 243 -78 l 240 -82 l 217 -72 l 204 -82 l 217 -92 l 242 -82 l 243 -85 l 226 -96 q 224 -94 224 -94 l 221 -94 l 239 -106 q 250 -92 249 -92 q 246 -111 254 -96 q 238 -122 242 -118 q 232 -125 235 -126 q 233 -119 232 -124 q 238 -108 233 -115 l 219 -97 q 221 -101 219 -101 l 222 -101 l 222 -122 l 217 -125 l 199 -115 l 199 -114 q 197 -111 199 -111 l 197 -132 q 209 -133 204 -132 q 214 -136 214 -133 q 196 -140 214 -140 q 178 -136 178 -140 q 193 -132 178 -132 l 193 -111 q 190 -114 190 -111 q 192 -115 190 -115 l 174 -125 l 172 -124 l 169 -124 l 169 -103 l 171 -103 q 172 -99 172 -101 l 154 -111 q 160 -126 164 -124 q 146 -112 156 -128 q 139 -94 136 -100 q 151 -107 144 -94 l 169 -94 q 167 -96 168 -94 q 164 -97 165 -96 l 147 -87 l 149 -83 l 174 -92 l 186 -82 l 174 -74 l 149 -83 l 149 -79 l 164 -69 q 167 -71 165 -71 q 172 -71 167 -71 q 168 -69 169 -71 l 149 -58 q 142 -67 146 -64 q 136 -69 139 -71 q 137 -64 135 -69 q 143 -51 139 -58 q 149 -40 146 -44 q 156 -37 153 -36 q 150 -54 158 -40 l 169 -65 l 174 -68 q 171 -64 174 -64 q 168 -62 169 -62 l 169 -43 l 172 -42 l 174 -40 l 192 -49 l 190 -51 q 193 -56 190 -56 l 193 -31 q 178 -25 178 -28 q 196 -21 178 -21 q 214 -25 214 -21 q 209 -28 214 -28 q 197 -31 204 -29 l 197 -53 q 196 -56 196 -56 q 200 -51 200 -56 l 199 -51 l 199 -49 l 217 -40 l 218 -42 l 219 -42 l 221 -61 l 218 -61 q 217 -67 215 -65 l 219 -64 l 239 -53 q 233 -36 231 -39 q 247 -49 235 -35 m 151 775 l 149 775 l 168 764 l 167 763 l 146 774 l 146 771 l 147 771 l 149 769 l 151 763 l 147 763 l 143 774 l 135 778 l 135 768 l 143 760 l 142 757 l 135 763 l 133 742 l 131 742 l 131 767 q 129 763 129 765 l 124 757 l 122 760 l 129 768 l 129 776 l 122 774 l 118 761 l 115 763 l 115 769 l 99 760 l 97 763 l 117 775 l 114 775 q 113 774 114 774 l 106 775 l 106 778 l 119 778 l 126 782 l 119 786 l 106 785 l 106 788 l 113 790 q 115 789 114 790 l 118 789 l 96 803 l 97 804 l 119 792 q 118 794 119 794 l 117 796 l 115 796 l 114 803 l 117 803 l 122 792 l 129 788 l 129 796 l 122 807 l 124 808 l 129 803 l 129 801 q 131 799 129 799 l 131 825 l 133 825 l 135 799 q 136 801 136 800 q 135 803 135 803 l 142 808 l 143 807 l 135 796 l 135 789 l 142 792 l 146 804 l 150 803 l 149 796 l 167 807 l 168 803 l 147 790 q 150 790 147 790 l 151 792 l 158 789 l 158 786 l 146 788 l 139 782 l 146 778 l 158 781 l 160 778 l 151 775 m 199 -106 l 217 -121 l 214 -97 l 199 -90 l 199 -106 m 174 -44 l 178 -68 l 190 -74 l 192 -58 l 174 -44 m 175 -119 l 192 -106 l 190 -90 l 178 -97 l 175 -119 m 199 -74 l 213 -67 l 215 -46 l 199 -58 l 199 -74 m 118 769 q 119 772 119 771 l 115 769 l 118 769 m 218 -69 q 224 -69 221 -72 l 224 -68 l 222 -69 l 218 -69 m 146 796 q 144 793 146 794 l 149 796 l 146 796 z "},"":{"ha":239,"x_min":7,"x_max":232,"o":"m 147 760 q 210 731 189 760 q 221 660 232 701 q 172 587 210 617 q 93 557 135 557 q 28 587 50 557 q 18 660 7 617 q 37 699 24 681 q 67 731 50 717 q 106 752 85 744 q 147 760 126 760 m 172 660 q 167 696 178 681 q 133 711 156 711 q 93 696 113 711 q 68 660 74 681 q 73 622 61 638 q 106 607 85 607 q 147 622 128 607 q 172 660 165 638 z "},"":{"ha":331,"x_min":15,"x_max":321,"o":"m 204 36 l 269 36 l 197 -50 q 248 -42 222 -40 q 292 -55 274 -43 q 315 -90 310 -67 q 306 -143 321 -112 q 278 -181 296 -162 q 236 -212 260 -199 q 183 -235 213 -226 q 121 -242 154 -243 q 76 -233 96 -240 q 42 -213 56 -225 q 22 -187 29 -201 q 15 -161 15 -174 l 61 -140 q 91 -180 68 -168 q 136 -185 114 -192 q 175 -161 160 -179 q 196 -126 190 -143 q 194 -95 201 -108 q 167 -86 188 -82 l 114 -108 l 93 -79 l 204 36 z "},"":{"ha":388,"x_min":10,"x_max":374,"o":"m 374 36 q 285 -14 332 8 q 202 -57 239 -36 q 145 -99 165 -78 q 136 -142 125 -119 q 162 -162 144 -158 q 199 -162 179 -167 q 234 -147 218 -157 q 257 -124 250 -136 l 293 -160 q 261 -196 283 -179 q 210 -224 239 -212 q 151 -239 182 -235 q 92 -238 119 -243 q 44 -217 65 -233 q 17 -172 24 -201 q 22 -120 10 -143 q 58 -78 33 -97 q 118 -44 83 -60 q 191 -11 153 -28 q 269 25 229 6 q 343 69 308 44 l 374 36 z "},"":{"ha":265,"x_min":14,"x_max":251,"o":"m 251 744 l 251 596 l 200 596 l 200 665 l 39 596 l 14 633 l 201 763 l 251 744 z "},"":{"ha":265,"x_min":14,"x_max":251,"o":"m 14 613 l 14 763 l 65 763 l 64 693 l 228 763 l 251 724 l 64 596 l 14 613 z "},"":{"ha":322,"x_min":10,"x_max":313,"o":"m 154 640 q 122 591 147 611 q 67 571 96 571 q 24 591 39 571 q 17 640 10 611 q 49 689 24 668 q 104 710 75 710 q 147 689 132 710 q 154 640 161 668 m 306 640 q 272 591 299 611 q 218 571 246 571 q 174 591 189 571 q 168 640 160 611 q 201 689 175 668 q 256 710 226 710 q 298 689 283 710 q 306 640 313 668 z "},"":{"ha":314,"x_min":14,"x_max":300,"o":"m 265 772 l 300 674 l 39 568 l 14 607 l 265 772 z "},"":{"ha":371,"x_min":14,"x_max":357,"o":"m 39 596 l 14 633 q 42 674 28 653 q 74 712 57 694 q 110 740 90 729 q 151 751 129 751 q 182 742 169 751 q 203 722 194 733 q 222 701 213 711 q 246 692 232 692 q 280 705 260 692 q 332 751 300 718 l 357 714 q 320 673 338 693 q 285 637 303 653 q 249 611 268 621 q 208 601 231 601 q 170 620 186 601 q 137 651 154 639 q 97 656 119 664 q 39 596 74 649 z "},"`":{"ha":289,"x_min":14,"x_max":275,"o":"m 14 701 l 86 778 l 275 600 l 244 567 l 14 701 z "},"z":{"ha":364,"x_min":-169,"x_max":396,"o":"m 396 221 q 306 87 364 146 q 190 -4 249 28 q 181 -33 186 -18 q 168 -64 175 -49 q 104 -183 140 -132 q 28 -262 68 -233 q -51 -296 -11 -290 q -126 -278 -90 -301 q -162 -230 -154 -258 q -153 -167 -169 -201 q -119 -119 -140 -140 q -68 -81 -97 -99 q -4 -46 -39 -62 q 68 -12 31 -29 q 93 57 85 22 q 99 121 101 92 q 85 170 97 150 q 50 196 72 190 l 69 231 q 147 253 108 231 q 215 305 186 275 q 256 365 243 335 q 253 410 268 394 q 222 419 244 418 q 169 401 200 419 q 101 336 139 382 q 24 206 63 290 l -8 239 q 90 400 39 340 q 188 487 140 460 q 273 513 235 514 q 335 490 311 511 q 364 421 367 463 q 334 338 361 379 q 260 259 307 296 q 158 204 214 222 l 117 199 q 183 151 160 189 q 203 60 206 114 q 288 135 246 88 q 364 254 329 183 l 396 221 m 242 672 q 247 665 244 669 q 246 656 249 660 q 229 651 240 646 q 225 657 226 653 q 224 664 224 661 l 197 679 q 194 678 194 678 q 199 675 197 675 l 218 651 l 211 650 l 192 675 q 172 664 185 667 l 185 635 l 181 631 l 168 658 q 169 663 169 660 l 169 664 l 167 664 l 167 631 q 175 619 175 631 q 164 607 175 607 q 153 619 153 607 q 161 631 153 628 l 160 664 l 157 664 l 157 663 q 158 658 157 660 l 146 631 l 142 635 l 154 664 q 136 674 147 665 l 118 649 l 111 649 l 131 675 l 133 675 q 131 678 133 678 l 104 663 q 100 649 108 654 q 83 651 90 642 q 88 669 76 661 q 101 667 92 672 l 128 683 l 126 686 q 124 683 124 686 l 93 679 l 94 685 l 125 689 q 122 703 122 700 q 123 708 122 706 q 124 714 124 711 l 94 717 l 93 722 l 124 719 q 125 717 124 717 q 126 719 126 719 l 97 738 q 83 736 90 731 q 79 751 72 742 q 94 756 85 763 q 100 742 103 751 l 131 726 l 131 729 l 110 753 l 115 756 l 133 731 q 153 743 142 739 l 142 769 l 146 774 l 158 744 q 157 743 157 744 q 160 744 158 744 l 161 778 q 153 789 153 779 q 164 801 153 801 q 175 789 175 801 q 167 778 175 779 l 167 744 q 169 744 168 744 q 171 743 169 743 q 169 744 169 744 l 181 774 l 185 769 l 175 743 q 184 738 179 740 q 192 733 189 736 l 208 757 l 214 756 l 197 731 l 194 731 q 197 726 194 728 l 225 744 q 229 760 222 753 q 246 756 240 765 q 243 739 254 744 q 228 740 233 735 l 200 721 q 201 719 200 719 l 203 721 l 233 725 l 232 719 l 201 714 q 203 703 203 711 q 203 697 203 700 q 201 692 203 694 l 232 689 l 235 682 l 203 686 q 201 689 203 688 q 200 686 200 686 l 226 669 q 242 672 232 678 m -99 -226 q -71 -222 -87 -232 q -35 -192 -54 -212 q 2 -143 -17 -172 q 38 -81 21 -114 q -55 -135 -17 -108 q -104 -192 -93 -162 q -99 -226 -114 -218 m 289 -174 q 294 -192 299 -192 q 282 -181 292 -194 l 267 -192 l 285 -203 l 282 -207 l 258 -197 l 246 -207 l 258 -217 l 283 -207 l 285 -210 l 268 -221 q 265 -219 265 -219 l 263 -219 l 281 -231 q 292 -217 290 -217 q 288 -236 296 -221 q 274 -250 276 -251 q 274 -244 274 -249 q 279 -233 275 -240 l 261 -222 q 263 -226 261 -226 l 264 -226 l 264 -247 l 258 -250 l 240 -240 l 240 -239 q 239 -236 240 -236 l 239 -257 q 251 -258 246 -257 q 256 -261 256 -258 q 238 -265 256 -265 q 219 -261 219 -265 q 235 -257 219 -257 l 235 -236 q 232 -239 232 -236 q 233 -240 232 -240 l 215 -250 l 214 -249 l 211 -249 l 211 -228 l 213 -228 q 214 -224 214 -226 l 196 -236 q 201 -251 206 -249 q 188 -237 197 -253 q 181 -219 178 -225 q 193 -232 186 -219 l 211 -219 q 208 -221 210 -219 q 206 -222 207 -221 l 189 -212 l 190 -208 l 215 -217 l 228 -207 l 215 -199 l 190 -208 l 190 -204 l 206 -194 q 208 -196 207 -196 q 214 -196 208 -196 q 210 -194 211 -196 l 190 -183 q 184 -192 188 -189 q 178 -194 181 -196 q 178 -189 176 -194 q 185 -176 181 -183 q 191 -165 188 -169 q 197 -162 194 -161 q 192 -179 200 -165 l 211 -190 l 215 -193 q 213 -189 215 -189 q 210 -187 211 -187 l 211 -168 l 214 -167 l 215 -165 l 233 -174 l 232 -176 q 235 -181 232 -181 l 235 -156 q 219 -150 219 -153 q 238 -146 219 -146 q 256 -150 256 -146 q 251 -153 256 -153 q 239 -156 246 -154 l 239 -178 q 238 -181 238 -181 q 242 -176 242 -181 l 240 -176 l 240 -174 l 258 -165 l 260 -167 l 261 -167 l 263 -186 l 260 -186 q 258 -192 257 -190 l 261 -189 l 281 -178 q 275 -161 272 -164 q 289 -174 276 -160 m 200 703 q 199 714 200 711 l 189 713 l 175 703 l 190 692 l 199 692 q 200 697 200 694 q 200 703 200 700 m 126 703 q 128 689 126 694 l 136 692 l 150 701 l 136 713 l 128 713 q 126 703 126 710 m 154 740 q 136 728 147 739 l 142 721 l 157 714 l 158 731 l 154 740 m 172 667 q 181 672 176 669 q 190 678 186 674 l 186 683 l 169 692 l 168 674 l 172 667 m 189 729 q 182 735 186 732 q 172 739 178 739 l 168 731 l 169 714 l 185 722 l 189 729 m 240 -231 l 258 -246 l 256 -222 l 240 -215 l 240 -231 m 138 676 q 146 672 140 674 q 156 667 151 669 l 158 674 l 157 690 l 142 683 l 138 676 m 215 -169 l 219 -193 l 232 -199 l 233 -183 l 215 -169 m 217 -244 l 233 -231 l 232 -215 l 219 -222 l 217 -244 m 240 -199 l 254 -192 l 257 -171 l 240 -183 l 240 -199 m 171 740 l 167 740 l 167 735 q 171 740 171 739 m 133 715 l 131 718 q 128 715 128 717 q 133 715 131 714 m 189 722 l 193 725 l 190 728 q 189 722 189 726 m 160 735 l 160 740 l 157 740 q 160 735 157 738 m 136 726 q 133 725 133 725 l 138 722 q 136 725 136 724 l 136 726 m 197 717 l 197 719 l 193 717 l 197 717 m 260 -194 q 265 -194 263 -197 l 265 -193 l 264 -194 l 260 -194 m 192 681 q 193 682 193 682 l 192 682 l 192 681 m 136 681 l 135 681 l 136 679 l 136 681 m 196 689 l 197 688 l 197 689 l 196 689 z "},"y":{"ha":426,"x_min":-153,"x_max":458,"o":"m 339 490 l 450 490 q 385 351 419 422 q 320 217 356 290 q 251 72 285 143 q 350 149 304 106 q 426 254 396 192 l 458 221 q 362 97 428 150 q 218 3 296 44 l 215 -4 q 139 -138 181 -78 q 53 -237 97 -199 q -33 -289 10 -276 q -110 -278 -75 -301 q -145 -230 -137 -258 q -136 -167 -153 -201 q -99 -117 -124 -139 q -43 -75 -75 -94 q 26 -38 -11 -56 q 104 -3 64 -21 q 140 65 122 31 q 172 131 157 99 q 84 34 128 72 q 8 -4 40 -4 q -39 10 -21 -4 q -61 54 -57 24 q -53 131 -65 85 q -7 242 -40 176 q 51 353 25 307 q 97 431 78 400 q 135 490 119 467 l 247 490 q 196 406 221 449 q 150 326 174 369 q 108 242 126 282 q 67 86 35 86 q 96 109 75 86 q 143 168 117 132 q 199 250 169 204 q 255 340 228 296 q 304 425 282 385 q 339 490 326 465 m -89 -192 q -82 -226 -96 -218 q -51 -224 -68 -233 q -15 -193 -33 -214 q 24 -142 4 -172 q 65 -75 44 -111 q -35 -132 7 -104 q -89 -192 -78 -160 m 261 674 q 267 656 271 656 q 254 667 264 653 l 239 654 l 257 644 l 254 640 l 231 650 l 218 640 l 231 631 l 256 640 l 257 638 l 240 626 q 238 628 238 628 l 235 628 l 253 617 q 264 631 263 631 q 260 611 268 626 q 252 600 256 604 q 246 597 249 596 q 247 603 246 599 q 251 614 247 607 l 233 625 q 235 621 233 621 l 236 621 l 236 600 l 231 597 l 213 607 l 213 608 q 211 611 213 611 l 211 590 q 223 590 218 590 q 228 586 228 589 q 210 582 228 582 q 192 586 192 582 q 207 590 192 590 l 207 611 q 204 608 204 611 q 206 607 204 607 l 188 597 l 186 599 l 183 599 l 183 619 l 185 619 q 186 624 186 621 l 168 611 q 174 596 178 599 q 160 610 169 594 q 153 628 150 622 q 165 615 158 628 l 183 628 q 181 626 182 628 q 178 625 179 626 l 161 635 l 163 639 l 188 631 l 200 640 l 188 649 l 163 639 l 163 643 l 178 653 q 181 651 179 651 q 186 651 181 651 q 182 653 183 651 l 163 664 q 156 655 160 658 q 150 653 153 651 q 151 658 149 653 q 157 671 153 664 q 163 682 160 678 q 169 685 167 686 q 164 668 172 682 l 183 657 l 188 654 q 185 658 188 658 q 182 660 183 660 l 183 679 l 186 681 l 188 682 l 206 674 l 204 671 q 207 667 204 667 l 207 692 q 192 697 192 694 q 210 701 192 701 q 228 697 228 701 q 223 694 228 694 q 211 692 218 693 l 211 669 q 210 667 210 667 q 214 671 214 667 l 213 671 l 213 674 l 231 682 l 232 681 l 233 681 l 235 661 l 232 661 q 231 656 229 657 l 233 658 l 253 669 q 247 686 244 683 q 261 674 249 688 m 275 -244 l 272 -244 l 292 -256 l 290 -257 l 269 -246 l 269 -249 l 271 -249 l 272 -250 l 275 -257 l 271 -257 l 267 -246 l 258 -242 l 258 -251 l 267 -260 l 265 -262 l 258 -257 l 257 -278 l 254 -278 l 254 -253 q 253 -257 253 -254 l 247 -262 l 246 -260 l 253 -251 l 253 -243 l 246 -246 l 242 -258 l 239 -257 l 239 -250 l 222 -260 l 221 -257 l 240 -244 l 238 -244 q 236 -246 238 -246 l 229 -244 l 229 -242 l 243 -242 l 250 -237 l 243 -233 l 229 -235 l 229 -232 l 236 -229 q 239 -231 238 -229 l 242 -231 l 219 -217 l 221 -215 l 243 -228 q 242 -225 243 -225 l 240 -224 l 239 -224 l 238 -217 l 240 -217 l 246 -228 l 253 -232 l 253 -224 l 246 -212 l 247 -211 l 253 -217 l 253 -218 q 254 -221 253 -221 l 254 -194 l 257 -194 l 258 -221 q 260 -218 260 -219 q 258 -217 258 -217 l 265 -211 l 267 -212 l 258 -224 l 258 -231 l 265 -228 l 269 -215 l 274 -217 l 272 -224 l 290 -212 l 292 -217 l 271 -229 q 274 -229 271 -229 l 275 -228 l 282 -231 l 282 -233 l 269 -232 l 263 -237 l 269 -242 l 282 -239 l 283 -242 l 275 -244 m 213 617 l 231 601 l 228 625 l 213 632 l 213 617 m 188 678 l 192 654 l 204 649 l 206 664 l 188 678 m 189 603 l 206 617 l 204 632 l 192 625 l 189 603 m 213 649 l 226 656 l 229 676 l 213 664 l 213 649 m 242 -250 q 243 -247 243 -249 l 239 -250 l 242 -250 m 232 653 q 238 653 235 650 l 238 654 l 236 653 l 232 653 m 269 -224 l 272 -224 l 269 -224 z "},"x":{"ha":385,"x_min":-56,"x_max":417,"o":"m 354 543 q 392 508 383 540 q 381 426 400 475 q 342 357 364 388 q 296 300 321 326 q 244 252 271 274 q 189 211 217 231 q 195 108 186 146 q 229 69 204 69 q 263 84 243 69 q 303 124 282 99 q 345 182 324 149 q 385 254 367 215 l 417 221 q 317 55 367 114 q 194 -4 267 -4 q 115 33 140 -4 q 83 132 90 69 q 47 94 64 114 q 17 51 29 75 q 47 52 35 57 q 67 37 60 47 q 76 11 74 26 q 75 -18 78 -4 q 50 -67 69 -46 q 3 -87 31 -89 q -24 -79 -11 -87 q -46 -56 -37 -71 q -55 -19 -54 -40 q -46 31 -56 3 q 6 116 -28 78 q 82 189 40 154 q 85 266 82 225 q 93 351 88 307 l 24 206 l -8 239 l 113 490 l 218 490 q 203 376 210 432 q 192 272 196 321 q 267 337 233 304 q 319 408 300 369 q 278 429 290 406 q 275 481 267 453 q 305 526 283 507 q 354 543 326 546 m 269 658 q 274 651 272 656 q 274 642 276 646 q 257 638 268 632 q 253 643 254 639 q 251 650 251 647 l 225 665 q 222 664 222 664 q 226 661 225 661 l 246 638 l 239 636 l 219 661 q 200 650 213 653 l 213 621 l 208 617 l 196 644 q 197 649 197 646 l 197 650 l 194 650 l 194 617 q 203 606 203 617 q 192 593 203 593 q 181 606 181 593 q 189 617 181 614 l 188 650 l 185 650 l 185 649 q 186 644 185 646 l 174 617 l 169 621 l 182 650 q 164 660 175 651 l 146 635 l 139 635 l 158 661 l 161 661 q 158 664 161 664 l 132 649 q 128 635 136 640 q 111 638 118 628 q 115 656 104 647 q 129 653 119 658 l 156 669 l 154 672 q 151 669 151 672 l 121 665 l 122 671 l 153 675 q 150 689 150 686 q 151 694 150 692 q 151 700 151 697 l 122 703 l 121 708 l 151 706 q 153 703 151 703 q 154 706 154 706 l 125 724 q 111 722 118 717 q 107 738 100 728 q 122 742 113 749 q 128 728 131 738 l 158 713 l 158 715 l 138 739 l 143 742 l 161 717 q 181 729 169 725 l 169 756 l 174 760 l 186 731 q 185 729 185 731 q 188 731 186 731 l 189 764 q 181 775 181 765 q 192 788 181 788 q 203 775 203 788 q 194 764 203 765 l 194 731 q 197 730 196 731 q 199 729 197 729 q 197 731 197 731 l 208 760 l 213 756 l 203 729 q 212 724 207 726 q 219 719 217 722 l 236 743 l 242 742 l 225 717 l 222 717 q 225 713 222 714 l 253 731 q 257 746 250 739 q 274 742 268 751 q 271 725 282 731 q 256 726 261 721 l 228 707 q 229 706 228 706 l 231 707 l 261 711 l 260 706 l 229 700 q 231 689 231 697 q 231 683 231 686 q 229 678 231 681 l 260 675 l 263 668 l 231 672 q 229 675 231 674 q 228 672 228 672 l 254 656 q 269 658 260 664 m 192 -90 q 197 -108 201 -108 q 185 -97 194 -111 l 169 -108 l 188 -119 l 185 -124 l 161 -114 l 149 -124 l 161 -133 l 186 -124 l 188 -126 l 171 -137 q 168 -136 168 -136 l 165 -136 l 183 -147 q 194 -133 193 -133 q 190 -153 199 -137 q 183 -164 186 -160 q 176 -167 179 -168 q 177 -161 176 -165 q 182 -150 178 -157 l 164 -139 q 165 -143 164 -143 l 167 -143 l 167 -164 l 161 -167 l 143 -157 l 143 -156 q 142 -153 143 -153 l 142 -174 q 153 -174 149 -174 q 158 -178 158 -175 q 140 -182 158 -182 q 122 -178 122 -182 q 138 -174 122 -174 l 138 -153 q 135 -156 135 -153 q 136 -157 135 -157 l 118 -167 l 117 -165 l 114 -165 l 114 -144 l 115 -144 q 117 -140 117 -143 l 99 -153 q 104 -168 108 -165 q 90 -154 100 -169 q 83 -136 81 -142 q 96 -149 89 -136 l 114 -136 q 111 -137 113 -136 q 108 -139 110 -137 l 92 -129 l 93 -125 l 118 -133 l 131 -124 l 118 -115 l 93 -125 l 93 -121 l 108 -111 q 111 -112 110 -112 q 117 -112 111 -112 q 113 -111 114 -112 l 93 -100 q 87 -109 90 -106 q 81 -111 83 -112 q 81 -106 79 -111 q 88 -93 83 -100 q 94 -82 90 -86 q 100 -79 97 -78 q 94 -96 103 -82 l 114 -107 l 118 -110 q 115 -106 118 -106 q 113 -104 114 -104 l 114 -85 l 117 -83 l 118 -82 l 136 -90 l 135 -93 q 138 -97 135 -97 l 138 -72 q 122 -67 122 -69 q 140 -62 122 -62 q 158 -67 158 -62 q 153 -70 158 -69 q 142 -72 149 -71 l 142 -94 q 140 -97 140 -97 q 144 -93 144 -97 l 143 -93 l 143 -90 l 161 -82 l 163 -83 l 164 -83 l 165 -103 l 163 -103 q 161 -108 160 -107 l 164 -106 l 183 -94 q 178 -78 175 -81 q 192 -90 179 -76 m 228 689 q 226 700 228 697 l 217 699 l 203 689 l 218 678 l 226 678 q 228 683 228 681 q 228 689 228 686 m 154 689 q 156 675 154 681 l 164 678 l 178 688 l 164 699 l 156 699 q 154 689 154 696 m 182 726 q 164 714 175 725 l 169 707 l 185 700 l 186 717 l 182 726 m 200 653 q 209 658 204 656 q 218 664 214 660 l 214 669 l 197 678 l 196 660 l 200 653 m 217 715 q 210 722 214 718 q 200 725 206 725 l 196 717 l 197 700 l 213 708 l 217 715 m 143 -147 l 161 -162 l 158 -139 l 143 -132 l 143 -147 m 165 663 q 174 658 168 660 q 183 653 179 656 l 186 660 l 185 676 l 169 669 l 165 663 m 118 -86 l 122 -110 l 135 -115 l 136 -100 l 118 -86 m 119 -161 l 136 -147 l 135 -132 l 122 -139 l 119 -161 m 143 -115 l 157 -108 l 160 -87 l 143 -100 l 143 -115 m 199 726 l 194 726 l 194 721 q 199 726 199 725 m 217 708 l 221 711 l 218 714 q 217 708 217 713 m 161 701 l 158 704 q 156 701 156 703 q 161 701 158 700 m 188 721 l 188 726 l 185 726 q 188 721 185 724 m 164 713 q 161 711 161 711 l 165 708 q 164 711 164 710 l 164 713 m 225 703 l 225 706 l 221 703 l 225 703 m 163 -111 q 168 -111 165 -114 l 168 -110 l 167 -111 l 163 -111 m 219 667 q 221 668 221 668 l 219 668 l 219 667 m 224 675 l 225 674 l 225 675 l 224 675 m 164 667 l 163 667 l 164 665 l 164 667 z "},"w":{"ha":581,"x_min":-64,"x_max":729,"o":"m 431 490 l 303 183 q 281 106 282 135 q 303 78 281 78 q 342 106 319 78 q 388 173 364 133 q 432 257 411 213 q 465 335 453 301 q 447 380 449 351 q 454 435 444 408 q 483 481 464 461 q 528 500 501 500 q 563 488 551 500 q 579 458 575 476 q 580 417 583 440 q 571 374 576 394 q 652 405 611 386 q 711 438 693 424 l 729 400 q 644 356 693 378 q 551 324 594 333 q 489 206 525 264 q 413 101 453 147 q 331 25 372 54 q 250 -4 289 -4 q 181 27 204 -4 q 168 118 157 58 q 85 31 126 65 q 8 -4 44 -4 q -37 10 -19 -4 q -60 54 -56 24 q -52 131 -64 85 q -7 242 -40 176 q 52 353 26 307 q 97 431 78 400 q 136 490 119 467 l 249 490 q 197 406 222 449 q 151 326 175 369 q 108 242 128 282 q 63 131 71 163 q 74 99 56 99 q 102 121 82 99 q 148 178 122 143 q 202 256 174 213 q 258 344 231 300 q 306 426 285 388 q 340 490 328 465 l 431 490 m 443 -217 q 448 -224 446 -219 q 447 -233 450 -229 q 431 -237 442 -243 q 426 -232 428 -236 q 425 -225 425 -228 l 399 -210 q 396 -211 396 -211 q 400 -214 399 -214 l 419 -237 l 413 -239 l 393 -214 q 374 -225 386 -222 l 386 -254 l 382 -258 l 369 -231 q 371 -226 371 -229 l 371 -225 l 368 -225 l 368 -258 q 376 -269 376 -258 q 365 -282 376 -282 q 354 -269 354 -282 q 363 -258 354 -261 l 361 -225 l 358 -225 l 358 -226 q 360 -231 358 -229 l 347 -258 l 343 -254 l 356 -225 q 338 -215 349 -224 l 319 -240 l 313 -240 l 332 -214 l 335 -214 q 332 -211 335 -211 l 306 -226 q 301 -240 310 -235 q 285 -237 292 -247 q 289 -219 278 -228 q 303 -222 293 -217 l 329 -206 l 328 -203 q 325 -206 325 -203 l 294 -210 l 296 -204 l 326 -200 q 324 -186 324 -189 q 324 -181 324 -183 q 325 -175 325 -178 l 296 -172 l 294 -167 l 325 -169 q 326 -172 325 -172 q 328 -169 328 -169 l 299 -151 q 285 -153 292 -158 q 281 -137 274 -147 q 296 -133 286 -126 q 301 -147 304 -137 l 332 -162 l 332 -160 l 311 -136 l 317 -133 l 335 -158 q 354 -146 343 -150 l 343 -119 l 347 -115 l 360 -144 q 358 -146 358 -144 q 361 -144 360 -144 l 363 -111 q 354 -100 354 -110 q 365 -87 354 -87 q 376 -100 376 -87 q 368 -111 376 -110 l 368 -144 q 370 -145 369 -144 q 372 -146 371 -146 q 371 -144 371 -144 l 382 -115 l 386 -119 l 376 -146 q 385 -151 381 -149 q 393 -156 390 -153 l 410 -132 l 415 -133 l 399 -158 l 396 -158 q 399 -162 396 -161 l 426 -144 q 431 -129 424 -136 q 447 -133 442 -124 q 444 -150 456 -144 q 429 -149 435 -154 l 401 -168 q 403 -169 401 -169 l 404 -168 l 435 -164 l 433 -169 l 403 -175 q 404 -186 404 -178 q 404 -192 404 -189 q 403 -197 404 -194 l 433 -200 l 436 -207 l 404 -203 q 403 -200 404 -201 q 401 -203 401 -203 l 428 -219 q 443 -217 433 -211 m 115 -72 q 121 -90 125 -90 q 108 -79 118 -93 l 93 -90 l 111 -101 l 108 -106 l 85 -96 l 72 -106 l 85 -115 l 110 -106 l 111 -108 l 94 -119 q 92 -118 92 -118 l 89 -118 l 107 -129 q 118 -115 117 -115 q 114 -135 122 -119 q 106 -146 110 -142 q 100 -149 103 -150 q 101 -143 100 -147 q 106 -132 101 -139 l 88 -121 q 89 -125 88 -125 l 90 -125 l 90 -146 l 85 -149 l 67 -139 l 67 -137 q 65 -135 67 -135 l 65 -156 q 77 -156 72 -156 q 82 -160 82 -157 q 64 -164 82 -164 q 46 -160 46 -164 q 61 -156 46 -156 l 61 -135 q 58 -137 58 -135 q 60 -139 58 -139 l 42 -149 l 40 -147 l 38 -147 l 38 -126 l 39 -126 q 40 -122 40 -125 l 22 -135 q 28 -150 32 -147 q 14 -136 24 -151 q 7 -118 4 -124 q 19 -131 13 -118 l 38 -118 q 35 -119 36 -118 q 32 -121 33 -119 l 15 -111 l 17 -107 l 42 -115 l 54 -106 l 42 -97 l 17 -107 l 17 -103 l 32 -93 q 35 -94 33 -94 q 40 -94 35 -94 q 36 -93 38 -94 l 17 -82 q 10 -91 14 -87 q 4 -93 7 -94 q 5 -87 3 -93 q 11 -75 7 -82 q 17 -64 14 -68 q 24 -61 21 -60 q 18 -78 26 -64 l 38 -89 q 42 -93 42 -92 q 39 -87 42 -87 q 36 -86 38 -86 l 38 -67 l 40 -65 l 42 -64 l 60 -72 l 58 -75 q 61 -79 58 -79 l 61 -54 q 46 -49 46 -51 q 64 -44 46 -44 q 82 -49 82 -44 q 77 -52 82 -51 q 65 -54 72 -53 l 65 -76 q 64 -79 64 -79 q 68 -75 68 -79 l 67 -75 l 67 -72 l 85 -64 l 86 -65 l 88 -65 l 89 -85 l 86 -85 q 85 -90 83 -89 l 88 -87 l 107 -76 q 101 -60 99 -62 q 115 -72 103 -58 m 331 771 q 336 753 340 753 q 324 764 333 750 l 308 751 l 326 742 l 324 738 l 300 747 l 288 738 l 300 728 l 325 738 l 326 735 l 310 724 q 307 725 307 725 l 304 725 l 322 714 q 333 728 332 728 q 329 708 338 724 q 322 697 325 701 q 315 694 318 693 q 316 700 315 696 q 321 711 317 704 l 303 722 q 304 718 303 718 l 306 718 l 306 697 l 300 694 l 282 704 l 282 706 q 281 708 282 708 l 281 688 q 292 687 288 688 q 297 683 297 686 q 279 679 297 679 q 261 683 261 679 q 276 688 261 688 l 276 708 q 274 706 274 708 q 275 704 274 704 l 257 694 l 256 696 l 253 696 l 253 717 l 254 717 q 256 721 256 718 l 238 708 q 243 693 247 696 q 229 707 239 692 q 222 725 219 719 q 235 713 228 725 l 253 725 q 250 724 251 725 q 247 722 249 724 l 231 732 l 232 736 l 257 728 l 269 738 l 257 746 l 232 736 l 232 740 l 247 750 q 250 749 249 749 q 256 749 250 749 q 251 750 253 749 l 232 761 q 226 752 229 756 q 219 750 222 749 q 220 756 218 750 q 226 768 222 761 q 233 779 229 775 q 239 782 236 783 q 233 765 242 779 l 253 754 l 257 751 q 254 756 257 756 q 251 757 253 757 l 253 776 l 256 778 l 257 779 l 275 771 l 274 768 q 276 764 274 764 l 276 789 q 261 794 261 792 q 279 799 261 799 q 297 794 297 799 q 292 791 297 792 q 281 789 288 790 l 281 767 q 279 764 279 764 q 283 768 283 764 l 282 768 l 282 771 l 300 779 l 301 778 l 303 778 l 304 758 l 301 758 q 300 753 299 754 l 303 756 l 322 767 q 317 783 314 781 q 331 771 318 785 m 401 -186 q 400 -175 401 -178 l 390 -176 l 376 -186 l 392 -197 l 400 -197 q 401 -192 401 -194 q 401 -186 401 -189 m 328 -186 q 329 -200 328 -194 l 338 -197 l 351 -187 l 338 -176 l 329 -176 q 328 -186 328 -179 m 356 -149 q 338 -161 349 -150 l 343 -168 l 358 -175 l 360 -158 l 356 -149 m 374 -222 q 383 -217 378 -219 q 392 -211 388 -215 l 388 -206 l 371 -197 l 369 -215 l 374 -222 m 390 -160 q 383 -153 388 -157 q 374 -150 379 -150 l 369 -158 l 371 -175 l 386 -167 l 390 -160 m 282 714 l 300 699 l 297 722 l 282 729 l 282 714 m 67 -129 l 85 -144 l 82 -121 l 67 -114 l 67 -129 m 339 -212 q 347 -217 342 -215 q 357 -222 353 -219 l 360 -215 l 358 -199 l 343 -206 l 339 -212 m 42 -68 l 46 -92 l 58 -97 l 60 -82 l 42 -68 m 257 775 l 261 751 l 274 746 l 275 761 l 257 775 m 258 700 l 275 714 l 274 729 l 261 722 l 258 700 m 43 -143 l 60 -129 l 58 -114 l 46 -121 l 43 -143 m 282 746 l 296 753 l 299 774 l 282 761 l 282 746 m 67 -97 l 81 -90 l 83 -69 l 67 -82 l 67 -97 m 372 -149 l 368 -149 l 368 -154 q 372 -149 372 -150 m 390 -167 l 394 -164 l 392 -161 q 390 -167 390 -162 m 335 -174 l 332 -171 q 329 -174 329 -172 q 335 -174 332 -175 m 361 -154 l 361 -149 l 358 -149 q 361 -154 358 -151 m 338 -162 q 335 -164 335 -164 l 339 -167 q 338 -164 338 -165 l 338 -162 m 399 -172 l 399 -169 l 394 -172 l 399 -172 m 86 -93 q 92 -93 89 -96 l 92 -92 l 90 -93 l 86 -93 m 301 750 q 307 750 304 747 l 307 751 l 306 750 l 301 750 m 393 -208 q 394 -207 394 -207 l 393 -207 l 393 -208 m 397 -200 l 399 -201 l 399 -200 l 397 -200 m 338 -208 l 336 -208 l 338 -210 l 338 -208 z "}}}
